<svg width="256" height="316" viewBox="0 0 256 316" fill="none" xmlns="http://www.w3.org/2000/svg">
<g opacity="0.4">
<path d="M-0.246521 0.902056C3.84505 -1.17512 8.84641 0.456867 10.9246 4.54665L31.7629 45.5564L56.484 10.63C59.1344 6.88536 64.3199 5.99771 68.0663 8.64681C71.8125 11.2961 72.7019 16.4794 70.0516 20.2241L40.271 62.2991L79.9487 140.386L131.19 62.9939L107.82 14.0056C105.844 9.86509 107.601 4.90701 111.743 2.93254C115.885 0.95856 120.844 2.71428 122.82 6.85426L141.892 46.8312L165.268 11.5249C167.801 7.70003 172.956 6.65087 176.783 9.18215C180.61 11.7138 181.659 16.8679 179.127 20.6932L155.543 56.3117L198.962 62.2477C203.508 62.8695 206.69 67.0567 206.069 71.6012C205.447 76.1459 201.256 79.3265 196.71 78.7052L145.363 71.6863L94.0086 149.249L188.848 153.636L215.122 109.064C217.451 105.112 222.545 103.796 226.498 106.125C230.452 108.453 231.769 113.544 229.44 117.497L207.624 154.505L248.074 156.376C252.658 156.588 256.203 160.474 255.991 165.056C255.779 169.638 251.89 173.18 247.306 172.968L205.438 171.031L225.377 211.607C227.4 215.724 225.701 220.701 221.582 222.723C217.463 224.746 212.484 223.047 210.461 218.93L186.493 170.155L92.8766 165.825L136.548 251.772L188.11 252.552C192.698 252.621 196.361 256.396 196.292 260.982C196.222 265.569 192.447 269.231 187.858 269.162L145.056 268.515L161.908 301.677C163.986 305.767 162.354 310.766 158.263 312.843C154.171 314.92 149.17 313.289 147.092 309.2L129.506 274.594L102.499 312.511C99.8376 316.247 94.65 317.12 90.9116 314.46C87.1733 311.8 86.3001 306.614 88.9613 302.877L121.011 257.877L78.0567 173.343L26.5317 251.164L51.8844 299.445C54.0172 303.506 52.4529 308.528 48.3897 310.66C44.3263 312.792 39.3027 311.227 37.1699 307.165L16.0652 266.973L-7.27106 302.22C-9.80385 306.045 -14.9602 307.093 -18.787 304.562C-22.6136 302.03 -23.6621 296.877 -21.1294 293.052L1.325 259.135L-41.255 254.932C-45.8216 254.481 -49.1579 250.416 -48.7069 245.851C-48.2558 241.286 -44.1881 237.951 -39.6213 238.402L11.6995 243.467L63.99 164.49L-28.7626 160.2L-53.293 205.632C-55.4728 209.668 -60.5137 211.174 -64.552 208.995C-68.5904 206.816 -70.098 201.778 -67.9182 197.741L-47.1868 159.348L-90.0752 157.365C-94.6594 157.153 -98.2031 153.266 -97.991 148.684C-97.7787 144.102 -93.8911 140.559 -89.307 140.771L-46.6228 142.745L-67.7546 103.609C-69.9343 99.5723 -68.4281 94.5336 -64.3897 92.3548C-60.3514 90.1762 -55.3105 91.683 -53.1307 95.7196L-27.2546 143.641L65.1355 147.915L26.1746 71.2416L-29.0872 70.5697C-33.6757 70.5136 -37.3496 66.7491 -37.2937 62.1625C-37.2377 57.5759 -33.473 53.9024 -28.8843 53.9582L17.6813 54.5246L-3.89268 12.0683C-5.97047 7.97861 -4.33794 2.97927 -0.246521 0.902056Z" fill="white"/>
</g>
</svg>
