<svg width="21" height="20" viewBox="0 0 21 20" fill="none" xmlns="http://www.w3.org/2000/svg">
<path d="M17.5303 9.25781H6.10256L12.9424 3.32031C13.0518 3.22461 12.9854 3.04688 12.8408 3.04688H11.1123C11.0362 3.04688 10.9639 3.07422 10.9073 3.12305L3.52639 9.52734C3.45879 9.58594 3.40458 9.65838 3.36742 9.73976C3.33027 9.82115 3.31104 9.90956 3.31104 9.99902C3.31104 10.0885 3.33027 10.1769 3.36742 10.2583C3.40458 10.3397 3.45879 10.4121 3.52639 10.4707L10.9502 16.9141C10.9795 16.9395 11.0147 16.9531 11.0518 16.9531H12.8389C12.9834 16.9531 13.0498 16.7734 12.9405 16.6797L6.10256 10.7422H17.5303C17.6162 10.7422 17.6865 10.6719 17.6865 10.5859V9.41406C17.6865 9.32812 17.6162 9.25781 17.5303 9.25781Z" fill="#2C5134"/>
</svg>
