<svg width="136" height="226" viewBox="0 0 136 226" fill="none" xmlns="http://www.w3.org/2000/svg">
<path d="M135.5 195.5L104.345 150.5H119.923L93.9613 113H109.539L83.5775 79.25H99.155L68 30.5L36.845 79.25H52.4225L26.4613 113H42.0387L16.0775 150.5H31.655L0.5 195.5H135.5Z" fill="#7EA82D"/>
<path d="M81.3324 11.12L77.1699 4.88L71.7512 8.495V0.5H64.2512V8.495L58.8324 4.88L54.6699 11.12L61.2399 15.5L54.6699 19.88L58.8324 26.12L64.2512 22.505V30.5H71.7512V22.505L77.1699 26.12L81.3324 19.88L74.7624 15.5L81.3324 11.12Z" fill="#FDB62F"/>
<path d="M79.25 195.5H56.75V221.75H79.25V195.5Z" fill="#80421C"/>
<path d="M98 218H38V225.5H98V218Z" fill="#80421C"/>
<path d="M75.5 135.5C79.6421 135.5 83 132.142 83 128C83 123.858 79.6421 120.5 75.5 120.5C71.3579 120.5 68 123.858 68 128C68 132.142 71.3579 135.5 75.5 135.5Z" fill="#DD4A43"/>
<path d="M45.5 180.5C49.6421 180.5 53 177.142 53 173C53 168.858 49.6421 165.5 45.5 165.5C41.3579 165.5 38 168.858 38 173C38 177.142 41.3579 180.5 45.5 180.5Z" fill="#DD4A43"/>
<path d="M75.5 64.25H68V71.75H75.5V64.25Z" fill="#FDB62F"/>
<path d="M60.5 98H53V105.5H60.5V98Z" fill="#FDB62F"/>
<path d="M98 169.25H90.5V176.75H98V169.25Z" fill="#FDB62F"/>
<path d="M56.75 143H49.25V150.5H56.75V143Z" fill="#FDB62F"/>
<path d="M79.25 195.5H56.75V203H79.25V195.5Z" fill="#70320F"/>
</svg>
