<?xml version="1.0" encoding="utf-8"?><svg width="470" height="342" viewBox="0 0 470 342" xmlns="http://www.w3.org/2000/svg" xmlns:xlink="http://www.w3.org/1999/xlink"><view id="car" viewBox="0 0 192 156"/><svg width="192" height="156" fill="none" viewBox="0 0 192 156" xmlns="http://www.w3.org/2000/svg"><path d="M20.984 134.578H2.328v-18.457a12.438 12.438 0 0 1 9.2-12.015l25.398-6.84h133.308a12.438 12.438 0 0 1 12.438 12.437v24.875h-18.656" fill="#DD4A43"/><path d="M2.816 119.031a6.502 6.502 0 0 0-.488 2.363v13.184h180.344v-15.547H2.816Z" fill="#D13E37"/><path d="M160.912 97.266H36.932l27.362-32.839a12.438 12.438 0 0 1 9.555-4.474h55.531a12.437 12.437 0 0 1 10.348 5.538l21.184 31.775Z" fill="#87CED9"/><path d="M104.938 59.953h-6.22v37.313h6.22V59.953Z" fill="#5EB3D1"/><path d="M36.531 150.125c8.587 0 15.547-6.961 15.547-15.547s-6.96-15.547-15.547-15.547c-8.586 0-15.547 6.961-15.547 15.547s6.96 15.547 15.547 15.547ZM148.469 150.125c8.586 0 15.547-6.961 15.547-15.547s-6.961-15.547-15.547-15.547c-8.587 0-15.547 6.961-15.547 15.547s6.96 15.547 15.547 15.547Z" fill="#575755"/><path d="M36.531 140.797a6.219 6.219 0 1 0 0-12.437 6.219 6.219 0 0 0 0 12.437ZM148.469 140.797a6.22 6.22 0 1 0 0-12.438 6.22 6.22 0 0 0 0 12.438Z" fill="#EBEBE8"/><path d="m154.688.875-37.313 15.547V3.984L80.062 19.531V7.094L42.75 22.805v-9.492L2.328 31.968 42.75 50.625v-9.493l37.313 15.712V44.406l37.312 15.547V47.516l37.313 15.547V.874Z" fill="#7EA82D"/><path d="M182.672 25.75h-27.984v12.438h27.984V25.75Z" fill="#A65B2D"/><path d="M76.948 63.063a3.112 3.112 0 0 1-3.063-3.681l9.328-49.75a3.11 3.11 0 1 1 6.113 1.143l-9.328 49.75a3.11 3.11 0 0 1-3.05 2.538ZM132.919 63.063a3.107 3.107 0 0 1-3.053-2.538l-9.329-49.75a3.113 3.113 0 0 1 2.485-3.628 3.111 3.111 0 0 1 3.629 2.484l9.328 49.75a3.12 3.12 0 0 1-.492 2.33 3.104 3.104 0 0 1-2.568 1.352Z" fill="#7A4321"/><path d="M92.5 106.594H80.062v6.218H92.5v-6.218ZM142.25 106.594h-12.438v6.218h12.438v-6.218Z" fill="#EBEBE8"/><path d="m74.56 67.292-3.109 3.73 4.777 3.982 3.11-3.73-4.777-3.982ZM68.342 74.753l-9.328 11.192 4.777 3.982 9.328-11.193-4.777-3.981Z" fill="#A7E1EB"/><path d="M104.938 97.266h-6.22v37.312h6.22V97.266Z" fill="#D13E37"/><g opacity=".6" filter="url(#aa)"><ellipse cx="96.352" cy="150.322" rx="91.797" ry="1.284" fill="#2C5134"/></g><defs><filter id="aa" x=".555" y="145.039" width="191.594" height="10.568" filterUnits="userSpaceOnUse" color-interpolation-filters="sRGB"><feFlood flood-opacity="0" result="BackgroundImageFix"/><feBlend in="SourceGraphic" in2="BackgroundImageFix" result="shape"/><feGaussianBlur stdDeviation="2" result="effect1_foregroundBlur_1936_16754"/></filter></defs></svg><view id="firework" viewBox="356 0 114 114"/><svg width="114" height="114" fill="none" viewBox="0 0 114 114" x="356" xmlns="http://www.w3.org/2000/svg"><path d="M58.875 23.25h-3.75V27h3.75v-3.75ZM58.875 38.25h-3.75V42h3.75v-3.75ZM58.875 87h-3.75v3.75h3.75V87ZM58.875 72h-3.75v3.75h3.75V72ZM27 55.125h-3.75v3.75H27v-3.75ZM42 55.125h-3.75v3.75H42v-3.75ZM90.75 55.125H87v3.75h3.75v-3.75ZM75.75 55.125H72v3.75h3.75v-3.75ZM34.464 31.81l-2.652 2.65 2.652 2.653 2.651-2.652-2.651-2.652ZM45.07 42.417l-2.653 2.651 2.652 2.652 2.652-2.652-2.652-2.651ZM79.537 76.887l-2.652 2.652 2.652 2.652 2.652-2.652-2.652-2.652ZM68.931 66.28l-2.651 2.652 2.651 2.651 2.652-2.651-2.652-2.652ZM34.464 76.886l-2.652 2.652 2.652 2.652 2.651-2.652-2.651-2.652ZM45.07 66.281l-2.653 2.652 2.652 2.651 2.652-2.651-2.652-2.652Z" fill="#FDB62F"/><path d="M58.875 30.75h-3.75v3.75h3.75v-3.75ZM58.875 79.5h-3.75v3.75h3.75V79.5ZM34.5 55.125h-3.75v3.75h3.75v-3.75ZM83.25 55.125H79.5v3.75h3.75v-3.75ZM39.766 37.114l-2.651 2.652 2.651 2.651 2.652-2.651-2.652-2.652ZM74.234 71.583l-2.651 2.651 2.651 2.652 2.652-2.652-2.652-2.651ZM39.766 71.583l-2.651 2.651 2.651 2.652 2.652-2.652-2.652-2.651ZM74.234 37.114l-2.651 2.652 2.651 2.651 2.652-2.651-2.652-2.652Z" fill="#DD4A43"/><path d="m79.537 31.81-2.652 2.652 2.652 2.652 2.652-2.652-2.652-2.652Z" fill="#FDB62F"/><path d="M58.875 10.125h-3.75V19.5h3.75v-9.375ZM58.875 94.5h-3.75v9.375h3.75V94.5ZM19.5 55.125h-9.375v3.75H19.5v-3.75ZM103.875 55.125H94.5v3.75h9.375v-3.75ZM25.177 22.528l-2.652 2.652 6.628 6.628 2.651-2.652-6.627-6.628ZM84.84 82.19l-2.652 2.652 6.628 6.628 2.651-2.652-6.627-6.628ZM29.153 82.192l-6.628 6.628 2.652 2.652 6.627-6.628-2.651-2.651ZM88.816 22.53l-6.628 6.627 2.652 2.652 6.627-6.628-2.651-2.652Z" fill="#FD6D2F"/><path d="m68.931 42.416-2.651 2.651 2.651 2.652 2.652-2.652-2.652-2.651ZM35.496 63.879l-3.464 1.435 1.435 3.465 3.465-1.436-1.436-3.464Z" fill="#FDB62F"/><path d="M22.355 71.347a3.75 3.75 0 1 0-6.926 2.876 3.75 3.75 0 0 0 6.926-2.876Z" fill="#FD6D2F"/><path d="m80.533 45.22-3.465 1.436 1.436 3.465 3.464-1.436-1.435-3.464Z" fill="#FDB62F"/><path d="M91.644 42.653a3.75 3.75 0 1 0 6.928-2.875 3.75 3.75 0 0 0-6.928 2.875Z" fill="#FD6D2F"/><path d="m48.687 32.03-3.464 1.435 1.435 3.464 3.465-1.435-1.436-3.465Z" fill="#FDB62F"/><path d="M41.223 22.639a3.75 3.75 0 1 0-.013-7.5 3.75 3.75 0 0 0 .013 7.5Z" fill="#FD6D2F"/><path d="m67.342 77.071-3.465 1.436 1.436 3.464 3.464-1.435-1.435-3.465Z" fill="#FDB62F"/><path d="M71.344 91.646a3.75 3.75 0 1 0 4.904 4.899 3.717 3.717 0 0 0 0-2.87 3.76 3.76 0 0 0-4.904-2.03Z" fill="#FD6D2F"/><path d="m46.658 77.072-1.435 3.464 3.464 1.436 1.436-3.465-3.465-1.435ZM42.651 91.646a3.75 3.75 0 1 0 .004 6.928 3.714 3.714 0 0 0 2.027-2.029 3.75 3.75 0 0 0-2.03-4.9ZM65.313 32.029l-1.436 3.464 3.465 1.436 1.435-3.465-3.464-1.435ZM71.349 22.354c.452.19.938.287 1.428.287a3.76 3.76 0 0 0 3.471-2.316 3.754 3.754 0 1 0-6.934.002 3.751 3.751 0 0 0 2.035 2.027ZM33.467 45.222l-1.435 3.465 3.464 1.435 1.436-3.464-3.465-1.436ZM17.457 44.68a3.75 3.75 0 1 0 2.87-6.931 3.75 3.75 0 0 0-2.87 6.93ZM78.504 63.878l-1.436 3.465 3.465 1.435 1.435-3.464-3.464-1.436Z" fill="#FDB62F"/><path d="m42.426 61.007-3.466 1.436 1.436 3.465 3.466-1.437-1.436-3.464ZM73.606 48.092l-3.466 1.436 1.435 3.465 3.466-1.437-1.435-3.464ZM51.558 38.96l-3.464 1.435 1.436 3.467 3.464-1.436-1.436-3.466ZM64.47 70.138l-3.464 1.435 1.437 3.466 3.464-1.435-1.436-3.466ZM49.53 70.14l-1.436 3.466 3.464 1.435 1.436-3.466-3.464-1.436ZM62.443 38.96l-1.437 3.466 3.465 1.435 1.436-3.466-3.464-1.435ZM40.396 48.091l-1.436 3.465 3.466 1.436 1.436-3.464-3.466-1.437ZM71.575 61.008l-1.435 3.465 3.466 1.435 1.435-3.464-3.466-1.436Z" fill="#FD6D2F"/><path d="M96.543 69.32a3.75 3.75 0 1 0 2.028 2.027 3.714 3.714 0 0 0-2.028-2.027Z" fill="#FDB62F"/><path d="m28.567 66.749-3.464 1.436 1.436 3.464 3.464-1.436-1.436-3.464ZM87.461 42.35l-3.464 1.436 1.436 3.465 3.464-1.436-1.436-3.464ZM45.816 25.102l-3.464 1.436 1.435 3.464 3.465-1.435-1.436-3.465ZM70.213 83.998l-3.464 1.436 1.435 3.464 3.464-1.436-1.435-3.464ZM43.787 84l-1.435 3.464 3.464 1.435 1.435-3.464L43.788 84ZM68.184 25.1l-1.435 3.464L70.213 30l1.435-3.464-3.464-1.436ZM26.539 42.351l-1.436 3.464 3.464 1.436 1.436-3.464-3.464-1.436ZM85.433 66.748l-1.436 3.464 3.464 1.435 1.436-3.464-3.464-1.435ZM59.41 62.063l4.218 4.218 2.651-2.651-4.218-4.219c.083-.174.156-.353.219-.536h5.97v-3.75h-5.97a5.15 5.15 0 0 0-.22-.534l4.22-4.22-2.652-2.65-4.219 4.218a5.15 5.15 0 0 0-.534-.219v-5.97h-3.75v5.97a5.15 5.15 0 0 0-.534.22l-4.22-4.22-2.65 2.652 4.218 4.219a5.15 5.15 0 0 0-.219.534h-5.97v3.75h5.97c.063.182.136.36.22.534l-4.22 4.22 2.652 2.65 4.219-4.218c.173.083.352.156.534.219v5.97h3.75v-5.97c.182-.063.36-.135.534-.218ZM58.874 57a1.875 1.875 0 1 1-3.751 0 1.875 1.875 0 0 1 3.751 0Z" fill="#FD6D2F"/><path d="M57 .75A5.625 5.625 0 1 0 57 12 5.625 5.625 0 0 0 57 .75Zm0 7.5a1.875 1.875 0 1 1 0-3.75 1.875 1.875 0 0 1 0 3.75ZM57 102a5.626 5.626 0 1 0 0 11.251A5.626 5.626 0 0 0 57 102Zm0 7.5a1.875 1.875 0 1 1 0-3.75 1.875 1.875 0 0 1 0 3.75ZM6.375 51.375a5.625 5.625 0 1 0 0 11.25 5.625 5.625 0 0 0 0-11.25Zm0 7.5a1.875 1.875 0 1 1 0-3.75 1.875 1.875 0 0 1 0 3.75ZM107.625 51.375a5.623 5.623 0 0 0-3.977 9.602 5.619 5.619 0 0 0 6.13 1.22A5.628 5.628 0 0 0 113.25 57a5.625 5.625 0 0 0-5.625-5.625Zm0 7.5a1.877 1.877 0 0 1-1.839-2.24A1.874 1.874 0 0 1 109.5 57a1.877 1.877 0 0 1-1.875 1.875ZM17.222 17.226a5.625 5.625 0 1 0 7.955 7.957 5.625 5.625 0 0 0-7.955-7.957Zm5.303 5.303a1.875 1.875 0 1 1-2.652-2.65 1.875 1.875 0 0 1 2.652 2.65ZM88.824 88.82a5.625 5.625 0 1 0 7.954 7.957 5.625 5.625 0 0 0-7.954-7.956Zm5.304 5.305a1.875 1.875 0 1 1-2.652-2.651 1.875 1.875 0 0 1 2.652 2.651ZM17.222 88.82a5.625 5.625 0 1 0 7.954 7.957 5.625 5.625 0 0 0-7.954-7.956Zm5.303 5.305a1.875 1.875 0 1 1-2.652-2.65 1.875 1.875 0 0 1 2.652 2.65ZM88.824 17.226a5.625 5.625 0 1 0 7.955 7.957 5.625 5.625 0 0 0-7.955-7.957Zm5.304 5.303a1.875 1.875 0 1 1-2.652-2.652 1.875 1.875 0 0 1 2.652 2.652Z" fill="#DD4A43"/></svg><view id="presents" viewBox="192 164 152 149"/><svg width="152" height="149" fill="none" viewBox="0 0 152 149" x="192" y="164" xmlns="http://www.w3.org/2000/svg"><path d="M150.358 131.656a6.519 6.519 0 0 0-.695-2.989 6.694 6.694 0 0 0-1.994-2.367l-7.51-5.562.515-53.008c.103-10.68-4.14-20.963-11.796-28.587-7.657-7.624-18.099-11.963-29.03-12.065l10.512-21.4-5.128-2.543a11.81 11.81 0 0 0-5.14-1.228 11.82 11.82 0 0 0-5.164 1.133 11.82 11.82 0 0 1-5.164 1.132 11.814 11.814 0 0 1-5.14-1.228 11.813 11.813 0 0 0-5.141-1.228 11.82 11.82 0 0 0-5.164 1.133l-5.176 2.446 10.095 21.592c-10.931-.101-21.456 4.044-29.26 11.525-7.802 7.48-12.244 17.683-12.348 28.363l-.513 52.855-7.66 5.565a6.705 6.705 0 0 0-2.01 2.329 6.527 6.527 0 0 0-.247 5.516c.335.813.831 1.553 1.46 2.178a6.828 6.828 0 0 0 2.2 1.467 6.978 6.978 0 0 0 2.608.531l110.028 1.02a6.886 6.886 0 0 0 4.825-1.902 6.568 6.568 0 0 0 2.037-4.678Z" fill="#DD4A43"/><path d="m147.651 126.303-7.511-5.562.515-53.008a39.324 39.324 0 0 0-3.217-15.965 40.11 40.11 0 0 0-9.441-13.404c-11.8 56.775-54.638 85.632-81.559 98.975l97.039.899a6.908 6.908 0 0 0 3.994-1.22 6.655 6.655 0 0 0 2.506-3.274 6.496 6.496 0 0 0 .068-4.088 6.641 6.641 0 0 0-2.394-3.353Z" fill="#D13E37"/><path d="m99.796 29.599-20.609-.191a2.606 2.606 0 0 1-1.814-.754 2.487 2.487 0 0 1-.737-1.787 2.49 2.49 0 0 1 .772-1.773 2.608 2.608 0 0 1 1.828-.72l20.609.191a2.604 2.604 0 0 1 1.814.754c.479.477.744 1.12.738 1.787a2.49 2.49 0 0 1-.772 1.772 2.61 2.61 0 0 1-1.829.72Z" fill="#7A4321"/><path d="m85.858 56.03-.195-.296a23.849 23.849 0 0 1-3.873-15.856c.618-5.563 3.182-10.747 7.26-14.676.364-.352.826-.59 1.329-.685a2.633 2.633 0 0 1 1.492.155c.472.195.872.523 1.152.942.28.418.425.909.418 1.409a23.138 23.138 0 0 0 3.143 11.824 23.834 23.834 0 0 0 8.782 8.697l4.586 2.618-2.598 4.348-4.586-2.617a29.065 29.065 0 0 1-8.802-7.76 28.312 28.312 0 0 1-4.932-10.531 18.891 18.891 0 0 0-2.206 9.821 18.955 18.955 0 0 0 3.161 9.57l.2.303-4.33 2.734Z" fill="#7A4321"/><path d="m68.143 107.334-.391 40.27-61.827-.573.391-40.27" fill="#2C5134"/><path d="m73.443 92.28-72.13-.669-.147 15.102 72.13.668.147-15.101Z" fill="#fff"/><path d="m73.443 92.28-72.13-.669-.147 15.102 72.13.668.147-15.101Z" fill="#2C5134" fill-opacity=".8"/><path d="M22.087 71.67 37.35 91.948l-18.033-.167-10.182-12.68 10.304.096 2.65-7.527Z" fill="#D13E37"/><path d="M53.023 71.956 37.371 91.948l18.033.167 10.426-12.49-10.304-.095-2.503-7.574Z" fill="#B5362F"/><path d="m68.143 107.334-61.827-.573-.073 7.551 61.826.573.074-7.551Z" fill="#2C5134"/><path d="m45.09 92.02-15.457-.143-.538 55.372 15.457.143.537-55.371Z" fill="#DD4A43"/><path d="m51.443 59.987-4.98-1.305c1.73-6.322 5.368-11.99 10.44-16.265l3.376 3.807c-4.295 3.616-7.374 8.412-8.837 13.763ZM63.39 43.94l-2.811-4.217a33.65 33.65 0 0 1 5.148-2.678l2.016 4.63a28.357 28.357 0 0 0-4.353 2.265Z" fill="#E66B65"/><path d="m19.02 124.498-5.153-.047-.146 15.101 5.152.048.146-15.102ZM19.117 114.432l-5.152-.048-.049 5.034 5.152.048.049-5.034Z" fill="#56745D"/></svg><view id="star" viewBox="0 156 182 186"/><svg width="182" height="186" fill="none" viewBox="0 0 182 186" y="156" xmlns="http://www.w3.org/2000/svg"><path d="M111.26 44.498a9.997 9.997 0 0 1-4.537-14.78 10 10 0 1 1 4.537 14.78Zm5.694-13.878a5.001 5.001 0 0 0-6.511 6.555 4.998 4.998 0 0 0 7.405 2.22 5 5 0 0 0-.894-8.774Z" fill="#FD9A30"/><path d="m113.347 48.832 6.522 38.174a4.005 4.005 0 0 0 1.695 2.633l32.459 22.057a4.002 4.002 0 0 1-.799 7.039l-36.017 14.076a3.994 3.994 0 0 0-2.438 2.813l-8.51 36.367a4 4 0 0 1-6.892 1.736l-26.768-30.335a4.004 4.004 0 0 0-3.276-1.344l-40.36 2.79a4.002 4.002 0 0 1-3.686-6.077l19.486-31.862a4.005 4.005 0 0 0 .24-3.715L29.29 67.944a4 4 0 0 1 4.414-5.547l40.701 7.91a4 4 0 0 0 3.244-.787l29.273-23.146a4 4 0 0 1 6.425 2.458Z" fill="#FDB62F"/><path d="m76.21 70.65-1.804-.351-40.704-7.904a3.953 3.953 0 0 0-3.856 1.39l55.792 43.161L76.21 70.65Z" fill="#FD9A30"/><path d="m120.153 88.68-.287-1.677-2.609-15.27-3.912-22.905a3.965 3.965 0 0 0-2.598-3.082l-25.11 61.198 34.516-18.264ZM115.244 133.573l1.959-.763 9.53-3.727 26.487-10.35a3.944 3.944 0 0 0 2.517-3.315l-70.101-8.473 29.608 26.628ZM71.29 141.908l7.169 8.128 20.904 23.689a3.948 3.948 0 0 0 3.939 1.235l-17.666-68.015-14.346 34.963Z" fill="#FD9A30"/><path d="M45.86 105.103 25.275 138.76a3.918 3.918 0 0 0-.194 3.766c13.887-8.997 60.557-35.58 60.557-35.58l-39.778-1.843Z" fill="#FD9A30"/></svg><view id="wreath" viewBox="192 0 164 164"/><svg width="164" height="164" fill="none" viewBox="0 0 164 164" x="192" xmlns="http://www.w3.org/2000/svg"><path d="M159.918 68.408a27.194 27.194 0 0 1-3.656-13.596 27.198 27.198 0 0 0-13.596-23.543 27.237 27.237 0 0 1-9.951-9.951 27.19 27.19 0 0 0-23.529-13.596A27.18 27.18 0 0 1 95.59 4.094a27.18 27.18 0 0 0-27.185 0A27.18 27.18 0 0 1 54.809 7.75a27.192 27.192 0 0 0-23.543 13.593 27.23 27.23 0 0 1-9.951 9.95A27.19 27.19 0 0 0 7.719 54.813a27.208 27.208 0 0 1-3.628 13.596 27.18 27.18 0 0 0 0 27.185 27.209 27.209 0 0 1 3.657 13.596 27.19 27.19 0 0 0 13.595 23.543 27.237 27.237 0 0 1 9.95 9.951 27.192 27.192 0 0 0 23.544 13.596 27.171 27.171 0 0 1 13.596 3.656 27.186 27.186 0 0 0 27.185 0 27.172 27.172 0 0 1 13.596-3.656 27.2 27.2 0 0 0 23.544-13.596 27.233 27.233 0 0 1 9.95-9.951 27.19 27.19 0 0 0 13.596-23.543 27.215 27.215 0 0 1 3.656-13.596 27.186 27.186 0 0 0-.042-27.185Zm-77.92 50.155a36.56 36.56 0 0 1-33.78-22.57 36.562 36.562 0 1 1 33.78 22.57Z" fill="#7EA82D"/><path d="M159.915 68.408a27.205 27.205 0 0 1-3.657-13.596 27.187 27.187 0 0 0-13.595-23.543 27.189 27.189 0 0 1-7.285-6.207 133.894 133.894 0 0 1-18 47.871 36.477 36.477 0 0 1-10.599 35.977 36.48 36.48 0 0 1-36.724 7.617 177.964 177.964 0 0 1-47.447 17.072 27.14 27.14 0 0 1 8.654 9.082 27.183 27.183 0 0 0 23.544 13.595 27.182 27.182 0 0 1 13.596 3.657 27.186 27.186 0 0 0 27.185 0 27.18 27.18 0 0 1 13.596-3.657 27.18 27.18 0 0 0 23.543-13.595 27.228 27.228 0 0 1 9.951-9.951 27.188 27.188 0 0 0 13.595-23.543 27.204 27.204 0 0 1 3.657-13.596 27.184 27.184 0 0 0-.014-27.183Z" fill="#729C22"/><path d="M62.313 48.25 51.063 82l11.25-2.813 8.437 11.25L82 48.25H62.312ZM101.688 48.25 112.938 82l-11.25-2.813-8.438 11.25L82 48.25h19.688Z" fill="#B83630"/><path d="m51.546 13.05-3.909 11.724a5.626 5.626 0 0 0 4.717 7.37l18.396 2.044 8.438-11.25-19.184-12.791a5.625 5.625 0 0 0-8.458 2.902Z" fill="#D13E37"/><path d="m70.746 34.188-18.993 4.218a5.627 5.627 0 0 0-4.047 7.465l3.676 9.801a5.625 5.625 0 0 0 8.395 2.703l19.407-12.938-8.438-11.25ZM112.454 13.05l3.909 11.724a5.621 5.621 0 0 1-.599 4.811 5.617 5.617 0 0 1-4.117 2.558L93.25 34.188l-8.438-11.25 19.185-12.791a5.62 5.62 0 0 1 4.946-.64 5.617 5.617 0 0 1 3.511 3.542Z" fill="#D13E37"/><path d="m93.25 34.188 18.993 4.218a5.618 5.618 0 0 1 3.724 2.81 5.625 5.625 0 0 1 .323 4.655l-3.676 9.804a5.625 5.625 0 0 1-8.395 2.7L84.813 45.437l8.437-11.25Z" fill="#D13E37"/><path d="m70.746 28.48-9.206-2.133a2.813 2.813 0 0 1-2.044-3.409 2.813 2.813 0 0 1 3.408-2.044l9.206 2.129a2.813 2.813 0 0 1-1.364 5.456ZM59.496 45.438a2.813 2.813 0 0 1 2.044-3.409l9.206-2.132a2.812 2.812 0 0 1 1.364 5.457l-9.206 2.129a2.812 2.812 0 0 1-3.408-2.045ZM101.093 20.893l-8.52 2.132a2.812 2.812 0 1 0 1.364 5.454l8.521-2.132a2.812 2.812 0 1 0-1.365-5.454ZM101.09 47.483l-9.205-2.13a2.812 2.812 0 0 1 1.364-5.456l9.205 2.132a2.812 2.812 0 0 1-1.364 5.454Z" fill="#B3352F"/><path d="M143.875 93.25h-5.625c0 4.475 1.778 8.768 4.943 11.932a16.871 16.871 0 0 0 11.932 4.943h5.625a16.873 16.873 0 0 0-16.875-16.875ZM70.75 129.812v5.626a16.874 16.874 0 0 0 16.875-16.876v-5.624a16.873 16.873 0 0 0-16.875 16.874ZM11.688 34.188H6.061a16.875 16.875 0 0 0 16.875 16.874h5.625a16.875 16.875 0 0 0-16.875-16.874Z" fill="#97C936"/><path d="M20.125 93.25a8.438 8.438 0 1 0 0-16.875 8.438 8.438 0 0 0 0 16.875ZM138.25 65.125a8.438 8.438 0 1 0 0-16.876 8.438 8.438 0 0 0 0 16.876ZM112.938 138.25a8.438 8.438 0 1 0-.002-16.876 8.438 8.438 0 0 0 .002 16.876ZM45.438 132.625a8.438 8.438 0 1 0 0-16.875 8.438 8.438 0 0 0 0 16.875ZM87.625 17.313h-11.25a5.625 5.625 0 0 0-5.625 5.625v22.5a5.625 5.625 0 0 0 5.625 5.624h11.25a5.625 5.625 0 0 0 5.625-5.624v-22.5a5.625 5.625 0 0 0-5.625-5.625Z" fill="#DD4A43"/><path d="m70.748 25.75-.002.002a2.812 2.812 0 0 0 .264 3.969l18.267 15.983a2.812 2.812 0 0 0 3.968-.264l.002-.003a2.812 2.812 0 0 0-.264-3.968L74.716 25.486a2.812 2.812 0 0 0-3.968.264Z" fill="#D13E37"/></svg></svg>