<svg width="137" height="145" viewBox="0 0 137 145" fill="none" xmlns="http://www.w3.org/2000/svg">
<path d="M68.3814 20.3806C66.4035 20.3806 64.4701 19.7941 62.8257 18.6953C61.1812 17.5964 59.8994 16.0347 59.1426 14.2074C58.3857 12.3801 58.1876 10.3695 58.5735 8.42966C58.9594 6.48985 59.9118 4.70802 61.3103 3.30949C62.7088 1.91097 64.4906 0.958558 66.4304 0.572706C68.3703 0.186854 70.3809 0.384887 72.2082 1.14176C74.0354 1.89864 75.5972 3.18036 76.696 4.82486C77.7949 6.46935 78.3813 8.40275 78.3813 10.3806C78.3813 13.0327 77.3278 15.5763 75.4524 17.4516C73.5771 19.327 71.0335 20.3806 68.3814 20.3806ZM68.3814 5.38056C67.3924 5.38056 66.4257 5.6738 65.6035 6.22321C64.7813 6.77262 64.1404 7.55351 63.762 8.46714C63.3835 9.38077 63.2845 10.3861 63.4774 11.356C63.6704 12.3259 64.1466 13.2168 64.8458 13.9161C65.5451 14.6154 66.436 15.0916 67.4059 15.2845C68.3758 15.4774 69.3811 15.3784 70.2948 15C71.2084 14.6215 71.9893 13.9807 72.5387 13.1584C73.0881 12.3362 73.3814 11.3695 73.3814 10.3806C73.3814 9.05448 72.8546 7.78271 71.9169 6.84502C70.9792 5.90734 69.7074 5.38056 68.3814 5.38056Z" fill="#FD9A30"/>
<path d="M71.9578 23.5985L92.4828 56.4385C92.7682 56.8946 93.1427 57.2885 93.5838 57.5965C94.025 57.9044 94.5238 58.1203 95.0503 58.231L133.453 66.316C134.167 66.466 134.826 66.8083 135.359 67.3059C135.893 67.8035 136.28 68.4376 136.479 69.1394C136.678 69.8412 136.681 70.5841 136.488 71.2877C136.296 71.9912 135.914 72.6287 135.385 73.131L107.408 99.826C106.939 100.274 106.586 100.829 106.379 101.443C106.172 102.058 106.117 102.713 106.22 103.354L112.153 140.229C112.269 140.953 112.184 141.696 111.907 142.375C111.629 143.055 111.17 143.645 110.58 144.081C109.989 144.517 109.29 144.782 108.559 144.847C107.828 144.912 107.094 144.775 106.435 144.451L70.1553 126.549C69.6048 126.277 68.9991 126.136 68.3853 126.136C67.7714 126.136 67.1658 126.277 66.6153 126.549L30.3353 144.451C29.677 144.775 28.9421 144.912 28.2111 144.847C27.4801 144.782 26.7812 144.517 26.1908 144.081C25.6005 143.645 25.1414 143.055 24.864 142.375C24.5865 141.696 24.5013 140.953 24.6178 140.229L30.5503 103.354C30.653 102.713 30.5987 102.058 30.3918 101.443C30.1849 100.829 29.8318 100.274 29.3628 99.826L1.44776 73.1885C0.920638 72.6829 0.542037 72.0425 0.353029 71.337C0.16402 70.6314 0.171821 69.8875 0.375583 69.1861C0.579345 68.4846 0.97129 67.8524 1.5089 67.3579C2.04651 66.8634 2.70926 66.5256 3.42526 66.381L44.0828 58.2485C44.6478 58.1357 45.1818 57.9022 45.6483 57.5639C46.1147 57.2257 46.5025 56.7906 46.7853 56.2885L65.0803 23.7635C65.4201 23.1584 65.9114 22.6521 66.5061 22.2944C67.1008 21.9367 67.7783 21.7398 68.472 21.7232C69.1658 21.7066 69.852 21.8707 70.4631 22.1995C71.0743 22.5283 71.5893 23.0104 71.9578 23.5985Z" fill="#FDB62F"/>
<path d="M45.8828 57.8806L44.0803 58.2406L3.42281 66.3806C2.71309 66.5172 2.05442 66.8458 1.51844 67.3306C0.98245 67.8155 0.589669 68.438 0.382812 69.1306L68.3828 87.8806L45.8828 57.8806Z" fill="#FD9A30"/>
<path d="M93.3813 57.8801L92.4788 56.4376L84.2688 43.3001L71.9538 23.5951C71.5798 22.9929 71.051 22.5022 70.4226 22.1742C69.7942 21.8461 69.0892 21.6928 68.3813 21.7301V87.8801L93.3813 57.8801Z" fill="#FD9A30"/>
<path d="M105.881 101.276L107.404 99.826L114.806 92.761L135.381 73.131C135.916 72.6266 136.3 71.9828 136.489 71.2721C136.678 70.5615 136.665 69.8121 136.451 69.1085L68.3813 87.881L105.881 101.276Z" fill="#FD9A30"/>
<path d="M68.3813 125.673L78.0988 130.471L106.431 144.451C107.083 144.777 107.812 144.917 108.537 144.855C109.263 144.792 109.958 144.531 110.544 144.098L68.3813 87.8806V125.673Z" fill="#FD9A30"/>
<path d="M30.8829 101.276L24.6154 140.228C24.5074 140.878 24.5654 141.545 24.7839 142.167C25.0024 142.789 25.3744 143.346 25.8654 143.786C35.2979 130.191 68.3829 87.8806 68.3829 87.8806L30.8829 101.276Z" fill="#FD9A30"/>
</svg>
