<svg width="164" height="164" viewBox="0 0 164 164" fill="none" xmlns="http://www.w3.org/2000/svg">
<path d="M159.918 68.4077C157.527 64.2751 156.266 59.5862 156.262 54.812C156.261 50.0397 155.004 45.3517 152.618 41.219C150.231 37.0862 146.799 33.6545 142.666 31.2686C138.535 28.8809 135.103 25.4494 132.715 21.318C130.33 17.1872 126.901 13.7564 122.771 11.37C118.641 8.98365 113.956 7.72567 109.186 7.72235C104.414 7.72738 99.7252 6.47607 95.5904 4.09423C91.4578 1.70764 86.7697 0.451172 81.9975 0.451172C77.2254 0.451172 72.5373 1.70764 68.4047 4.09423C64.2726 6.4859 59.5835 7.74696 54.8091 7.75047C50.0372 7.75105 45.3494 9.00743 41.2167 11.3934C37.0841 13.7794 33.6521 17.2109 31.2657 21.3433C28.8779 25.4747 25.4465 28.9062 21.315 31.2939C17.1857 33.6777 13.7558 37.1054 11.3695 41.2333C8.98323 45.3612 7.72443 50.044 7.71942 54.812C7.72313 59.5837 6.47191 64.2723 4.0913 68.4077C1.70471 72.5402 0.448242 77.2283 0.448242 82.0005C0.448242 86.7727 1.70471 91.4607 4.0913 95.5933C6.48174 99.7259 7.7427 104.415 7.74755 109.189C7.74812 113.961 9.00481 118.649 11.3913 122.782C13.7778 126.915 17.2101 130.346 21.3432 132.732C25.4746 135.12 28.9061 138.552 31.2938 142.683C33.6797 146.816 37.1114 150.248 41.2442 152.635C45.3769 155.021 50.0649 156.278 54.8372 156.279C59.6116 156.282 64.3008 157.543 68.4329 159.935C72.5654 162.321 77.2535 163.578 82.0257 163.578C86.7979 163.578 91.4859 162.321 95.6185 159.935C99.7506 157.543 104.44 156.282 109.214 156.279C113.986 156.278 118.674 155.021 122.807 152.635C126.94 150.248 130.372 146.816 132.758 142.683C135.145 138.552 138.577 135.12 142.708 132.732C146.841 130.346 150.273 126.915 152.66 122.782C155.047 118.649 156.303 113.961 156.304 109.189C156.309 104.415 157.57 99.7259 159.96 95.5933C162.34 91.457 163.589 86.767 163.582 81.9948C163.575 77.2226 162.311 72.5365 159.918 68.4077ZM81.9975 118.563C74.7662 118.563 67.6972 116.419 61.6845 112.401C55.6718 108.384 50.9855 102.673 48.2182 95.9923C45.4509 89.3114 44.7268 81.9599 46.1376 74.8675C47.5484 67.7751 51.0306 61.2602 56.144 56.1469C61.2573 51.0335 67.7721 47.5513 74.8646 46.1405C81.957 44.7297 89.3085 45.4538 95.9894 48.2211C102.67 50.9885 108.381 55.6748 112.398 61.6874C116.416 67.7001 118.56 74.7691 118.56 82.0005C118.56 91.6975 114.708 100.997 107.851 107.854C100.994 114.711 91.6945 118.563 81.9975 118.563Z" fill="#7EA82D"/>
<path d="M159.915 68.4081C157.524 64.2755 156.263 59.5867 156.258 54.8125C156.258 50.0402 155.001 45.3521 152.615 41.2194C150.228 37.0867 146.796 33.655 142.663 31.2691C139.887 29.6471 137.42 27.5455 135.378 25.0619C132.51 42.0273 126.398 58.2808 117.378 72.9335C119.034 79.328 118.923 86.0521 117.056 92.3883C115.19 98.7245 111.638 104.435 106.779 108.91C101.921 113.386 95.9389 116.458 89.4711 117.8C83.0033 119.141 76.2927 118.701 70.0553 116.527C55.1301 124.441 39.1541 130.189 22.6084 133.599C26.1627 135.909 29.1265 139.019 31.2625 142.681C33.6484 146.814 37.0801 150.246 41.2128 152.632C45.3455 155.019 50.0336 156.276 54.8059 156.276C59.5802 156.28 64.2694 157.541 68.4015 159.933C72.5341 162.319 77.2221 163.576 81.9943 163.576C86.7665 163.576 91.4546 162.319 95.5872 159.933C99.7192 157.541 104.408 156.28 109.183 156.276C113.955 156.276 118.643 155.019 122.776 152.632C126.909 150.246 130.34 146.814 132.726 142.681C135.114 138.549 138.545 135.118 142.677 132.73C146.81 130.344 150.242 126.912 152.629 122.78C155.015 118.647 156.272 113.959 156.272 109.187C156.277 104.412 157.538 99.7236 159.929 95.591C162.313 91.4575 163.566 86.7693 163.564 81.9977C163.561 77.226 162.303 72.5391 159.915 68.4081Z" fill="#729C22"/>
<path d="M62.3125 48.25L51.0625 82L62.3125 79.1875L70.75 90.4375L82 48.25H62.3125Z" fill="#B83630"/>
<path d="M101.688 48.25L112.938 82L101.688 79.1875L93.25 90.4375L82 48.25H101.688Z" fill="#B83630"/>
<path d="M51.5464 13.0492L47.637 24.7745C47.3719 25.5702 47.2881 26.4152 47.3917 27.2476C47.4954 28.0799 47.7838 28.8785 48.236 29.585C48.6882 30.2914 49.2926 30.8878 50.0051 31.3304C50.7175 31.7731 51.52 32.0508 52.3536 32.1432L70.7502 34.1879L79.1877 22.9379L60.0036 10.1467C59.2839 9.66679 58.4631 9.35937 57.6052 9.24832C56.7473 9.13728 55.8754 9.22559 55.0572 9.5064C54.239 9.7872 53.4966 10.2529 52.8877 10.8674C52.2788 11.4818 51.8198 12.2285 51.5464 13.0492Z" fill="#D13E37"/>
<path d="M70.7461 34.1875L51.7533 38.4062C50.9676 38.5809 50.2285 38.9221 49.586 39.4068C48.9434 39.8916 48.4124 40.5086 48.0287 41.2162C47.6451 41.9237 47.4177 42.7054 47.3621 43.5084C47.3064 44.3113 47.4238 45.1169 47.7061 45.8706L51.3821 55.6722C51.6796 56.4666 52.1529 57.1835 52.7666 57.7691C53.3803 58.3548 54.1186 58.794 54.9261 59.054C55.7336 59.3139 56.5894 59.3879 57.4295 59.2703C58.2696 59.1527 59.0723 58.8467 59.7774 58.375L79.1836 45.4375L70.7461 34.1875Z" fill="#D13E37"/>
<path d="M112.454 13.0492L116.363 24.7745C116.628 25.5702 116.712 26.4152 116.608 27.2476C116.505 28.0799 116.216 28.8785 115.764 29.585C115.312 30.2914 114.708 30.8878 113.995 31.3304C113.283 31.7731 112.48 32.0508 111.647 32.1432L93.25 34.1879L84.8125 22.9379L103.997 10.1467C104.716 9.66679 105.537 9.35937 106.395 9.24832C107.253 9.13728 108.125 9.22559 108.943 9.5064C109.761 9.7872 110.504 10.2529 111.112 10.8674C111.721 11.4818 112.18 12.2285 112.454 13.0492Z" fill="#D13E37"/>
<path d="M93.25 34.1875L112.243 38.4063C113.029 38.5809 113.768 38.9221 114.41 39.4068C115.053 39.8916 115.584 40.5086 115.967 41.2162C116.351 41.9237 116.578 42.7054 116.634 43.5084C116.69 44.3113 116.572 45.1169 116.29 45.8706L112.614 55.675C112.316 56.4692 111.843 57.1858 111.229 57.7711C110.615 58.3564 109.877 58.7954 109.069 59.0551C108.262 59.3148 107.406 59.3885 106.566 59.2707C105.726 59.1529 104.924 58.8467 104.219 58.375L84.8125 45.4375L93.25 34.1875Z" fill="#D13E37"/>
<path d="M70.7457 28.4791L61.5404 26.3473C60.8175 26.1659 60.1961 25.7051 59.8127 25.066C59.4294 24.4268 59.3154 23.6616 59.4957 22.9385C59.6771 22.2156 60.1379 21.5942 60.777 21.2108C61.4162 20.8274 62.1813 20.7134 62.9045 20.8938L72.1098 23.0229C72.8333 23.2042 73.4552 23.6654 73.8387 24.3052C74.2221 24.945 74.3357 25.7109 74.1545 26.4344C73.9732 27.1574 73.5123 27.7788 72.8732 28.1621C72.2341 28.5455 71.4689 28.6595 70.7457 28.4791Z" fill="#B3352F"/>
<path d="M59.4957 45.438C59.3154 44.7149 59.4294 43.9497 59.8127 43.3106C60.1961 42.6714 60.8175 42.2106 61.5404 42.0293L70.7457 39.8974C71.4689 39.717 72.2341 39.831 72.8732 40.2144C73.5123 40.5978 73.9732 41.2192 74.1545 41.9421C74.3357 42.6656 74.2221 43.4315 73.8387 44.0713C73.4552 44.7111 72.8333 45.1724 72.1098 45.3537L62.9045 47.4827C62.1813 47.6631 61.4162 47.5491 60.777 47.1657C60.1379 46.7823 59.6771 46.161 59.4957 45.438Z" fill="#B3352F"/>
<path d="M101.093 20.8927L92.5721 23.025C91.0653 23.4021 90.1493 24.9287 90.5262 26.4348C90.9031 27.9409 92.4302 28.8561 93.937 28.479L102.458 26.3467C103.965 25.9696 104.88 24.443 104.504 22.9369C104.127 21.4308 102.6 20.5156 101.093 20.8927Z" fill="#B3352F"/>
<path d="M101.09 47.4827L91.8848 45.3537C91.1613 45.1724 90.5394 44.7111 90.156 44.0713C89.7725 43.4315 89.6589 42.6656 89.8402 41.9421C90.0215 41.2192 90.4823 40.5978 91.1214 40.2144C91.7606 39.831 92.5258 39.717 93.2489 39.8974L102.454 42.0293C103.177 42.2106 103.799 42.6714 104.182 43.3106C104.565 43.9497 104.679 44.7149 104.499 45.438C104.318 46.161 103.857 46.7823 103.218 47.1657C102.578 47.5491 101.813 47.6631 101.09 47.4827Z" fill="#B3352F"/>
<path d="M143.875 93.25H138.25C138.25 97.7255 140.028 102.018 143.193 105.182C146.357 108.347 150.649 110.125 155.125 110.125H160.75C160.75 105.649 158.972 101.357 155.807 98.1926C152.643 95.0279 148.351 93.25 143.875 93.25Z" fill="#97C936"/>
<path d="M70.75 129.812V135.438C75.2255 135.438 79.5178 133.66 82.6824 130.495C85.8471 127.33 87.625 123.038 87.625 118.562V112.938C83.1495 112.938 78.8572 114.715 75.6926 117.88C72.5279 121.045 70.75 125.337 70.75 129.812Z" fill="#97C936"/>
<path d="M11.6875 34.1875H6.0625C6.0625 38.663 7.8404 42.9553 11.0051 46.1199C14.1698 49.2846 18.462 51.0625 22.9375 51.0625H28.5625C28.5625 46.587 26.7846 42.2947 23.6199 39.1301C20.4552 35.9654 16.163 34.1875 11.6875 34.1875Z" fill="#97C936"/>
<path d="M20.125 93.25C24.7849 93.25 28.5625 89.4724 28.5625 84.8125C28.5625 80.1526 24.7849 76.375 20.125 76.375C15.4651 76.375 11.6875 80.1526 11.6875 84.8125C11.6875 89.4724 15.4651 93.25 20.125 93.25Z" fill="#DD4A43"/>
<path d="M138.25 65.125C142.91 65.125 146.688 61.3474 146.688 56.6875C146.688 52.0276 142.91 48.25 138.25 48.25C133.59 48.25 129.812 52.0276 129.812 56.6875C129.812 61.3474 133.59 65.125 138.25 65.125Z" fill="#DD4A43"/>
<path d="M112.938 138.25C117.597 138.25 121.375 134.472 121.375 129.812C121.375 125.153 117.597 121.375 112.938 121.375C108.278 121.375 104.5 125.153 104.5 129.812C104.5 134.472 108.278 138.25 112.938 138.25Z" fill="#DD4A43"/>
<path d="M45.4375 132.625C50.0974 132.625 53.875 128.847 53.875 124.188C53.875 119.528 50.0974 115.75 45.4375 115.75C40.7776 115.75 37 119.528 37 124.188C37 128.847 40.7776 132.625 45.4375 132.625Z" fill="#DD4A43"/>
<path d="M87.625 17.3125H76.375C73.2684 17.3125 70.75 19.8309 70.75 22.9375V45.4375C70.75 48.5441 73.2684 51.0625 76.375 51.0625H87.625C90.7316 51.0625 93.25 48.5441 93.25 45.4375V22.9375C93.25 19.8309 90.7316 17.3125 87.625 17.3125Z" fill="#DD4A43"/>
<path d="M70.7475 25.7502L70.7456 25.7523C69.7227 26.9213 69.8412 28.6981 71.0102 29.7209L89.2766 45.7041C90.4456 46.727 92.2224 46.6085 93.2453 45.4395L93.2471 45.4374C94.27 44.2684 94.1515 42.4916 92.9826 41.4688L74.7161 25.4856C73.5471 24.4627 71.7703 24.5812 70.7475 25.7502Z" fill="#D13E37"/>
</svg>
