<svg xmlns="http://www.w3.org/2000/svg" style="display: none;">
	<symbol id="logo" viewBox="0 0 187 28">
		<path d="M30.2419 25.0566C30.2419 25.0566 30.2028 25.1108 30.1272 25.2158C30.0444 25.321 29.9223 25.4745 29.7375 25.6496C29.6444 25.7361 29.5382 25.8307 29.4123 25.9226C29.2884 26.0172 29.1461 26.1108 28.9863 26.2005C28.6672 26.381 28.2719 26.5372 27.8122 26.635C27.3526 26.73 26.8268 26.7626 26.2645 26.6878C25.9835 26.6512 25.6936 26.5883 25.402 26.4915C25.3657 26.4793 25.329 26.4671 25.2923 26.4548C25.2561 26.441 25.2196 26.4273 25.183 26.4134C25.1093 26.3872 25.0373 26.3545 24.9636 26.324C24.8201 26.2632 24.6742 26.2012 24.5258 26.1382C24.377 26.0755 24.2259 26.0117 24.0724 25.9469C23.9956 25.9148 23.9181 25.8824 23.8401 25.8498C23.7612 25.8206 23.6818 25.7911 23.6019 25.7615C23.4419 25.7027 23.2798 25.6431 23.1153 25.5826C23.0332 25.5524 22.9505 25.522 22.8673 25.4913C22.7839 25.4611 22.701 25.4284 22.6146 25.4026C22.2714 25.2943 21.9193 25.1832 21.5589 25.0695C21.1945 24.9717 20.8216 24.8717 20.4407 24.7695C20.0566 24.6835 19.6644 24.5957 19.2647 24.5062C18.8622 24.4341 18.4521 24.3607 18.035 24.2861C17.8253 24.2571 17.6138 24.2279 17.4006 24.1984C17.2942 24.1837 17.1872 24.1689 17.0798 24.154C17.0262 24.1466 16.9724 24.1392 16.9187 24.1317C16.8645 24.1266 16.8102 24.1213 16.7558 24.1162C16.5387 24.0944 16.3198 24.0726 16.0994 24.0505C15.9893 24.0393 15.8787 24.0281 15.7679 24.0168C15.6567 24.008 15.5449 24.0031 15.4329 23.996C15.2089 23.9828 14.9833 23.9696 14.7563 23.9563L14.5859 23.9462C14.529 23.9435 14.4718 23.944 14.4146 23.9426C14.3003 23.9406 14.1856 23.9385 14.0706 23.9364C13.8406 23.9318 13.6093 23.9272 13.3766 23.9225C13.1439 23.9276 12.9099 23.9329 12.6746 23.9381C12.204 23.9392 11.7299 23.9822 11.2511 24.0107C11.0113 24.0213 10.7722 24.0551 10.5314 24.0792C10.2909 24.1063 10.0488 24.1291 9.80675 24.1599C9.56541 24.1966 9.32311 24.2335 9.07991 24.2704C8.95835 24.2889 8.83654 24.3074 8.71455 24.3259C8.59304 24.3476 8.47189 24.373 8.35026 24.3965C8.10724 24.4442 7.86326 24.492 7.6185 24.5401L7.52677 24.5582L7.43569 24.5802L7.25337 24.6244C7.1318 24.6537 7.00999 24.6832 6.888 24.7127C6.76607 24.7421 6.6439 24.7717 6.52161 24.8012L6.32548 24.8484L6.23189 24.8706L6.18506 24.8817L6.13133 24.8926C5.98232 24.9231 5.84346 24.9453 5.7019 24.9615C5.56034 24.9778 5.41782 24.9887 5.27494 24.9927C4.70347 25.0103 4.12486 24.9324 3.56949 24.7534C3.01453 24.5748 2.48298 24.2901 2.02096 23.9016C1.55822 23.515 1.17286 23.0158 0.91645 22.4527L0.892436 22.3999L0.880489 22.3735C0.873585 22.3572 0.879048 22.3727 0.861999 22.3302L0.825678 22.2371L0.807548 22.1904C0.801364 22.1743 0.79578 22.1616 0.788576 22.1384L0.748414 22.0124C0.719477 21.9256 0.704048 21.85 0.684657 21.7704C0.663945 21.6918 0.65488 21.6112 0.640232 21.5314C0.591724 21.2107 0.592685 20.8845 0.634829 20.5678C0.718877 19.9327 0.964477 19.3392 1.30577 18.828C1.64713 18.315 2.08484 17.8805 2.57526 17.5331C3.0658 17.1842 3.61205 16.9282 4.17619 16.7516L4.38913 16.69L4.59547 16.6391L4.97897 16.5453C5.23442 16.4828 5.48962 16.4204 5.74441 16.358C5.86976 16.3247 6.00334 16.2997 6.13529 16.2731C6.26731 16.2466 6.39926 16.2202 6.5311 16.1937C6.79501 16.141 7.0585 16.0884 7.32145 16.0358C7.38731 16.0217 7.45286 16.0111 7.51836 16.0015L7.71485 15.9708C7.84579 15.9504 7.9766 15.9301 8.1073 15.9097C8.36881 15.8691 8.62978 15.8286 8.89002 15.7882C9.4128 15.7256 9.93444 15.6725 10.4528 15.6172C10.9728 15.5846 11.4899 15.5488 12.0038 15.5239C12.5181 15.5175 13.029 15.5083 13.5357 15.5049C15.5626 15.5315 17.5181 15.756 19.3364 16.1289C21.1553 16.5039 22.8323 17.0381 24.3333 17.6315C24.7069 17.7853 25.0728 17.9338 25.4273 18.0854C25.7771 18.2478 26.1189 18.4064 26.4521 18.5611C26.7874 18.7089 27.1011 18.8829 27.4105 19.0399C27.5645 19.1196 27.7164 19.1981 27.866 19.2754C27.9407 19.314 28.0149 19.3523 28.0885 19.3903L28.1161 19.4044L28.1354 19.4145L28.1488 19.4221L28.2021 19.4523C28.2376 19.4725 28.2729 19.4925 28.3081 19.5125C28.6083 19.687 28.8732 19.8805 29.1152 20.0865C29.3564 20.2928 29.5687 20.5144 29.7539 20.7417C30.1253 21.1963 30.3801 21.6792 30.5395 22.1371C30.6199 22.3662 30.6715 22.5911 30.7057 22.8044C30.7385 23.0178 30.7559 23.2203 30.7503 23.4089C30.7464 23.5972 30.7295 23.7711 30.6995 23.9277C30.6738 24.0851 30.6337 24.2248 30.5941 24.3479C30.5122 24.594 30.4162 24.7686 30.3513 24.8845C30.2799 24.9968 30.243 25.0548 30.243 25.0548L30.2419 25.0566Z" fill="#FAFAFA"/>
		<path d="M32.1812 7.58733C32.1812 7.58733 32.2601 7.61113 32.4079 7.65575C32.4447 7.66792 32.4866 7.67705 32.5313 7.69531C32.5761 7.71345 32.6251 7.73317 32.6779 7.75454C32.7304 7.7767 32.7885 7.79691 32.8471 7.82515C32.905 7.85497 32.9663 7.88663 33.0312 7.92004C33.2862 8.06004 33.5909 8.25111 33.8833 8.54219C33.923 8.5753 33.9552 8.61676 33.9922 8.65492C34.0284 8.69406 34.0652 8.73381 34.1024 8.7741C34.1415 8.81318 34.1736 8.85877 34.2082 8.9037C34.2426 8.94886 34.2775 8.9947 34.3128 9.04108C34.3501 9.08637 34.3785 9.13841 34.4115 9.18857C34.4436 9.23945 34.4762 9.29101 34.5091 9.34311C34.5414 9.39577 34.5665 9.45311 34.5962 9.50911C34.6242 9.5659 34.6549 9.6225 34.6818 9.68167C34.8897 10.1564 35.0133 10.7314 34.9695 11.3414C34.9696 11.3797 34.963 11.4174 34.9581 11.4554C34.953 11.4935 34.9478 11.5316 34.9426 11.5699C34.9373 11.6083 34.932 11.6468 34.9267 11.6854L34.9186 11.7434C34.9207 11.7358 34.9145 11.7623 34.9147 11.7618L34.913 11.7685L34.9097 11.7819L34.9031 11.8086C34.8655 11.9527 34.8412 12.091 34.7774 12.2524C34.7484 12.3297 34.7237 12.4123 34.6896 12.4865C34.6546 12.5602 34.6196 12.6343 34.5843 12.7087C34.5518 12.7849 34.505 12.8534 34.4631 12.9254L34.3984 13.0327L34.3657 13.0865L34.3284 13.1371C34.2782 13.2045 34.2278 13.2723 34.1772 13.3404C34.1257 13.4077 34.0651 13.4677 34.0087 13.532L33.9222 13.6272C33.8914 13.657 33.8592 13.6854 33.8276 13.7146C33.7633 13.7717 33.7015 13.8329 33.6339 13.8869C33.3642 14.106 33.0572 14.2826 32.731 14.4229C32.4017 14.5571 32.0499 14.64 31.6909 14.6792L31.4199 14.6931L31.352 14.696L31.2841 14.6928L31.1482 14.686L31.0121 14.6787C30.9665 14.6775 30.9221 14.6668 30.8771 14.6611L30.7423 14.6403L30.6748 14.6297L30.6411 14.6243L30.6242 14.6217L30.6158 14.6203C30.6051 14.6178 30.6278 14.624 30.5897 14.6144L30.3503 14.5532L30.2905 14.5379C30.2709 14.5333 30.2508 14.5279 30.2272 14.5187L30.0919 14.4697L29.9566 14.4194L29.8891 14.3938L29.8271 14.3639L29.5792 14.2441C29.2586 14.0654 28.9582 13.8478 28.6971 13.5886C28.4418 13.3251 28.2154 13.0327 28.0434 12.7109C27.9996 12.6311 27.9644 12.5472 27.925 12.4654C27.9061 12.4241 27.8863 12.3833 27.8692 12.3415L27.8248 12.2134C27.7969 12.1275 27.7634 12.0437 27.7412 11.9567C27.7204 11.8693 27.6998 11.7823 27.6791 11.6956C27.619 11.3452 27.5868 10.9914 27.6276 10.6504C27.6353 10.4787 27.6769 10.314 27.7072 10.1504L27.7134 10.1198L27.7165 10.1045L27.718 10.0969C27.7171 10.0991 27.7299 10.0499 27.7255 10.0676L27.7421 10.0153C27.753 9.98048 27.7641 9.94572 27.7751 9.91115C27.7861 9.87657 27.797 9.84206 27.8079 9.80767C27.8192 9.77297 27.8276 9.74114 27.8461 9.69902C27.88 9.6205 27.9137 9.54246 27.9471 9.46497C27.9645 9.42717 27.9802 9.38688 27.9991 9.35206C28.0187 9.31779 28.0382 9.28365 28.0577 9.24968C28.0971 9.18242 28.1363 9.1157 28.1751 9.04954C28.2181 8.98611 28.2644 8.92567 28.309 8.86541C28.4846 8.62157 28.6997 8.42648 28.9059 8.25063C29.3351 7.91262 29.7908 7.7154 30.1979 7.60419C30.6059 7.4883 30.972 7.46991 31.266 7.47022C31.3399 7.47217 31.4097 7.47539 31.4751 7.47612C31.5404 7.47953 31.6013 7.48976 31.658 7.49548C31.7145 7.50205 31.7669 7.50814 31.8148 7.5138C31.8627 7.51904 31.9052 7.53115 31.9437 7.53803L32.1799 7.58697L32.1812 7.58733Z" fill="#FAFAFA"/>
		<path d="M32.1812 7.58733C32.1812 7.58733 32.2601 7.61113 32.4079 7.65575C32.4447 7.66792 32.4866 7.67705 32.5313 7.69531C32.5761 7.71345 32.6251 7.73317 32.6779 7.75454C32.7304 7.7767 32.7885 7.79691 32.8471 7.82515C32.905 7.85497 32.9663 7.88663 33.0312 7.92004C33.2862 8.06004 33.5909 8.25111 33.8833 8.54219C33.923 8.5753 33.9552 8.61676 33.9922 8.65492C34.0284 8.69406 34.0652 8.73381 34.1024 8.7741C34.1415 8.81318 34.1736 8.85877 34.2082 8.9037C34.2426 8.94886 34.2775 8.9947 34.3128 9.04108C34.3501 9.08637 34.3785 9.13841 34.4115 9.18857C34.4436 9.23945 34.4762 9.29101 34.5091 9.34311C34.5414 9.39577 34.5665 9.45311 34.5962 9.50911C34.6242 9.5659 34.6549 9.6225 34.6818 9.68167C34.8897 10.1564 35.0133 10.7314 34.9695 11.3414C34.9696 11.3797 34.963 11.4174 34.9581 11.4554C34.953 11.4935 34.9478 11.5316 34.9426 11.5699C34.9373 11.6083 34.932 11.6468 34.9267 11.6854L34.9186 11.7434C34.9207 11.7358 34.9145 11.7623 34.9147 11.7618L34.913 11.7685L34.9097 11.7819L34.9031 11.8086C34.8655 11.9527 34.8412 12.091 34.7774 12.2524C34.7484 12.3297 34.7237 12.4123 34.6896 12.4865C34.6546 12.5602 34.6196 12.6343 34.5843 12.7087C34.5518 12.7849 34.505 12.8534 34.4631 12.9254L34.3984 13.0327L34.3657 13.0865L34.3284 13.1371C34.2782 13.2045 34.2278 13.2723 34.1772 13.3404C34.1257 13.4077 34.0651 13.4677 34.0087 13.532L33.9222 13.6272C33.8914 13.657 33.8592 13.6854 33.8276 13.7146C33.7633 13.7717 33.7015 13.8329 33.6339 13.8869C33.3642 14.106 33.0572 14.2826 32.731 14.4229C32.4017 14.5571 32.0499 14.64 31.6909 14.6792L31.4199 14.6931L31.352 14.696L31.2841 14.6928L31.1482 14.686L31.0121 14.6787C30.9665 14.6775 30.9221 14.6668 30.8771 14.6611L30.7423 14.6403L30.6748 14.6297L30.6411 14.6243L30.6242 14.6217L30.6158 14.6203C30.6051 14.6178 30.6278 14.624 30.5897 14.6144L30.3503 14.5532L30.2905 14.5379C30.2709 14.5333 30.2508 14.5279 30.2272 14.5187L30.0919 14.4697L29.9566 14.4194L29.8891 14.3938L29.8271 14.3639L29.5792 14.2441C29.2586 14.0654 28.9582 13.8478 28.6971 13.5886C28.4418 13.3251 28.2154 13.0327 28.0434 12.7109C27.9996 12.6311 27.9644 12.5472 27.925 12.4654C27.9061 12.4241 27.8863 12.3833 27.8692 12.3415L27.8248 12.2134C27.7969 12.1275 27.7634 12.0437 27.7412 11.9567C27.7204 11.8693 27.6998 11.7823 27.6791 11.6956C27.619 11.3452 27.5868 10.9914 27.6276 10.6504C27.6353 10.4787 27.6769 10.314 27.7072 10.1504L27.7134 10.1198L27.7165 10.1045L27.718 10.0969C27.7171 10.0991 27.7299 10.0499 27.7255 10.0676L27.7421 10.0153C27.753 9.98048 27.7641 9.94572 27.7751 9.91115C27.7861 9.87657 27.797 9.84206 27.8079 9.80767C27.8192 9.77297 27.8276 9.74114 27.8461 9.69902C27.88 9.6205 27.9137 9.54246 27.9471 9.46497C27.9645 9.42717 27.9802 9.38688 27.9991 9.35206C28.0187 9.31779 28.0382 9.28365 28.0577 9.24968C28.0971 9.18242 28.1363 9.1157 28.1751 9.04954C28.2181 8.98611 28.2644 8.92567 28.309 8.86541C28.4846 8.62157 28.6997 8.42648 28.9059 8.25063C29.3351 7.91262 29.7908 7.7154 30.1979 7.60419C30.6059 7.4883 30.972 7.46991 31.266 7.47022C31.3399 7.47217 31.4097 7.47539 31.4751 7.47612C31.5404 7.47953 31.6013 7.48976 31.658 7.49548C31.7145 7.50205 31.7669 7.50814 31.8148 7.5138C31.8627 7.51904 31.9052 7.53115 31.9437 7.53803L32.1799 7.58697L32.1812 7.58733ZM32.1589 7.67577C32.1588 7.67571 32.0786 7.66415 31.9281 7.64224C31.8904 7.63779 31.8488 7.62836 31.8022 7.62617C31.7555 7.62489 31.7046 7.62355 31.6496 7.62209C31.5946 7.62166 31.5358 7.6171 31.4731 7.61965C31.4103 7.62416 31.3439 7.63134 31.2739 7.63749C30.9957 7.66938 30.6577 7.74328 30.3153 7.92193C29.9735 8.09687 29.625 8.35916 29.3354 8.71037C29.3009 8.75542 29.2661 8.80089 29.2309 8.84684C29.1961 8.89262 29.1589 8.93663 29.13 8.98818C29.0698 9.08898 29.0009 9.18406 28.9503 9.29344C28.9228 9.34616 28.8951 9.3993 28.8671 9.45292C28.8442 9.50874 28.821 9.56498 28.7977 9.62171C28.7861 9.6499 28.7742 9.67802 28.7617 9.7059C28.7499 9.73378 28.744 9.76086 28.7347 9.78831C28.7171 9.84243 28.6995 9.89697 28.6817 9.95187C28.6713 9.97549 28.6636 10.014 28.6553 10.0486C28.647 10.0837 28.6387 10.119 28.6303 10.1543C28.6219 10.1896 28.6135 10.2251 28.6051 10.2607L28.5924 10.3141C28.5869 10.3363 28.598 10.2914 28.5966 10.2982L28.5958 10.3041L28.5942 10.3159L28.591 10.3397C28.5752 10.4664 28.5494 10.593 28.549 10.7233C28.5285 10.9822 28.552 11.2476 28.5997 11.5114C28.6136 11.5771 28.6277 11.6432 28.6418 11.7095C28.6563 11.7757 28.6816 11.8393 28.7006 11.9049L28.7309 12.0032L28.7702 12.0985C28.7972 12.1618 28.8196 12.2278 28.8499 12.2903C28.9705 12.541 29.1247 12.7793 29.3082 12.9988C29.4961 13.2145 29.7188 13.4012 29.9624 13.5606L30.1524 13.6687L30.2001 13.6955L30.2472 13.7157L30.3414 13.7568L30.4356 13.7992C30.4438 13.8027 30.4506 13.8066 30.4599 13.8098L30.4894 13.819L30.5484 13.8374L30.7843 13.9112C30.7512 13.9025 30.779 13.9096 30.7734 13.908L30.7801 13.9094L30.7937 13.912L30.8207 13.9174L30.8748 13.9282L30.9831 13.9503C31.0194 13.9566 31.0551 13.968 31.0919 13.9702L31.2017 13.9808L31.3118 13.9918L31.3668 13.9975L31.422 13.9973L31.643 13.9967C31.9368 13.9775 32.2289 13.9242 32.5067 13.8262C32.7819 13.7224 33.0439 13.5865 33.2816 13.4169C33.3411 13.3749 33.3952 13.3259 33.4524 13.2811C33.4805 13.2581 33.5093 13.2358 33.5368 13.2123L33.6139 13.1359C33.6643 13.084 33.7194 13.0367 33.7661 12.9818C33.8123 12.9264 33.8583 12.8713 33.9041 12.8163L33.9387 12.7752L33.9688 12.7309L34.0289 12.6424C34.068 12.5829 34.1125 12.5268 34.1433 12.4628C34.1772 12.4006 34.2111 12.3386 34.2446 12.277C34.2777 12.2152 34.2986 12.1528 34.3267 12.0913C34.3841 11.9767 34.4228 11.8226 34.4669 11.6846L34.4749 11.6582L34.4789 11.6451L34.481 11.6385C34.4824 11.6338 34.4766 11.6555 34.4796 11.6434L34.4902 11.5933C34.4972 11.5599 34.5043 11.5265 34.5113 11.4933C34.5184 11.46 34.5255 11.4269 34.5325 11.3938C34.5394 11.3607 34.5481 11.3278 34.5501 11.2943C34.5575 11.2274 34.5647 11.161 34.5719 11.0951C34.5749 11.062 34.5807 11.029 34.5815 10.9961C34.5819 10.9631 34.5825 10.9302 34.583 10.8975C34.5845 10.8317 34.5862 10.7664 34.5877 10.7015C34.5844 10.6369 34.5783 10.5728 34.574 10.5089C34.5698 10.3803 34.5419 10.2573 34.5232 10.1341C34.5157 10.0718 34.4972 10.0131 34.4818 9.954C34.466 9.89471 34.4504 9.83597 34.435 9.7779C34.2916 9.31755 34.0538 8.92871 33.7936 8.62972C33.5342 8.32702 33.2428 8.12706 32.9948 7.98858C32.9316 7.95535 32.8718 7.92388 32.8156 7.89424C32.7583 7.86727 32.7021 7.84852 32.6512 7.82746C32.6 7.80731 32.5525 7.78875 32.5091 7.77171C32.4654 7.75539 32.4223 7.74723 32.3854 7.73634C32.2493 7.69988 32.1713 7.67906 32.1589 7.67577Z" fill="#2C5134"/>
		<path d="M30.2419 25.0566C30.2419 25.0566 30.2028 25.1108 30.1272 25.2158C30.0444 25.321 29.9223 25.4745 29.7375 25.6496C29.6444 25.7361 29.5382 25.8307 29.4123 25.9226C29.2884 26.0172 29.1461 26.1108 28.9863 26.2005C28.6672 26.381 28.2719 26.5372 27.8122 26.635C27.3526 26.73 26.8268 26.7626 26.2645 26.6878C25.9835 26.6512 25.6936 26.5883 25.402 26.4915C25.3657 26.4793 25.329 26.4671 25.2923 26.4548C25.2561 26.441 25.2196 26.4273 25.183 26.4134C25.1093 26.3872 25.0373 26.3545 24.9636 26.324C24.8201 26.2632 24.6742 26.2012 24.5258 26.1382C24.377 26.0755 24.2259 26.0117 24.0724 25.9469C23.9956 25.9148 23.9181 25.8824 23.8401 25.8498C23.7612 25.8206 23.6818 25.7911 23.6019 25.7615C23.4419 25.7027 23.2798 25.6431 23.1153 25.5826C23.0332 25.5524 22.9505 25.522 22.8673 25.4913C22.7839 25.4611 22.701 25.4284 22.6146 25.4026C22.2714 25.2943 21.9193 25.1832 21.5589 25.0695C21.1945 24.9717 20.8216 24.8717 20.4407 24.7695C20.0566 24.6835 19.6644 24.5957 19.2647 24.5062C18.8622 24.4341 18.4521 24.3607 18.035 24.2861C17.8253 24.2571 17.6138 24.2279 17.4006 24.1984C17.2942 24.1837 17.1872 24.1689 17.0798 24.154C17.0262 24.1466 16.9724 24.1392 16.9187 24.1317C16.8645 24.1266 16.8102 24.1213 16.7558 24.1162C16.5387 24.0944 16.3198 24.0726 16.0994 24.0505C15.9893 24.0393 15.8787 24.0281 15.7679 24.0168C15.6567 24.008 15.5449 24.0031 15.4329 23.996C15.2089 23.9828 14.9833 23.9696 14.7563 23.9563L14.5859 23.9462C14.529 23.9435 14.4718 23.944 14.4146 23.9426C14.3003 23.9406 14.1856 23.9385 14.0706 23.9364C13.8406 23.9318 13.6093 23.9272 13.3766 23.9225C13.1439 23.9276 12.9099 23.9329 12.6746 23.9381C12.204 23.9392 11.7299 23.9822 11.2511 24.0107C11.0113 24.0213 10.7722 24.0551 10.5314 24.0792C10.2909 24.1063 10.0488 24.1291 9.80675 24.1599C9.56541 24.1966 9.32311 24.2335 9.07991 24.2704C8.95835 24.2889 8.83654 24.3074 8.71455 24.3259C8.59304 24.3476 8.47189 24.373 8.35026 24.3965C8.10724 24.4442 7.86326 24.492 7.6185 24.5401L7.52677 24.5582L7.43569 24.5802L7.25337 24.6244C7.1318 24.6537 7.00999 24.6832 6.888 24.7127C6.76607 24.7421 6.6439 24.7717 6.52161 24.8012L6.32548 24.8484L6.23189 24.8706L6.18506 24.8817L6.13133 24.8926C5.98232 24.9231 5.84346 24.9453 5.7019 24.9615C5.56034 24.9778 5.41782 24.9887 5.27494 24.9927C4.70347 25.0103 4.12486 24.9324 3.56949 24.7534C3.01453 24.5748 2.48298 24.2901 2.02096 23.9016C1.55822 23.515 1.17286 23.0158 0.91645 22.4527L0.892436 22.3999L0.880489 22.3735C0.873585 22.3572 0.879048 22.3727 0.861999 22.3302L0.825678 22.2371L0.807548 22.1904C0.801364 22.1743 0.79578 22.1616 0.788576 22.1384L0.748414 22.0124C0.719477 21.9256 0.704048 21.85 0.684657 21.7704C0.663945 21.6918 0.65488 21.6112 0.640232 21.5314C0.591724 21.2107 0.592685 20.8845 0.634829 20.5678C0.718877 19.9327 0.964477 19.3392 1.30577 18.828C1.64713 18.315 2.08484 17.8805 2.57526 17.5331C3.0658 17.1842 3.61205 16.9282 4.17619 16.7516L4.38913 16.69L4.59547 16.6391L4.97897 16.5453C5.23442 16.4828 5.48962 16.4204 5.74441 16.358C5.86976 16.3247 6.00334 16.2997 6.13529 16.2731C6.26731 16.2466 6.39926 16.2202 6.5311 16.1937C6.79501 16.141 7.0585 16.0884 7.32145 16.0358C7.38731 16.0217 7.45286 16.0111 7.51836 16.0015L7.71485 15.9708C7.84579 15.9504 7.9766 15.9301 8.1073 15.9097C8.36881 15.8691 8.62978 15.8286 8.89002 15.7882C9.4128 15.7256 9.93444 15.6725 10.4528 15.6172C10.9728 15.5846 11.4899 15.5488 12.0038 15.5239C12.5181 15.5175 13.029 15.5083 13.5357 15.5049C15.5626 15.5315 17.5181 15.756 19.3364 16.1289C21.1553 16.5039 22.8323 17.0381 24.3333 17.6315C24.7069 17.7853 25.0728 17.9338 25.4273 18.0854C25.7771 18.2478 26.1189 18.4064 26.4521 18.5611C26.7874 18.7089 27.1011 18.8829 27.4105 19.0399C27.5645 19.1196 27.7164 19.1981 27.866 19.2754C27.9407 19.314 28.0149 19.3523 28.0885 19.3903L28.1161 19.4044L28.1354 19.4145L28.1488 19.4221L28.2021 19.4523C28.2376 19.4725 28.2729 19.4925 28.3081 19.5125C28.6083 19.687 28.8732 19.8805 29.1152 20.0865C29.3564 20.2928 29.5687 20.5144 29.7539 20.7417C30.1253 21.1963 30.3801 21.6792 30.5395 22.1371C30.6199 22.3662 30.6715 22.5911 30.7057 22.8044C30.7385 23.0178 30.7559 23.2203 30.7503 23.4089C30.7464 23.5972 30.7295 23.7711 30.6995 23.9277C30.6738 24.0851 30.6337 24.2248 30.5941 24.3479C30.5122 24.594 30.4162 24.7686 30.3513 24.8845C30.2799 24.9968 30.243 25.0548 30.243 25.0548L30.2419 25.0566ZM30.1188 24.9697C30.1188 24.9697 30.1518 24.9139 30.216 24.8059C30.2739 24.6947 30.3591 24.5277 30.429 24.2945C30.498 24.0622 30.554 23.7632 30.5416 23.4106C30.5303 23.0593 30.4585 22.6539 30.2823 22.2373C30.1101 21.8201 29.8387 21.3922 29.4656 21.0035C29.2792 20.8093 29.0661 20.6268 28.8309 20.4598C28.5966 20.2925 28.3338 20.1439 28.0607 20.0196C28.0237 20.0034 27.9866 19.9871 27.9492 19.9707L27.8932 19.9461L27.8791 19.94C27.8732 19.9372 27.8806 19.9412 27.8707 19.9369L27.8422 19.9259C27.7661 19.8968 27.6893 19.8675 27.6121 19.8379C27.4576 19.779 27.3008 19.7193 27.1417 19.6587C26.8227 19.5399 26.5002 19.4056 26.1571 19.2989C25.8172 19.1862 25.4685 19.0706 25.1116 18.9522C24.7516 18.8443 24.3804 18.7438 24.0047 18.6341C22.4934 18.2203 20.8415 17.8552 19.0815 17.5796C17.3224 17.3002 15.4516 17.1206 13.5121 17.0906C11.5738 17.0536 9.56415 17.1584 7.54382 17.4439C7.29431 17.484 7.04433 17.5242 6.79387 17.5645C6.66852 17.5846 6.54304 17.6047 6.41751 17.6248C6.29186 17.6449 6.16693 17.663 6.03744 17.6922C5.78061 17.7453 5.52342 17.7986 5.26587 17.8519L4.87937 17.932L4.70065 17.9691L4.53214 18.0115C4.08578 18.133 3.65563 18.3182 3.2743 18.576C2.89218 18.831 2.55389 19.1511 2.29328 19.5206C2.03333 19.8897 1.85274 20.3083 1.78575 20.735C1.75189 20.9481 1.74624 21.1629 1.77296 21.3719C1.7822 21.4236 1.78491 21.4768 1.79805 21.5276C1.80934 21.578 1.81889 21.634 1.83227 21.6739L1.84974 21.7396C1.85124 21.7486 1.85845 21.7668 1.86385 21.7819L1.88096 21.8289L1.91506 21.923C1.90431 21.8959 1.91686 21.9265 1.91662 21.9255L1.92491 21.9447L1.94142 21.9832C2.11708 22.3946 2.38531 22.7638 2.7245 23.0617C3.06256 23.3603 3.46557 23.5923 3.89919 23.7434C4.33276 23.895 4.79485 23.9696 5.25465 23.9667C5.36961 23.9664 5.48446 23.9604 5.59876 23.95C5.71319 23.9399 5.82864 23.9238 5.9319 23.9066C5.94564 23.9043 5.95753 23.903 5.97278 23.9L6.01991 23.8903L6.1141 23.8709L6.29288 23.8336C6.42033 23.8068 6.54761 23.7799 6.67464 23.7532C6.80167 23.7264 6.92852 23.6998 7.05514 23.6731L7.24491 23.6332L7.33964 23.6133L7.43509 23.5974C7.68946 23.5552 7.94298 23.5131 8.19561 23.4712C8.32192 23.4508 8.44769 23.4285 8.57377 23.4097C8.70032 23.3942 8.82663 23.3788 8.9527 23.3634C9.20472 23.3328 9.45573 23.3022 9.70577 23.2718C9.95635 23.2474 10.2066 23.2311 10.4553 23.2106C10.7042 23.1931 10.9512 23.166 11.1986 23.1621C11.6927 23.1471 12.1813 23.1179 12.6655 23.1308C12.9073 23.1326 13.1479 23.1345 13.3871 23.1363C13.626 23.1482 13.8636 23.16 14.0996 23.1716C14.2176 23.178 14.3352 23.1842 14.4524 23.1905C14.511 23.1941 14.5695 23.196 14.6278 23.201L14.8023 23.2181C15.0344 23.2409 15.265 23.2634 15.4941 23.2859C15.6085 23.2976 15.7228 23.3073 15.8362 23.3207C15.9493 23.3367 16.0621 23.3525 16.1744 23.3684C16.3989 23.4005 16.6217 23.4325 16.8429 23.4641C16.8982 23.4723 16.9533 23.4806 17.0083 23.4888C17.063 23.4992 17.1175 23.5097 17.172 23.5202C17.2808 23.5411 17.3893 23.5619 17.4973 23.5826C17.7131 23.6241 17.9272 23.6652 18.1395 23.706C18.5614 23.801 18.9743 23.9018 19.3792 24.0001C19.7796 24.1154 20.1725 24.2284 20.5574 24.3392C20.937 24.4658 21.3087 24.5897 21.6719 24.7109C22.0295 24.8472 22.3788 24.9803 22.7193 25.1101C22.805 25.1406 22.8879 25.1782 22.9709 25.2132C23.0538 25.2485 23.1361 25.2836 23.2179 25.3185C23.3813 25.3883 23.5424 25.457 23.7013 25.5249C23.7805 25.559 23.8592 25.5928 23.9373 25.6264C24.0136 25.6629 24.0893 25.6992 24.1645 25.7352C24.3151 25.8066 24.4634 25.877 24.6093 25.9463C24.7558 26.0154 24.8999 26.0833 25.0416 26.1501C25.1798 26.2159 25.3178 26.2768 25.4576 26.3252C25.7358 26.4262 26.0139 26.4971 26.2853 26.5382C26.8282 26.6213 27.3403 26.5995 27.7868 26.5082C28.2342 26.4182 28.6168 26.2635 28.9241 26.0875C29.2337 25.9139 29.4676 25.7186 29.6426 25.5485C29.8177 25.3771 29.9325 25.2275 30.0078 25.1288C30.0815 25.0229 30.1195 24.9682 30.1195 24.9682L30.1188 24.9697Z" fill="#2C5134"/>
		<path d="M24.6073 12.2652C24.3529 12.1445 24.0923 12.0379 23.8452 11.9398C23.7219 11.89 23.6005 11.8476 23.4858 11.8025C23.3698 11.7638 23.2609 11.7175 23.158 11.6844C22.9498 11.6138 22.7764 11.5551 22.6549 11.5139C22.5295 11.4731 22.4579 11.4497 22.4579 11.4497C22.4579 11.4497 22.5313 11.426 22.663 11.4061C22.7287 11.3971 22.8095 11.3846 22.9016 11.3809C22.9938 11.3755 23.0988 11.3701 23.2122 11.3766C23.3265 11.3776 23.4489 11.3893 23.579 11.4035C23.7076 11.4232 23.845 11.4428 23.9833 11.4772C24.1219 11.5107 24.2656 11.5467 24.4067 11.5989C24.5503 11.6439 24.6905 11.7049 24.83 11.7675C24.8341 11.7692 24.838 11.7715 24.8422 11.7734C24.8509 11.3239 24.7777 10.9483 24.6576 10.6385C24.5356 10.5086 24.4129 10.3815 24.2929 10.2616C24.199 10.1665 24.1039 10.0788 24.0162 9.99146C23.9244 9.90953 23.8426 9.82347 23.7609 9.75176C23.5969 9.60367 23.4605 9.48022 23.3648 9.39385C23.2656 9.3062 23.2088 9.25604 23.2088 9.25604C23.2088 9.25604 23.2854 9.26359 23.4144 9.29804C23.4782 9.31606 23.5572 9.33693 23.6433 9.37041C23.7303 9.40225 23.8287 9.43944 23.9302 9.49081C24.0349 9.53744 24.143 9.59715 24.2569 9.66234C24.3677 9.73192 24.486 9.80484 24.5997 9.89176C24.6598 9.93711 24.7208 9.98416 24.7812 10.0333C26.2527 9.28897 27.3175 9.86206 27.7095 10.145C27.8084 9.51175 28.0686 8.90525 28.4785 8.3934C27.5337 7.21161 25.9182 5.24443 24.5709 3.87225C22.5268 1.79051 17.8589 -1.36491 12.0756 3.43593C7.02062 7.63216 4.14276 15.2295 3.49805 17.0766C3.8394 16.8999 4.21366 16.7568 4.61745 16.6567C12.4644 14.7054 20.7426 15.5346 28.0613 19.0046C28.5839 19.252 29.0354 19.5689 29.4101 19.9305C29.5947 17.1035 26.3879 14.6517 24.9636 12.4348C24.845 12.3797 24.7303 12.3143 24.6073 12.2652Z" fill="#CC3332"/>
		<path d="M12.0716 7.9799C12.3039 7.9404 12.5938 7.94815 12.828 7.97164C13.7344 8.06238 14.4861 8.54945 15.0535 9.25785C14.7621 9.47289 14.4502 9.66646 14.1496 9.86837L14.1376 9.85189C13.8784 9.49931 13.4953 9.13385 13.0471 9.07422C12.8019 9.04159 12.5462 9.0813 12.3479 9.23906C12.2381 9.32629 12.1425 9.44341 12.1288 9.58993C12.0911 9.99313 13.0314 10.4404 13.3149 10.6416C13.5156 10.7839 13.7092 10.9473 13.871 11.1347C14.1586 11.4677 14.3401 11.8931 14.3051 12.342C14.2688 12.8075 14.013 13.2404 13.6691 13.5394C13.0114 14.1112 12.0793 14.2441 11.2443 14.1726C11.0247 14.1717 10.8059 14.1479 10.5912 14.1016C9.70455 13.9168 8.78584 13.3399 8.2793 12.561C8.67927 12.2704 9.16968 11.9783 9.61575 11.7677C9.79306 11.9939 9.96556 12.223 10.1861 12.4079C10.4997 12.6709 10.9126 12.8562 11.3235 12.8142C11.5631 12.7897 11.8712 12.6896 12.0233 12.4865C12.1128 12.3671 12.1383 12.2204 12.1182 12.0736C12.0413 11.5122 11.1477 11.1676 10.7442 10.8701C10.4359 10.6427 10.1479 10.3402 10.0893 9.94033C10.0329 9.55483 10.2036 9.14802 10.4287 8.84727C10.8262 8.31617 11.4395 8.06196 12.0716 7.9799Z" fill="#FAFAFA"/>
		<path d="M21.583 9.25358C21.644 9.24985 21.6961 9.26368 21.7536 9.27838L21.7657 9.33752C20.9723 11.0676 20.1628 12.7883 19.3375 14.4994C18.4958 13.5969 17.713 12.5908 16.9132 11.6332C16.5298 12.3683 16.2286 13.2041 15.9047 13.9764C15.4488 13.984 14.5311 14.07 14.1314 13.9623L14.1328 13.8821L16.426 8.58255C17.2265 9.76677 18.1297 10.8939 19.0268 11.9682C19.5037 11.0581 19.8629 10.0755 20.3123 9.14844C20.7366 9.18148 21.1571 9.22839 21.583 9.25358Z" fill="#FAFAFA"/>
		<path d="M29.6903 11.6009C29.7659 11.5409 29.8005 11.5131 29.7938 11.5176C30.0119 11.3376 30.1833 11.1899 30.3079 11.0743C30.4348 10.9588 30.5417 10.8377 30.6285 10.7111C30.7153 10.5844 30.7587 10.4611 30.7587 10.3411C30.7587 10.25 30.7375 10.1789 30.6952 10.1278C30.6529 10.0767 30.5895 10.0512 30.5049 10.0512C30.4203 10.0512 30.3536 10.0834 30.3046 10.1478C30.2579 10.2101 30.2345 10.2989 30.2345 10.4145H29.6836C29.688 10.2256 29.7281 10.0679 29.8038 9.94122C29.8817 9.81458 29.983 9.72126 30.1076 9.66127C30.2345 9.60128 30.3747 9.57129 30.5283 9.57129C30.7932 9.57129 30.9924 9.63905 31.1259 9.77458C31.2617 9.91011 31.3296 10.0867 31.3296 10.3045C31.3296 10.5422 31.2484 10.7633 31.0859 10.9677C30.9234 11.1699 30.7164 11.3676 30.4649 11.5609H31.3663V12.0242H29.6903V11.6009Z" fill="#CC3332"/>
		<path d="M31.6177 10.8077C31.6177 10.4256 31.6912 10.1245 31.8381 9.90456C31.9872 9.6846 32.2265 9.57462 32.5559 9.57462C32.8853 9.57462 33.1235 9.6846 33.2704 9.90456C33.4195 10.1245 33.4941 10.4256 33.4941 10.8077C33.4941 11.1943 33.4195 11.4976 33.2704 11.7175C33.1235 11.9375 32.8853 12.0475 32.5559 12.0475C32.2265 12.0475 31.9872 11.9375 31.8381 11.7175C31.6912 11.4976 31.6177 11.1943 31.6177 10.8077ZM32.9332 10.8077C32.9332 10.5833 32.9087 10.4111 32.8597 10.2912C32.8107 10.169 32.7095 10.1079 32.5559 10.1079C32.4023 10.1079 32.301 10.169 32.2521 10.2912C32.2031 10.4111 32.1786 10.5833 32.1786 10.8077C32.1786 10.9588 32.1875 11.0843 32.2053 11.1843C32.2231 11.2821 32.2587 11.3621 32.3122 11.4243C32.3678 11.4843 32.449 11.5142 32.5559 11.5142C32.6627 11.5142 32.7429 11.4843 32.7963 11.4243C32.8519 11.3621 32.8887 11.2821 32.9065 11.1843C32.9243 11.0843 32.9332 10.9588 32.9332 10.8077Z" fill="#CC3332"/>
		<path d="M45.2913 22.3721C44.1126 22.3721 43.0564 22.175 42.1227 21.781C41.1889 21.3869 40.4389 20.8037 39.8725 20.0313C39.3215 19.2589 39.0306 18.329 39 17.2413H43.1789C43.2401 17.8561 43.4467 18.329 43.7988 18.66C44.1509 18.9752 44.6101 19.1328 45.1765 19.1328C45.7581 19.1328 46.2174 18.9989 46.5541 18.7309C46.8909 18.4472 47.0592 18.061 47.0592 17.5723C47.0592 17.1625 46.9215 16.8236 46.646 16.5557C46.3857 16.2877 46.0566 16.067 45.6586 15.8936C45.276 15.7202 44.7249 15.5232 44.0055 15.3025C42.9646 14.9715 42.115 14.6405 41.4568 14.3095C40.7986 13.9785 40.2322 13.4898 39.7577 12.8436C39.2832 12.1973 39.0459 11.354 39.0459 10.3137C39.0459 8.76892 39.5893 7.56308 40.6761 6.69613C41.763 5.81342 43.1789 5.37207 44.9239 5.37207C46.6995 5.37207 48.1308 5.81342 49.2176 6.69613C50.3044 7.56308 50.8861 8.7768 50.9626 10.3373H46.7148C46.6842 9.80137 46.4929 9.38366 46.1408 9.08417C45.7888 8.76892 45.3372 8.61129 44.7861 8.61129C44.3116 8.61129 43.9289 8.74527 43.6381 9.01324C43.3472 9.26544 43.2018 9.63586 43.2018 10.1245C43.2018 10.6604 43.4467 11.0781 43.9366 11.3776C44.4264 11.6771 45.1918 12.0003 46.2327 12.347C47.2736 12.7096 48.1154 13.0564 48.7584 13.3874C49.4166 13.7184 49.9829 14.1991 50.4575 14.8296C50.932 15.4602 51.1692 16.2719 51.1692 17.265C51.1692 18.2107 50.932 19.0698 50.4575 19.8422C49.9982 20.6145 49.3247 21.2293 48.4369 21.6864C47.5491 22.1435 46.5005 22.3721 45.2913 22.3721Z" fill="#192D1E"/>
		<path d="M57.5118 8.84773V12.2052H62.7698V15.3262H57.5118V18.9673H63.4587V22.2066H53.5855V5.60851H63.4587V8.84773H57.5118Z" fill="#192D1E"/>
		<path d="M65.3418 13.8839C65.3418 12.2446 65.6862 10.7865 66.375 9.50976C67.0639 8.21723 68.0206 7.2163 69.2451 6.50698C70.485 5.7819 71.8856 5.41936 73.447 5.41936C75.3604 5.41936 76.9983 5.93952 78.3606 6.97986C79.7229 8.02019 80.6337 9.43883 81.0929 11.2358H76.7763C76.4548 10.5422 75.9956 10.0142 75.3986 9.65162C74.817 9.28908 74.1511 9.10781 73.4011 9.10781C72.1918 9.10781 71.2121 9.54129 70.4621 10.4082C69.712 11.2752 69.337 12.4337 69.337 13.8839C69.337 15.3341 69.712 16.4926 70.4621 17.3596C71.2121 18.2265 72.1918 18.66 73.4011 18.66C74.1511 18.66 74.817 18.4787 75.3986 18.1162C75.9956 17.7536 76.4548 17.2256 76.7763 16.532H81.0929C80.6337 18.329 79.7229 19.7476 78.3606 20.7879C76.9983 21.8125 75.3604 22.3248 73.447 22.3248C71.8856 22.3248 70.485 21.9701 69.2451 21.2608C68.0206 20.5357 67.0639 19.5348 66.375 18.258C65.6862 16.9812 65.3418 15.5232 65.3418 13.8839Z" fill="#192D1E"/>
		<path d="M91.7173 22.2066L88.3651 15.9409H87.4237V22.2066H83.4974V5.60851H90.0871C91.3576 5.60851 92.4368 5.83707 93.3246 6.29418C94.2277 6.7513 94.9012 7.3818 95.3451 8.1857C95.7891 8.97383 96.011 9.85654 96.011 10.8338C96.011 11.9372 95.7049 12.9224 95.0926 13.7893C94.4956 14.6563 93.6078 15.271 92.4291 15.6335L96.1488 22.2066H91.7173ZM87.4237 13.08H89.8575C90.577 13.08 91.1127 12.8987 91.4648 12.5362C91.8321 12.1736 92.0158 11.6614 92.0158 10.9993C92.0158 10.3688 91.8321 9.8723 91.4648 9.50976C91.1127 9.14722 90.577 8.96595 89.8575 8.96595H87.4237V13.08Z" fill="#192D1E"/>
		<path d="M102.402 8.84773V12.2052H107.66V15.3262H102.402V18.9673H108.349V22.2066H98.4757V5.60851H108.349V8.84773H102.402Z" fill="#192D1E"/>
		<path d="M122.493 5.60851V8.84773H118.222V22.2066H114.296V8.84773H110.025V5.60851H122.493Z" fill="#192D1E"/>
		<path d="M143.749 22.2066H139.822L133.256 11.9687V22.2066H129.329V5.60851H133.256L139.822 15.8936V5.60851H143.749V22.2066Z" fill="#192D1E"/>
		<path d="M150.521 5.60851V22.2066H146.595V5.60851H150.521Z" fill="#192D1E"/>
		<path d="M152.701 13.8839C152.701 12.2446 153.045 10.7865 153.734 9.50976C154.423 8.21723 155.379 7.2163 156.604 6.50698C157.844 5.7819 159.244 5.41936 160.806 5.41936C162.719 5.41936 164.357 5.93952 165.719 6.97986C167.082 8.02019 167.992 9.43883 168.452 11.2358H164.135C163.814 10.5422 163.354 10.0142 162.757 9.65162C162.176 9.28908 161.51 9.10781 160.76 9.10781C159.551 9.10781 158.571 9.54129 157.821 10.4082C157.071 11.2752 156.696 12.4337 156.696 13.8839C156.696 15.3341 157.071 16.4926 157.821 17.3596C158.571 18.2265 159.551 18.66 160.76 18.66C161.51 18.66 162.176 18.4787 162.757 18.1162C163.354 17.7536 163.814 17.2256 164.135 16.532H168.452C167.992 18.329 167.082 19.7476 165.719 20.7879C164.357 21.8125 162.719 22.3248 160.806 22.3248C159.244 22.3248 157.844 21.9701 156.604 21.2608C155.379 20.5357 154.423 19.5348 153.734 18.258C153.045 16.9812 152.701 15.5232 152.701 13.8839Z" fill="#192D1E"/>
		<path d="M180.201 22.2066L174.782 14.8769V22.2066H170.856V5.60851H174.782V12.8908L180.155 5.60851H184.77L178.525 13.742L185 22.2066H180.201Z" fill="#192D1E"/>
  	</symbol>

	<symbol id="car" viewBox="0 0 193 156">
		<path d="M21.125 134.375H2.375V115.825C2.37374 113.076 3.27904 110.402 4.95071 108.219C6.62237 106.036 8.96713 104.466 11.6219 103.75L37.1469 96.875H171.125C174.44 96.875 177.62 98.192 179.964 100.536C182.308 102.88 183.625 106.06 183.625 109.375V134.375H164.875" fill="#DD4A43"/>
		<path d="M2.86563 118.75C2.55525 119.504 2.38884 120.31 2.375 121.125V134.375H183.625V118.75H2.86563Z" fill="#D13E37"/>
		<path d="M161.755 96.875H37.1523L64.6523 63.8719C65.8256 62.4642 67.2939 61.3318 68.9534 60.5547C70.6129 59.7776 72.423 59.3748 74.2555 59.375H130.065C132.123 59.375 134.148 59.883 135.963 60.8539C137.777 61.8248 139.323 63.2286 140.465 64.9406L161.755 96.875Z" fill="#87CED9"/>
		<path d="M105.5 59.375H99.25V96.875H105.5V59.375Z" fill="#5EB3D1"/>
		<path d="M36.75 150C45.3794 150 52.375 143.004 52.375 134.375C52.375 125.746 45.3794 118.75 36.75 118.75C28.1206 118.75 21.125 125.746 21.125 134.375C21.125 143.004 28.1206 150 36.75 150Z" fill="#575755"/>
		<path d="M149.25 150C157.879 150 164.875 143.004 164.875 134.375C164.875 125.746 157.879 118.75 149.25 118.75C140.621 118.75 133.625 125.746 133.625 134.375C133.625 143.004 140.621 150 149.25 150Z" fill="#575755"/>
		<path d="M36.75 140.625C40.2018 140.625 43 137.827 43 134.375C43 130.923 40.2018 128.125 36.75 128.125C33.2982 128.125 30.5 130.923 30.5 134.375C30.5 137.827 33.2982 140.625 36.75 140.625Z" fill="#EBEBE8"/>
		<path d="M149.25 140.625C152.702 140.625 155.5 137.827 155.5 134.375C155.5 130.923 152.702 128.125 149.25 128.125C145.798 128.125 143 130.923 143 134.375C143 137.827 145.798 140.625 149.25 140.625Z" fill="#EBEBE8"/>
		<path d="M155.5 0L118 15.625V3.125L80.5 18.75V6.25L43 22.0406V12.5L2.375 31.25L43 50V40.4594L80.5 56.25V43.75L118 59.375V46.875L155.5 62.5V0Z" fill="#7EA82D"/>
		<path d="M183.625 25H155.5V37.5H183.625V25Z" fill="#A65B2D"/>
		<path d="M77.3697 62.5002C77.1757 62.501 76.9821 62.4832 76.7916 62.4471C76.3879 62.372 76.0029 62.218 75.6588 61.9941C75.3146 61.7701 75.0179 61.4805 74.7858 61.1418C74.5536 60.8031 74.3904 60.422 74.3056 60.0202C74.2208 59.6184 74.2161 59.2039 74.2916 58.8002L83.6666 8.80024C83.8191 7.98553 84.289 7.26476 84.9729 6.79651C85.6568 6.32825 86.4987 6.15087 87.3134 6.30336C88.1281 6.45586 88.8489 6.92576 89.3172 7.60968C89.7854 8.2936 89.9628 9.13553 89.8103 9.95024L80.4353 59.9502C80.3014 60.6658 79.9218 61.3122 79.3621 61.7777C78.8024 62.2433 78.0977 62.4988 77.3697 62.5002Z" fill="#7A4321"/>
		<path d="M133.622 62.5002C132.894 62.4996 132.188 62.2444 131.628 61.7787C131.067 61.3131 130.687 60.6663 130.553 59.9502L121.178 9.95024C121.026 9.13553 121.203 8.2936 121.672 7.60968C122.14 6.92576 122.861 6.45586 123.675 6.30336C124.49 6.15087 125.332 6.32825 126.016 6.79651C126.7 7.26476 127.17 7.98553 127.322 8.80024L136.697 58.8002C136.773 59.2039 136.768 59.6184 136.683 60.0202C136.598 60.422 136.435 60.8031 136.203 61.1418C135.971 61.4805 135.674 61.7701 135.33 61.9941C134.986 62.218 134.601 62.372 134.197 62.4471C134.008 62.483 133.815 62.5008 133.622 62.5002Z" fill="#7A4321"/>
		<path d="M93 106.25H80.5V112.5H93V106.25Z" fill="#EBEBE8"/>
		<path d="M143 106.25H130.5V112.5H143V106.25Z" fill="#EBEBE8"/>
		<path d="M74.9703 66.7504L71.8452 70.5001L76.6464 74.5016L79.7715 70.7519L74.9703 66.7504Z" fill="#A7E1EB"/>
		<path d="M68.7211 74.249L59.3457 85.498L64.1468 89.4995L73.5222 78.2504L68.7211 74.249Z" fill="#A7E1EB"/>
		<path d="M105.5 96.875H99.25V134.375H105.5V96.875Z" fill="#D13E37"/>
		<g opacity="0.6" filter="url(#filter0_f_1936_16802)">
		<ellipse cx="96.8709" cy="150.198" rx="92.2581" ry="1.29032" fill="#2C5134"/>
		</g>
		<defs>
		<filter id="filter0_f_1936_16802" x="0.612793" y="144.908" width="192.516" height="10.5807" filterUnits="userSpaceOnUse" color-interpolation-filters="sRGB">
		<feFlood flood-opacity="0" result="BackgroundImageFix"/>
		<feBlend mode="normal" in="SourceGraphic" in2="BackgroundImageFix" result="shape"/>
		<feGaussianBlur stdDeviation="2" result="effect1_foregroundBlur_1936_16802"/>
		</filter>
		</defs>
	</symbol>

	<symbol id="big-presents" viewBox="0 0 144 144">
		<path d="M142.334 127.017C142.344 126.011 142.118 125.016 141.675 124.113C141.232 123.209 140.583 122.422 139.782 121.813L132.653 116.41L133.152 64.9005C133.253 54.5221 129.227 44.5306 121.959 37.124C114.691 29.7174 104.777 25.5024 94.398 25.4063L104.384 4.60787L99.516 2.13884C98.0029 1.3705 96.3325 0.962522 94.6353 0.946802C92.9381 0.931083 91.2601 1.30805 89.7324 2.04823C88.2047 2.78841 86.5267 3.16538 84.8295 3.14966C83.1323 3.13394 81.4619 2.72596 79.9489 1.95761C78.4358 1.18927 76.7654 0.781292 75.0682 0.765573C73.371 0.749854 71.693 1.12682 70.1653 1.867L65.25 4.24542L74.8308 25.225C64.4518 25.1289 54.4578 29.1595 47.0475 36.4302C39.6372 43.7008 35.4176 53.616 35.3169 63.9943L34.8185 115.355L27.5451 120.764C26.7429 121.361 26.0896 122.136 25.6362 123.028C25.1829 123.919 24.9418 124.903 24.9317 125.903C24.9231 126.754 25.0824 127.599 25.4004 128.388C25.7183 129.178 26.1888 129.897 26.7849 130.504C27.381 131.112 28.091 131.596 28.8744 131.929C29.6578 132.262 30.4991 132.437 31.3504 132.444L135.817 133.412C137.529 133.427 139.177 132.762 140.399 131.563C141.621 130.364 142.317 128.729 142.334 127.017Z" fill="#DD4A43"/>
		<path d="M139.765 121.815L132.636 116.412L133.136 64.9024C133.189 59.5769 132.151 54.2975 130.085 49.3897C128.019 44.4819 124.969 40.0497 121.124 36.3667C109.909 91.5389 69.2298 119.589 43.6671 132.56L135.8 133.414C137.158 133.427 138.484 133.011 139.593 132.227C140.701 131.443 141.533 130.329 141.972 129.045C142.412 127.76 142.435 126.37 142.038 125.073C141.642 123.775 140.847 122.635 139.765 121.815Z" fill="#D13E37"/>
		<path d="M94.3388 27.8547L74.7724 27.6734C74.1237 27.6674 73.5041 27.404 73.0499 26.9411C72.5956 26.4782 72.344 25.8537 72.3503 25.2051C72.3566 24.5564 72.6203 23.9367 73.0834 23.4823C73.5466 23.0279 74.1712 22.776 74.8198 22.782L94.3863 22.9632C95.0349 22.9692 95.6545 23.2327 96.1088 23.6956C96.563 24.1585 96.8146 24.7829 96.8083 25.4316C96.802 26.0802 96.5383 26.6999 96.0752 27.1544C95.6121 27.6088 94.9875 27.8607 94.3388 27.8547Z" fill="#7A4321"/>
		<path d="M81.0965 53.5409L80.911 53.253C77.9481 48.6949 76.6506 43.2528 77.2379 37.8468C77.8252 32.4409 80.2612 27.4027 84.1341 23.5842C84.479 23.242 84.9179 23.0103 85.3948 22.9184C85.8718 22.8265 86.3653 22.8788 86.8124 23.0684C87.2594 23.258 87.6399 23.5765 87.9052 23.9832C88.1705 24.3899 88.3087 24.8664 88.3021 25.3521C88.2682 29.378 89.2966 33.3412 91.2836 36.8419C93.2706 40.3426 96.146 43.257 99.6196 45.2911L103.973 47.8336L101.506 52.0594L97.1521 49.5168C93.8822 47.6003 91.039 45.0352 88.7973 41.9792C86.5555 38.9232 84.9624 35.4409 84.116 31.7461C82.5844 34.6862 81.8609 37.9799 82.0195 41.2905C82.1782 44.6011 83.2134 47.8097 85.0192 50.5883L85.2096 50.8836L81.0965 53.5409Z" fill="#7A4321"/>
		<path d="M64.2759 103.4L63.8962 142.532L5.19547 141.988L5.5752 102.856" fill="#2C5134"/>
		<path d="M69.3191 88.7708L0.834961 88.1365L0.692564 102.811L69.1767 103.445L69.3191 88.7708Z" fill="white"/>
		<path d="M69.3191 88.7708L0.834961 88.1365L0.692564 102.811L69.1767 103.445L69.3191 88.7708Z" fill="#2C5134" fill-opacity="0.8"/>
		<path d="M20.5601 68.7533L35.045 88.4551L17.9244 88.2965L8.25986 75.9773L18.0431 76.0679L20.5601 68.7533Z" fill="#D13E37"/>
		<path d="M49.9151 69.0263L35.0504 88.4562L52.171 88.6148L62.0729 76.4767L52.2897 76.3861L49.9151 69.0263Z" fill="#B5362F"/>
		<path d="M64.2759 103.4L5.5752 102.856L5.504 110.193L64.2047 110.737L64.2759 103.4Z" fill="#2C5134"/>
		<path d="M42.3838 88.524L27.709 88.3881L27.1869 142.194L41.8617 142.33L42.3838 88.524Z" fill="#DD4A43"/>
		<path d="M48.4303 57.3941L43.7022 56.1274C45.3466 49.9835 48.8015 44.4758 53.6176 40.3206L56.8227 44.0192C52.7443 47.5328 49.8196 52.194 48.4303 57.3941Z" fill="#E66B65"/>
		<path d="M59.7682 41.7981L57.1003 37.7008C58.6505 36.692 60.2861 35.8208 61.9881 35.0972L63.9013 39.5959C62.4618 40.2075 61.0788 40.9444 59.7682 41.7981Z" fill="#E66B65"/>
		<path d="M17.6435 120.089L12.752 120.044L12.6096 134.718L17.5011 134.764L17.6435 120.089Z" fill="#56745D"/>
		<path d="M17.7216 110.306L12.8301 110.261L12.7826 115.153L17.6741 115.198L17.7216 110.306Z" fill="#56745D"/>
	</symbol>

	<symbol id="star" viewBox="0 0 182 187">
		<path d="M110.877 45.1169C109.047 44.3661 107.481 43.0896 106.377 41.4488C105.273 39.8079 104.68 37.8765 104.673 35.8987C104.667 33.9209 105.247 31.9855 106.34 30.3374C107.433 28.6893 108.991 27.4024 110.816 26.6394C112.64 25.8765 114.65 25.6718 116.591 26.0512C118.533 26.4306 120.317 27.377 121.721 28.7709C123.124 30.1648 124.082 31.9434 124.474 33.882C124.867 35.8205 124.675 37.8318 123.925 39.6615C122.918 42.1152 120.978 44.0684 118.531 45.0915C116.084 46.1145 113.331 46.1237 110.877 45.1169ZM116.571 31.2397C115.656 30.8643 114.651 30.7686 113.681 30.9648C112.712 31.1609 111.823 31.6401 111.126 32.3417C110.429 33.0433 109.956 33.9358 109.766 34.9063C109.576 35.8768 109.679 36.8818 110.06 37.7942C110.442 38.7066 111.085 39.4853 111.909 40.032C112.733 40.5787 113.701 40.8687 114.69 40.8654C115.679 40.8621 116.644 40.5657 117.465 40.0135C118.285 39.4614 118.923 38.6784 119.299 37.7635C119.802 36.5367 119.798 35.1601 119.286 33.9367C118.775 32.7132 117.798 31.7431 116.571 31.2397Z" fill="#FD9A30"/>
		<path d="M112.964 49.4517L119.486 87.625C119.577 88.1553 119.774 88.6618 120.066 89.1142C120.357 89.5666 120.736 89.9557 121.181 90.258L153.64 112.316C154.244 112.726 154.724 113.292 155.028 113.955C155.333 114.618 155.45 115.352 155.368 116.077C155.286 116.801 155.007 117.49 154.561 118.068C154.116 118.645 153.521 119.09 152.841 119.354L116.824 133.43C116.22 133.667 115.683 134.046 115.258 134.536C114.833 135.026 114.534 135.612 114.386 136.243L105.877 172.61C105.709 173.325 105.348 173.979 104.834 174.503C104.319 175.026 103.671 175.397 102.959 175.577C102.247 175.756 101.5 175.736 100.799 175.519C100.098 175.302 99.47 174.896 98.9841 174.346L72.2157 144.011C71.8096 143.551 71.3029 143.19 70.735 142.957C70.1671 142.724 69.5531 142.625 68.9407 142.667L28.5804 145.458C27.8483 145.508 27.1164 145.356 26.4649 145.018C25.8134 144.68 25.2675 144.169 24.8868 143.542C24.5062 142.914 24.3055 142.194 24.3067 141.46C24.3079 140.726 24.5111 140.007 24.8938 139.381L44.3804 107.518C44.7185 106.965 44.9171 106.338 44.959 105.691C45.0008 105.044 44.8848 104.396 44.6209 103.804L28.9073 68.5634C28.6116 67.8955 28.5044 67.1593 28.5974 66.4348C28.6903 65.7103 28.9799 65.0251 29.4347 64.4535C29.8895 63.8819 30.4921 63.4458 31.1772 63.1924C31.8623 62.939 32.6037 62.878 33.3209 63.0161L74.0223 70.9264C74.5878 71.0365 75.1705 71.0232 75.7305 70.8873C76.2904 70.7514 76.8144 70.4962 77.2665 70.139L106.539 46.9936C107.083 46.5628 107.73 46.2809 108.416 46.1757C109.102 46.0705 109.803 46.1456 110.451 46.3935C111.099 46.6415 111.672 47.0538 112.113 47.59C112.553 48.1262 112.847 48.7678 112.964 49.4517Z" fill="#FDB62F"/>
		<path d="M75.8276 71.2693L74.0233 70.9182L33.3192 63.0148C32.6107 62.8718 31.8766 62.9258 31.1967 63.1709C30.5167 63.416 29.917 63.8428 29.4628 64.405L85.255 107.565L75.8276 71.2693Z" fill="#FD9A30"/>
		<path d="M119.77 89.2997L119.483 87.6226L116.875 72.3519L112.962 49.447C112.844 48.7479 112.541 48.0932 112.084 47.5511C111.628 47.0091 111.034 46.5996 110.365 46.3654L85.2534 107.564L119.77 89.2997Z" fill="#FD9A30"/>
		<path d="M114.861 134.192L116.82 133.429L126.351 129.703L152.837 119.353C153.524 119.089 154.123 118.639 154.568 118.054C155.012 117.468 155.285 116.77 155.354 116.037L85.2532 107.565L114.861 134.192Z" fill="#FD9A30"/>
		<path d="M70.907 142.528L78.0759 150.655L98.9807 174.344C99.4593 174.893 100.081 175.299 100.776 175.517C101.471 175.735 102.213 175.757 102.919 175.579L85.2534 107.564L70.907 142.528Z" fill="#FD9A30"/>
		<path d="M45.4772 105.722L24.8921 139.379C24.5454 139.94 24.3458 140.579 24.3119 141.237C24.2779 141.896 24.4108 142.552 24.6981 143.145C38.5853 134.149 85.2551 107.565 85.2551 107.565L45.4772 105.722Z" fill="#FD9A30"/>
	</symbol>

	<symbol id="flat" viewBox="0 0 164 164">
		<path d="M159.918 68.4077C157.527 64.2751 156.266 59.5862 156.262 54.812C156.261 50.0397 155.004 45.3517 152.618 41.219C150.231 37.0862 146.799 33.6545 142.666 31.2686C138.535 28.8809 135.103 25.4494 132.715 21.318C130.33 17.1872 126.901 13.7564 122.771 11.37C118.641 8.98365 113.956 7.72567 109.186 7.72235C104.414 7.72738 99.7252 6.47607 95.5904 4.09423C91.4578 1.70764 86.7697 0.451172 81.9975 0.451172C77.2254 0.451172 72.5373 1.70764 68.4047 4.09423C64.2726 6.4859 59.5835 7.74696 54.8091 7.75047C50.0372 7.75105 45.3494 9.00743 41.2167 11.3934C37.0841 13.7794 33.6521 17.2109 31.2657 21.3433C28.8779 25.4747 25.4465 28.9062 21.315 31.2939C17.1857 33.6777 13.7558 37.1054 11.3695 41.2333C8.98323 45.3612 7.72443 50.044 7.71942 54.812C7.72313 59.5837 6.47191 64.2723 4.0913 68.4077C1.70471 72.5402 0.448242 77.2283 0.448242 82.0005C0.448242 86.7727 1.70471 91.4607 4.0913 95.5933C6.48174 99.7259 7.7427 104.415 7.74755 109.189C7.74812 113.961 9.00481 118.649 11.3913 122.782C13.7778 126.915 17.2101 130.346 21.3432 132.732C25.4746 135.12 28.9061 138.552 31.2938 142.683C33.6797 146.816 37.1114 150.248 41.2442 152.635C45.3769 155.021 50.0649 156.278 54.8372 156.279C59.6116 156.282 64.3008 157.543 68.4329 159.935C72.5654 162.321 77.2535 163.578 82.0257 163.578C86.7979 163.578 91.4859 162.321 95.6185 159.935C99.7506 157.543 104.44 156.282 109.214 156.279C113.986 156.278 118.674 155.021 122.807 152.635C126.94 150.248 130.372 146.816 132.758 142.683C135.145 138.552 138.577 135.12 142.708 132.732C146.841 130.346 150.273 126.915 152.66 122.782C155.047 118.649 156.303 113.961 156.304 109.189C156.309 104.415 157.57 99.7259 159.96 95.5933C162.34 91.457 163.589 86.767 163.582 81.9948C163.575 77.2226 162.311 72.5365 159.918 68.4077ZM81.9975 118.563C74.7662 118.563 67.6972 116.419 61.6845 112.401C55.6718 108.384 50.9855 102.673 48.2182 95.9923C45.4509 89.3114 44.7268 81.9599 46.1376 74.8675C47.5484 67.7751 51.0306 61.2602 56.144 56.1469C61.2573 51.0335 67.7721 47.5513 74.8646 46.1405C81.957 44.7297 89.3085 45.4538 95.9894 48.2211C102.67 50.9885 108.381 55.6748 112.398 61.6874C116.416 67.7001 118.56 74.7691 118.56 82.0005C118.56 91.6975 114.708 100.997 107.851 107.854C100.994 114.711 91.6945 118.563 81.9975 118.563Z" fill="#7EA82D"/>
		<path d="M159.915 68.4081C157.524 64.2755 156.263 59.5867 156.258 54.8125C156.258 50.0402 155.001 45.3521 152.615 41.2194C150.228 37.0867 146.796 33.655 142.663 31.2691C139.887 29.6471 137.42 27.5455 135.378 25.0619C132.51 42.0273 126.398 58.2808 117.378 72.9335C119.034 79.328 118.923 86.0521 117.056 92.3883C115.19 98.7245 111.638 104.435 106.779 108.91C101.921 113.386 95.9389 116.458 89.4711 117.8C83.0033 119.141 76.2927 118.701 70.0553 116.527C55.1301 124.441 39.1541 130.189 22.6084 133.599C26.1627 135.909 29.1265 139.019 31.2625 142.681C33.6484 146.814 37.0801 150.246 41.2128 152.632C45.3455 155.019 50.0336 156.276 54.8059 156.276C59.5802 156.28 64.2694 157.541 68.4015 159.933C72.5341 162.319 77.2221 163.576 81.9943 163.576C86.7665 163.576 91.4546 162.319 95.5872 159.933C99.7192 157.541 104.408 156.28 109.183 156.276C113.955 156.276 118.643 155.019 122.776 152.632C126.909 150.246 130.34 146.814 132.726 142.681C135.114 138.549 138.545 135.118 142.677 132.73C146.81 130.344 150.242 126.912 152.629 122.78C155.015 118.647 156.272 113.959 156.272 109.187C156.277 104.412 157.538 99.7236 159.929 95.591C162.313 91.4575 163.566 86.7693 163.564 81.9977C163.561 77.226 162.303 72.5391 159.915 68.4081Z" fill="#729C22"/>
		<path d="M62.3125 48.25L51.0625 82L62.3125 79.1875L70.75 90.4375L82 48.25H62.3125Z" fill="#B83630"/>
		<path d="M101.688 48.25L112.938 82L101.688 79.1875L93.25 90.4375L82 48.25H101.688Z" fill="#B83630"/>
		<path d="M51.5464 13.0492L47.637 24.7745C47.3719 25.5702 47.2881 26.4152 47.3917 27.2476C47.4954 28.0799 47.7838 28.8785 48.236 29.585C48.6882 30.2914 49.2926 30.8878 50.0051 31.3304C50.7175 31.7731 51.52 32.0508 52.3536 32.1432L70.7502 34.1879L79.1877 22.9379L60.0036 10.1467C59.2839 9.66679 58.4631 9.35937 57.6052 9.24832C56.7473 9.13728 55.8754 9.22559 55.0572 9.5064C54.239 9.7872 53.4966 10.2529 52.8877 10.8674C52.2788 11.4818 51.8198 12.2285 51.5464 13.0492Z" fill="#D13E37"/>
		<path d="M70.7461 34.1875L51.7533 38.4062C50.9676 38.5809 50.2285 38.9221 49.586 39.4068C48.9434 39.8916 48.4124 40.5086 48.0287 41.2162C47.6451 41.9237 47.4177 42.7054 47.3621 43.5084C47.3064 44.3113 47.4238 45.1169 47.7061 45.8706L51.3821 55.6722C51.6796 56.4666 52.1529 57.1835 52.7666 57.7691C53.3803 58.3548 54.1186 58.794 54.9261 59.054C55.7336 59.3139 56.5894 59.3879 57.4295 59.2703C58.2696 59.1527 59.0723 58.8467 59.7774 58.375L79.1836 45.4375L70.7461 34.1875Z" fill="#D13E37"/>
		<path d="M112.454 13.0492L116.363 24.7745C116.628 25.5702 116.712 26.4152 116.608 27.2476C116.505 28.0799 116.216 28.8785 115.764 29.585C115.312 30.2914 114.708 30.8878 113.995 31.3304C113.283 31.7731 112.48 32.0508 111.647 32.1432L93.25 34.1879L84.8125 22.9379L103.997 10.1467C104.716 9.66679 105.537 9.35937 106.395 9.24832C107.253 9.13728 108.125 9.22559 108.943 9.5064C109.761 9.7872 110.504 10.2529 111.112 10.8674C111.721 11.4818 112.18 12.2285 112.454 13.0492Z" fill="#D13E37"/>
		<path d="M93.25 34.1875L112.243 38.4063C113.029 38.5809 113.768 38.9221 114.41 39.4068C115.053 39.8916 115.584 40.5086 115.967 41.2162C116.351 41.9237 116.578 42.7054 116.634 43.5084C116.69 44.3113 116.572 45.1169 116.29 45.8706L112.614 55.675C112.316 56.4692 111.843 57.1858 111.229 57.7711C110.615 58.3564 109.877 58.7954 109.069 59.0551C108.262 59.3148 107.406 59.3885 106.566 59.2707C105.726 59.1529 104.924 58.8467 104.219 58.375L84.8125 45.4375L93.25 34.1875Z" fill="#D13E37"/>
		<path d="M70.7457 28.4791L61.5404 26.3473C60.8175 26.1659 60.1961 25.7051 59.8127 25.066C59.4294 24.4268 59.3154 23.6616 59.4957 22.9385C59.6771 22.2156 60.1379 21.5942 60.777 21.2108C61.4162 20.8274 62.1813 20.7134 62.9045 20.8938L72.1098 23.0229C72.8333 23.2042 73.4552 23.6654 73.8387 24.3052C74.2221 24.945 74.3357 25.7109 74.1545 26.4344C73.9732 27.1574 73.5123 27.7788 72.8732 28.1621C72.2341 28.5455 71.4689 28.6595 70.7457 28.4791Z" fill="#B3352F"/>
		<path d="M59.4957 45.438C59.3154 44.7149 59.4294 43.9497 59.8127 43.3106C60.1961 42.6714 60.8175 42.2106 61.5404 42.0293L70.7457 39.8974C71.4689 39.717 72.2341 39.831 72.8732 40.2144C73.5123 40.5978 73.9732 41.2192 74.1545 41.9421C74.3357 42.6656 74.2221 43.4315 73.8387 44.0713C73.4552 44.7111 72.8333 45.1724 72.1098 45.3537L62.9045 47.4827C62.1813 47.6631 61.4162 47.5491 60.777 47.1657C60.1379 46.7823 59.6771 46.161 59.4957 45.438Z" fill="#B3352F"/>
		<path d="M101.093 20.8927L92.5721 23.025C91.0653 23.4021 90.1493 24.9287 90.5262 26.4348C90.9031 27.9409 92.4302 28.8561 93.937 28.479L102.458 26.3467C103.965 25.9696 104.88 24.443 104.504 22.9369C104.127 21.4308 102.6 20.5156 101.093 20.8927Z" fill="#B3352F"/>
		<path d="M101.09 47.4827L91.8848 45.3537C91.1613 45.1724 90.5394 44.7111 90.156 44.0713C89.7725 43.4315 89.6589 42.6656 89.8402 41.9421C90.0215 41.2192 90.4823 40.5978 91.1214 40.2144C91.7606 39.831 92.5258 39.717 93.2489 39.8974L102.454 42.0293C103.177 42.2106 103.799 42.6714 104.182 43.3106C104.565 43.9497 104.679 44.7149 104.499 45.438C104.318 46.161 103.857 46.7823 103.218 47.1657C102.578 47.5491 101.813 47.6631 101.09 47.4827Z" fill="#B3352F"/>
		<path d="M143.875 93.25H138.25C138.25 97.7255 140.028 102.018 143.193 105.182C146.357 108.347 150.649 110.125 155.125 110.125H160.75C160.75 105.649 158.972 101.357 155.807 98.1926C152.643 95.0279 148.351 93.25 143.875 93.25Z" fill="#97C936"/>
		<path d="M70.75 129.812V135.438C75.2255 135.438 79.5178 133.66 82.6824 130.495C85.8471 127.33 87.625 123.038 87.625 118.562V112.938C83.1495 112.938 78.8572 114.715 75.6926 117.88C72.5279 121.045 70.75 125.337 70.75 129.812Z" fill="#97C936"/>
		<path d="M11.6875 34.1875H6.0625C6.0625 38.663 7.8404 42.9553 11.0051 46.1199C14.1698 49.2846 18.462 51.0625 22.9375 51.0625H28.5625C28.5625 46.587 26.7846 42.2947 23.6199 39.1301C20.4552 35.9654 16.163 34.1875 11.6875 34.1875Z" fill="#97C936"/>
		<path d="M20.125 93.25C24.7849 93.25 28.5625 89.4724 28.5625 84.8125C28.5625 80.1526 24.7849 76.375 20.125 76.375C15.4651 76.375 11.6875 80.1526 11.6875 84.8125C11.6875 89.4724 15.4651 93.25 20.125 93.25Z" fill="#DD4A43"/>
		<path d="M138.25 65.125C142.91 65.125 146.688 61.3474 146.688 56.6875C146.688 52.0276 142.91 48.25 138.25 48.25C133.59 48.25 129.812 52.0276 129.812 56.6875C129.812 61.3474 133.59 65.125 138.25 65.125Z" fill="#DD4A43"/>
		<path d="M112.938 138.25C117.597 138.25 121.375 134.472 121.375 129.812C121.375 125.153 117.597 121.375 112.938 121.375C108.278 121.375 104.5 125.153 104.5 129.812C104.5 134.472 108.278 138.25 112.938 138.25Z" fill="#DD4A43"/>
		<path d="M45.4375 132.625C50.0974 132.625 53.875 128.847 53.875 124.188C53.875 119.528 50.0974 115.75 45.4375 115.75C40.7776 115.75 37 119.528 37 124.188C37 128.847 40.7776 132.625 45.4375 132.625Z" fill="#DD4A43"/>
		<path d="M87.625 17.3125H76.375C73.2684 17.3125 70.75 19.8309 70.75 22.9375V45.4375C70.75 48.5441 73.2684 51.0625 76.375 51.0625H87.625C90.7316 51.0625 93.25 48.5441 93.25 45.4375V22.9375C93.25 19.8309 90.7316 17.3125 87.625 17.3125Z" fill="#DD4A43"/>
		<path d="M70.7475 25.7502L70.7456 25.7523C69.7227 26.9213 69.8412 28.6981 71.0102 29.7209L89.2766 45.7041C90.4456 46.727 92.2224 46.6085 93.2453 45.4395L93.2471 45.4374C94.27 44.2684 94.1515 42.4916 92.9826 41.4688L74.7161 25.4856C73.5471 24.4627 71.7703 24.5812 70.7475 25.7502Z" fill="#D13E37"/>
	</symbol>
</svg>
