<?xml version="1.0" encoding="utf-8"?>
<svg width="523" height="358" viewBox="0 0 523 358"
	xmlns="http://www.w3.org/2000/svg" xmlns:xlink="http://www.w3.org/1999/xlink">
	<view id="firework" viewBox="240 77 140 140" /><svg width="140" height="140" fill="none" viewBox="0 0 140 140" x="240"
		y="77" xmlns="http://www.w3.org/2000/svg">
		<path
			d="M72.188 30.625h-4.376V35h4.376v-4.375ZM72.188 48.125h-4.376V52.5h4.376v-4.375ZM72.188 105h-4.376v4.375h4.376V105ZM72.188 87.5h-4.376v4.375h4.376V87.5ZM35 67.813h-4.375v4.374H35v-4.374ZM52.5 67.813h-4.375v4.374H52.5v-4.374ZM109.375 67.813H105v4.374h4.375v-4.374ZM91.875 67.813H87.5v4.374h4.375v-4.374ZM43.707 40.61l-3.094 3.094 3.094 3.094 3.093-3.094-3.093-3.093ZM56.08 52.986l-3.094 3.093 3.094 3.094 3.093-3.094-3.093-3.093ZM96.293 93.202l-3.094 3.094 3.094 3.093 3.093-3.093-3.093-3.094ZM83.92 80.827l-3.094 3.094 3.094 3.093 3.093-3.093-3.093-3.094ZM43.707 93.201l-3.094 3.094 3.094 3.093 3.093-3.093-3.093-3.094ZM56.08 80.828l-3.094 3.094 3.094 3.094 3.093-3.094-3.093-3.094Z"
			fill="#FDB62F" />
		<path
			d="M72.188 39.375h-4.376v4.375h4.376v-4.375ZM72.188 96.25h-4.376v4.375h4.376V96.25ZM43.75 67.813h-4.375v4.374h4.375v-4.374ZM100.625 67.813H96.25v4.374h4.375v-4.374ZM49.894 46.799l-3.093 3.094 3.093 3.093 3.094-3.093-3.094-3.094ZM90.107 87.014l-3.093 3.093 3.093 3.094 3.094-3.094-3.094-3.093ZM49.894 87.013l-3.093 3.093 3.093 3.094 3.094-3.094-3.094-3.093ZM90.107 46.8l-3.093 3.094 3.093 3.093 3.094-3.093-3.094-3.094Z"
			fill="#DD4A43" />
		<path d="m96.293 40.611-3.094 3.094 3.094 3.094 3.093-3.094-3.093-3.093Z" fill="#FDB62F" />
		<path
			d="M72.188 15.313h-4.376V26.25h4.376V15.312ZM72.188 113.75h-4.376v10.938h4.376V113.75ZM26.25 67.813H15.312v4.374H26.25v-4.374ZM124.688 67.813H113.75v4.374h10.938v-4.374ZM32.873 29.783l-3.094 3.093 7.733 7.733 3.093-3.094-7.732-7.732ZM102.48 99.389l-3.093 3.093 7.732 7.733 3.094-3.094-7.733-7.732ZM37.512 99.391l-7.733 7.733 3.094 3.093 7.732-7.732-3.093-3.094ZM107.119 29.784l-7.732 7.733 3.093 3.093 7.733-7.732-3.094-3.094Z"
			fill="#FD6D2F" />
		<path
			d="m83.92 52.984-3.094 3.094 3.094 3.094 3.093-3.094-3.093-3.094ZM44.913 78.026 40.87 79.7l1.675 4.041 4.042-1.674-1.675-4.042Z"
			fill="#FDB62F" />
		<path d="M29.581 86.739a4.374 4.374 0 1 0-8.08 3.355 4.374 4.374 0 0 0 8.08-3.355Z" fill="#FD6D2F" />
		<path d="m97.456 56.258-4.042 1.675 1.675 4.041L99.13 60.3l-1.675-4.042Z" fill="#FDB62F" />
		<path d="M110.418 53.261a4.377 4.377 0 0 0 7.679.753 4.374 4.374 0 1 0-7.679-.753Z" fill="#FD6D2F" />
		<path d="m60.301 40.867-4.041 1.675 1.675 4.042 4.041-1.675-1.675-4.042Z" fill="#FDB62F" />
		<path d="M51.594 29.912a4.375 4.375 0 1 0-.015-8.75 4.375 4.375 0 0 0 .015 8.75Z" fill="#FD6D2F" />
		<path d="m82.065 93.416-4.042 1.675 1.675 4.042 4.042-1.675-1.675-4.041Z" fill="#FDB62F" />
		<path
			d="M86.735 110.42a4.37 4.37 0 0 0-2.612 3.19 4.372 4.372 0 0 0 3.022 5.037 4.364 4.364 0 0 0 4.044-.805 4.375 4.375 0 0 0 1.266-5.055 4.385 4.385 0 0 0-5.72-2.367Z"
			fill="#FD6D2F" />
		<path
			d="M57.935 93.417 56.26 97.46l4.041 1.675 1.675-4.042-4.041-1.675ZM53.26 110.42a4.374 4.374 0 1 0 .004 8.083 4.321 4.321 0 0 0 2.365-2.367 4.368 4.368 0 0 0-.95-4.767 4.369 4.369 0 0 0-1.42-.949ZM79.698 40.867l-1.675 4.042 4.042 1.675 1.675-4.042-4.042-1.675ZM86.74 29.58a4.32 4.32 0 0 0 1.667.334 4.386 4.386 0 0 0 4.05-2.702 4.38 4.38 0 1 0-8.426-1.673 4.376 4.376 0 0 0 2.71 4.04ZM42.544 56.259 40.869 60.3l4.042 1.675 1.675-4.042-4.042-1.674ZM23.867 55.626a4.375 4.375 0 1 0 3.348-8.085 4.375 4.375 0 0 0-3.348 8.085ZM95.089 78.025l-1.675 4.041 4.042 1.675L99.13 79.7l-4.042-1.675Z"
			fill="#FDB62F" />
		<path
			d="m52.997 74.675-4.044 1.676 1.675 4.042 4.044-1.676-1.675-4.042ZM89.374 59.608l-4.044 1.675 1.675 4.042 4.044-1.676-1.675-4.041ZM63.651 48.953l-4.042 1.674 1.676 4.044 4.042-1.675-1.676-4.043ZM78.716 85.328l-4.042 1.674 1.675 4.044 4.042-1.675-1.675-4.043ZM61.285 85.33l-1.676 4.044 4.042 1.674 1.676-4.043-4.042-1.675ZM76.35 48.953l-1.676 4.044 4.042 1.674 1.675-4.043-4.041-1.675ZM50.628 59.606l-1.675 4.042 4.044 1.676 1.675-4.042-4.044-1.676ZM87.004 74.676l-1.674 4.042 4.044 1.675 1.674-4.042-4.044-1.675Z"
			fill="#FD6D2F" />
		<path d="M116.133 84.374a4.376 4.376 0 1 0 2.367 2.365 4.349 4.349 0 0 0-2.367-2.365Z" fill="#FDB62F" />
		<path
			d="m36.829 81.374-4.042 1.675 1.675 4.042 4.042-1.675-1.675-4.041ZM105.538 52.91l-4.042 1.674 1.675 4.042 4.042-1.675-1.675-4.042ZM56.952 32.786 52.91 34.46l1.675 4.042 4.042-1.675-1.675-4.041ZM85.415 101.498l-4.042 1.674 1.675 4.042 4.042-1.675-1.675-4.041ZM54.585 101.5l-1.675 4.042 4.042 1.674 1.675-4.041-4.042-1.675ZM83.048 32.784l-1.675 4.042 4.042 1.675 1.675-4.042-4.042-1.675ZM34.462 52.909l-1.675 4.042 4.042 1.675 1.675-4.042-4.042-1.675ZM103.171 81.372l-1.675 4.042 4.042 1.675 1.675-4.042-4.042-1.675ZM72.81 75.906l4.923 4.922 3.093-3.093-4.922-4.922c.097-.203.183-.412.256-.626h6.965v-4.374H76.16a6.011 6.011 0 0 0-.256-.624l4.922-4.922-3.093-3.093-4.922 4.922a6.011 6.011 0 0 0-.624-.256v-6.965h-4.374v6.965c-.213.074-.421.159-.624.256l-4.922-4.922-3.093 3.093 4.922 4.922a6.011 6.011 0 0 0-.256.624h-6.965v4.374h6.965c.074.213.159.421.256.624l-4.922 4.922 3.093 3.093 4.922-4.922c.203.097.411.182.624.256v6.965h4.374V76.16c.213-.073.421-.158.624-.254ZM72.188 70a2.187 2.187 0 1 1-4.374 0 2.187 2.187 0 0 1 4.374 0Z"
			fill="#FD6D2F" />
		<path
			d="M70 4.375A6.562 6.562 0 1 0 70 17.5a6.562 6.562 0 0 0 0-13.125Zm0 8.75a2.187 2.187 0 1 1 0-4.375 2.187 2.187 0 0 1 0 4.375ZM70 122.5a6.563 6.563 0 1 0 0 13.127 6.563 6.563 0 0 0 0-13.127Zm0 8.75a2.183 2.183 0 0 1-2.021-1.35A2.188 2.188 0 1 1 70 131.25ZM10.938 63.438a6.562 6.562 0 1 0 0 13.124 6.562 6.562 0 0 0 0-13.124Zm0 8.75a2.187 2.187 0 1 1 0-4.375 2.187 2.187 0 0 1 0 4.374ZM129.063 63.438a6.562 6.562 0 1 0 0 13.124 6.562 6.562 0 0 0 0-13.124Zm0 8.75a2.19 2.19 0 0 1-2.146-2.615 2.184 2.184 0 0 1 1.719-1.718 2.188 2.188 0 1 1 .427 4.332ZM23.593 23.597a6.562 6.562 0 1 0 9.279 9.281 6.562 6.562 0 0 0-9.28-9.281Zm6.186 6.186a2.188 2.188 0 1 1-3.094-3.094 2.188 2.188 0 0 1 3.094 3.094ZM107.128 107.125a6.565 6.565 0 0 0-1.424 7.152 6.565 6.565 0 0 0 9.71 2.945 6.565 6.565 0 0 0 2.79-6.737 6.565 6.565 0 0 0-6.436-5.282 6.56 6.56 0 0 0-4.64 1.922Zm6.188 6.188a2.19 2.19 0 0 1-2.384.474 2.18 2.18 0 0 1-1.35-2.021 2.184 2.184 0 0 1 1.35-2.021 2.182 2.182 0 0 1 2.384.475 2.187 2.187 0 0 1 0 3.093ZM23.593 107.125a6.56 6.56 0 0 0 .993 10.097 6.564 6.564 0 0 0 10.083-6.737 6.56 6.56 0 0 0-6.437-5.282 6.56 6.56 0 0 0-4.64 1.922Zm6.186 6.188a2.192 2.192 0 0 1-2.384.474 2.18 2.18 0 0 1-1.35-2.021 2.188 2.188 0 1 1 3.734 1.547ZM107.128 23.597a6.567 6.567 0 0 0-1.424 7.152 6.567 6.567 0 0 0 6.064 4.051 6.564 6.564 0 0 0 4.639-11.203 6.56 6.56 0 0 0-9.279 0Zm6.188 6.186a2.185 2.185 0 0 1-3.365-.331 2.183 2.183 0 0 1 0-2.431 2.188 2.188 0 1 1 3.365 2.762Z"
			fill="#DD4A43" />
	</svg>
	<view id="give-presents" viewBox="0 0 240 78" /><svg width="240" height="78" fill="none" viewBox="0 0 240 78"
		xmlns="http://www.w3.org/2000/svg">
		<g filter="url(#ba)">
			<rect x="2.283" y="2.073" width="216" height="56" rx="16" fill="#D5E7D9" />
			<rect x="2.783" y="2.573" width="215" height="55" rx="15.5" stroke="#76977E" stroke-dasharray="12 12" />
			<path d="M45.103 21.892H27.799v3.216h17.304v-3.216Z" fill="#FA6F00" />
			<path
				d="M45.103 25.48H27.798a.372.372 0 0 1-.372-.372V21.89a.372.372 0 0 1 .372-.372h17.305a.373.373 0 0 1 .372.372v3.217a.372.372 0 0 1-.372.372Zm-16.932-.745h16.56v-2.471H28.17v2.471Z"
				fill="#000" />
			<path d="M40.689 37.565h-11.23V25.108h13.983v1.739" fill="#FA9800" />
			<path
				d="M40.69 37.937H29.46a.372.372 0 0 1-.372-.372V25.108a.372.372 0 0 1 .372-.373h13.982a.373.373 0 0 1 .373.373v1.739a.373.373 0 1 1-.745 0V25.48H29.832v11.712h10.857a.372.372 0 1 1 0 .745Z"
				fill="#000" />
			<path d="M38.41 21.892h-3.918v3.216h3.919v-3.216Z" fill="#FE5B4A" />
			<path
				d="M38.41 25.48h-3.918a.373.373 0 0 1-.373-.372V21.89a.373.373 0 0 1 .373-.372h3.918a.372.372 0 0 1 .373.372v3.217a.372.372 0 0 1-.373.372Zm-3.546-.745h3.174v-2.471h-3.174v2.471Z"
				fill="#000" />
			<path d="M37.853 25.422H35.05v12.143h2.804V25.422Z" fill="#FE5B4A" />
			<path
				d="M37.854 37.937H35.05a.372.372 0 0 1-.372-.372V25.422a.372.372 0 0 1 .372-.372h2.805a.372.372 0 0 1 .372.372v12.143a.373.373 0 0 1-.373.372Zm-2.432-.745h2.06V25.795h-2.06v11.397Z"
				fill="#000" />
			<path d="m36.303 21.892 3.557-3.558 2.176 2.177-1.381 1.38" fill="#FE5B4A" />
			<path
				d="M36.302 22.264a.372.372 0 0 1-.263-.636l3.557-3.557a.373.373 0 0 1 .526 0l2.177 2.177a.372.372 0 0 1 0 .527l-1.38 1.381a.372.372 0 1 1-.527-.527l1.117-1.117-1.65-1.65-3.294 3.295a.372.372 0 0 1-.263.107Z"
				fill="#000" />
			<path d="m36.303 21.892-3.556-3.558-2.177 2.177 1.381 1.38" fill="#FE5B4A" />
			<path
				d="M36.303 22.264a.372.372 0 0 1-.263-.11l-3.294-3.293-1.65 1.65 1.118 1.117a.37.37 0 0 1 0 .527.374.374 0 0 1-.527 0l-1.38-1.382a.372.372 0 0 1 0-.526l2.176-2.177a.372.372 0 0 1 .527 0l3.556 3.558a.373.373 0 0 1-.263.636Z"
				fill="#000" />
			<path opacity=".6" d="M43.442 34.48v-9.058H29.7l13.743 9.058Z" fill="#B73F39" />
			<path d="M56.769 29.038H39.465v2.621h17.304v-2.62Z" fill="#469BB5" />
			<path
				d="M56.768 32.031H39.464a.372.372 0 0 1-.372-.372v-2.621a.372.372 0 0 1 .372-.372h17.304a.372.372 0 0 1 .372.372v2.621a.372.372 0 0 1-.372.372Zm-16.931-.744h16.559V29.41h-16.56v1.877Z"
				fill="#000" />
			<path d="M55.108 31.66H41.125v10.152h13.983V31.66Z" fill="#4DBAB5" />
			<path
				d="M55.107 42.185H41.124a.373.373 0 0 1-.372-.373V31.66a.372.372 0 0 1 .372-.372h13.983a.373.373 0 0 1 .372.372v10.153a.373.373 0 0 1-.372.373Zm-13.61-.745h13.237V32.03H41.497v9.409Z"
				fill="#000" />
			<path d="M50.075 29.038h-3.919v2.621h3.919v-2.62Z" fill="#4161B5" />
			<path
				d="M50.076 32.031h-3.918a.372.372 0 0 1-.373-.372v-2.621a.372.372 0 0 1 .373-.372h3.918a.372.372 0 0 1 .373.372v2.621a.372.372 0 0 1-.373.372Zm-3.546-.744h3.174V29.41H46.53v1.877Z"
				fill="#000" />
			<path d="M49.52 31.916h-2.805v9.896h2.804v-9.896Z" fill="#4161B5" />
			<path
				d="M49.519 42.185h-2.805a.372.372 0 0 1-.372-.373v-9.897a.372.372 0 0 1 .372-.372h2.805a.372.372 0 0 1 .372.372v9.897a.372.372 0 0 1-.372.373Zm-2.432-.745h2.06v-9.152h-2.06v9.152Z"
				fill="#000" />
			<path d="m47.969 29.038 3.557-2.899 2.176 1.774-1.381 1.125" fill="#4161B5" />
			<path
				d="M52.32 29.41a.373.373 0 0 1-.235-.66l1.027-.837-1.587-1.293-3.323 2.707a.373.373 0 1 1-.47-.577l3.557-2.899a.373.373 0 0 1 .47 0l2.177 1.774a.373.373 0 0 1 0 .577l-1.38 1.125a.37.37 0 0 1-.235.083Z"
				fill="#000" />
			<path d="M47.968 29.038 44.41 26.14l-2.177 1.774 1.381 1.125" fill="#4161B5" />
			<path
				d="M43.614 29.41a.372.372 0 0 1-.235-.084L42 28.201a.371.371 0 0 1 0-.577l2.177-1.774a.372.372 0 0 1 .47 0l3.557 2.9a.374.374 0 0 1-.054.622.373.373 0 0 1-.416-.046L44.41 26.62l-1.587 1.294 1.027.836a.372.372 0 0 1-.236.661Z"
				fill="#000" />
			<path opacity=".6" d="M54.839 40.973v-9.057H41.096l13.743 9.057ZM56.587 31.408H39.764v-1.65l5.314.57 11.51 1.08Z"
				fill="#124379" />
			<path
				d="M34.212 21.42a.284.284 0 0 1-.203-.083l-1.633-1.633a.286.286 0 1 1 .406-.405l1.632 1.633a.287.287 0 0 1-.202.489ZM40.843 20.808a.286.286 0 0 1-.203-.084l-1.021-1.021a.286.286 0 1 1 .405-.405l1.021 1.02a.286.286 0 0 1-.202.49Z"
				fill="#FFEAE8" />
			<path opacity=".6" d="M44.906 24.806H28.082v-1.65l5.314.57 11.51 1.08Z" fill="#B73F39" />
			<path
				d="M45.392 28.385a.285.285 0 0 1-.178-.062l-.938-.744a.286.286 0 0 1 .355-.45l.939.746a.286.286 0 0 1-.178.51ZM52.256 28.385a.285.285 0 0 1-.178-.062l-.938-.745a.286.286 0 1 1 .356-.449l.938.745a.287.287 0 0 1-.178.511Z"
				fill="#8ECFB5" />
			<path
				d="M45.103 25.48H27.798a.372.372 0 0 1-.372-.372V21.89a.372.372 0 0 1 .372-.372h17.305a.373.373 0 0 1 .372.372v3.217a.372.372 0 0 1-.372.372Zm-16.932-.745h16.56v-2.471H28.17v2.471Z"
				fill="#690A3F" />
			<path
				d="M40.69 37.937H29.46a.372.372 0 0 1-.372-.372V25.108a.372.372 0 0 1 .372-.373h13.982a.373.373 0 0 1 .373.373v1.739a.373.373 0 1 1-.745 0V25.48H29.832v11.712h10.857a.372.372 0 1 1 0 .745Z"
				fill="#690A3F" />
			<path
				d="M38.41 25.48h-3.918a.373.373 0 0 1-.373-.372V21.89a.373.373 0 0 1 .373-.372h3.918a.372.372 0 0 1 .373.372v3.217a.372.372 0 0 1-.373.372Zm-3.546-.745h3.174v-2.471h-3.174v2.471Z"
				fill="#690A3F" />
			<path
				d="M37.854 37.937H35.05a.372.372 0 0 1-.372-.372V25.422a.372.372 0 0 1 .372-.372h2.805a.372.372 0 0 1 .372.372v12.143a.373.373 0 0 1-.373.372Zm-2.432-.745h2.06V25.795h-2.06v11.397ZM36.302 22.264a.372.372 0 0 1-.263-.636l3.557-3.557a.373.373 0 0 1 .526 0l2.177 2.177a.372.372 0 0 1 0 .527l-1.38 1.381a.372.372 0 1 1-.527-.527l1.117-1.117-1.65-1.65-3.294 3.295a.372.372 0 0 1-.263.107Z"
				fill="#690A3F" />
			<path
				d="M36.303 22.264a.372.372 0 0 1-.263-.11l-3.294-3.293-1.65 1.65 1.118 1.117a.37.37 0 0 1 0 .527.374.374 0 0 1-.527 0l-1.38-1.382a.372.372 0 0 1 0-.526l2.176-2.177a.372.372 0 0 1 .527 0l3.556 3.558a.373.373 0 0 1-.263.636ZM56.768 32.031H39.464a.372.372 0 0 1-.372-.372v-2.621a.372.372 0 0 1 .372-.372h17.304a.372.372 0 0 1 .372.372v2.621a.372.372 0 0 1-.372.372Zm-16.931-.744h16.559V29.41h-16.56v1.877Z"
				fill="#690A3F" />
			<path
				d="M55.107 42.185H41.124a.373.373 0 0 1-.372-.373V31.66a.372.372 0 0 1 .372-.372h13.983a.373.373 0 0 1 .372.372v10.153a.373.373 0 0 1-.372.373Zm-13.61-.745h13.237V32.03H41.497v9.409Z"
				fill="#690A3F" />
			<path
				d="M50.076 32.031h-3.918a.372.372 0 0 1-.373-.372v-2.621a.372.372 0 0 1 .373-.372h3.918a.372.372 0 0 1 .373.372v2.621a.372.372 0 0 1-.373.372Zm-3.546-.744h3.174V29.41H46.53v1.877Z"
				fill="#690A3F" />
			<path
				d="M49.519 42.185h-2.805a.372.372 0 0 1-.372-.373v-9.897a.372.372 0 0 1 .372-.372h2.805a.372.372 0 0 1 .372.372v9.897a.372.372 0 0 1-.372.373Zm-2.432-.745h2.06v-9.152h-2.06v9.152ZM52.32 29.41a.373.373 0 0 1-.235-.66l1.027-.837-1.587-1.293-3.323 2.707a.373.373 0 1 1-.47-.577l3.557-2.899a.373.373 0 0 1 .47 0l2.177 1.774a.373.373 0 0 1 0 .577l-1.38 1.125a.37.37 0 0 1-.235.083Z"
				fill="#690A3F" />
			<path
				d="M43.614 29.41a.372.372 0 0 1-.235-.084L42 28.201a.371.371 0 0 1 0-.577l2.177-1.774a.372.372 0 0 1 .47 0l3.557 2.9a.374.374 0 0 1-.054.622.373.373 0 0 1-.416-.046L44.41 26.62l-1.587 1.294 1.027.836a.372.372 0 0 1-.236.661Z"
				fill="#690A3F" />
			<path
				d="M78.667 37.253c-1.507 0-2.787-.286-3.84-.86a5.825 5.825 0 0 1-2.38-2.5c-.534-1.08-.8-2.366-.8-3.86 0-1.12.153-2.12.46-3 .306-.893.753-1.653 1.34-2.28.6-.64 1.32-1.126 2.16-1.46.853-.333 1.813-.5 2.88-.5a8.49 8.49 0 0 1 2.4.34 6.1 6.1 0 0 1 2.12 1.06c.16.12.26.26.3.42.053.16.06.32.02.48a.89.89 0 0 1-.24.42.68.68 0 0 1-.42.22c-.16.014-.334-.04-.52-.16a5.482 5.482 0 0 0-1.72-.86 6.83 6.83 0 0 0-1.94-.26c-1.053 0-1.947.22-2.68.66-.734.427-1.287 1.06-1.66 1.9-.36.827-.54 1.834-.54 3.02 0 1.827.427 3.214 1.28 4.16.867.947 2.147 1.42 3.84 1.42a9.06 9.06 0 0 0 1.82-.18c.6-.12 1.173-.286 1.72-.5l-.4 1v-4.82h-2.72c-.24 0-.434-.066-.58-.2-.133-.133-.2-.313-.2-.54 0-.226.066-.4.2-.52.147-.12.34-.18.58-.18h3.54c.24 0 .427.067.56.2.147.134.22.327.22.58v5.14c0 .214-.04.4-.12.56a.7.7 0 0 1-.4.32c-.56.227-1.227.414-2 .56-.773.147-1.534.22-2.28.22Zm8.73-.08c-.28 0-.5-.086-.66-.26-.16-.173-.24-.413-.24-.72v-7.98c0-.32.08-.56.24-.72.16-.173.38-.26.66-.26.293 0 .52.087.68.26.16.16.24.4.24.72v7.98c0 .307-.08.547-.24.72-.147.174-.373.26-.68.26Zm0-12.1c-.36 0-.647-.093-.86-.28-.2-.2-.3-.46-.3-.78 0-.346.1-.606.3-.78.213-.186.5-.28.86-.28.387 0 .673.094.86.28.2.174.3.434.3.78 0 .32-.1.58-.3.78-.187.187-.473.28-.86.28Zm7.546 12.14c-.253 0-.473-.066-.66-.2-.186-.133-.347-.346-.48-.64l-3.4-7.92a1.188 1.188 0 0 1-.1-.62.704.704 0 0 1 .26-.46c.16-.12.373-.18.64-.18.227 0 .407.054.54.16.133.107.26.294.38.56l3.14 7.74h-.56l3.22-7.74c.107-.266.227-.453.36-.56.147-.106.347-.16.6-.16.227 0 .4.06.52.18a.74.74 0 0 1 .24.46c.027.187-.013.387-.12.6l-3.42 7.94c-.12.294-.28.507-.48.64-.187.134-.413.2-.68.2Zm10.996.04c-1.054 0-1.96-.2-2.72-.6a4.365 4.365 0 0 1-1.74-1.74c-.414-.76-.62-1.653-.62-2.68 0-1.013.2-1.9.6-2.66a4.594 4.594 0 0 1 1.68-1.78c.72-.426 1.54-.64 2.46-.64.653 0 1.24.114 1.76.34.533.214.986.527 1.36.94.373.414.653.92.84 1.52.2.587.3 1.254.3 2 0 .214-.067.38-.2.5-.12.107-.3.16-.54.16h-6.84v-1.16h6.38l-.34.28c0-.693-.107-1.28-.32-1.76-.2-.493-.5-.866-.9-1.12-.387-.253-.874-.38-1.46-.38-.64 0-1.187.154-1.64.46-.454.294-.8.714-1.04 1.26-.24.534-.36 1.154-.36 1.86v.12c0 1.2.286 2.107.86 2.72.573.614 1.4.92 2.48.92.426 0 .86-.053 1.3-.16.453-.106.886-.3 1.3-.58.2-.12.38-.173.54-.16a.57.57 0 0 1 .42.16.613.613 0 0 1 .2.36.764.764 0 0 1-.06.44.947.947 0 0 1-.38.42c-.44.307-.967.547-1.58.72-.6.16-1.18.24-1.74.24Zm12.298 3.56c-.28 0-.5-.08-.66-.24-.16-.16-.24-.386-.24-.68v-11.78c0-.306.08-.533.24-.68.16-.16.38-.24.66-.24.293 0 .513.08.66.24.16.147.24.374.24.68v1.82l-.22-.36a3.173 3.173 0 0 1 1.26-1.76c.627-.44 1.38-.66 2.26-.66.867 0 1.62.207 2.26.62.64.4 1.14.98 1.5 1.74.36.747.54 1.64.54 2.68 0 1.027-.18 1.927-.54 2.7-.347.76-.847 1.347-1.5 1.76-.64.4-1.393.6-2.26.6-.867 0-1.613-.22-2.24-.66a3.173 3.173 0 0 1-1.26-1.74h.22v5.04c0 .294-.08.52-.24.68-.16.16-.387.24-.68.24Zm3.78-5c.573 0 1.073-.14 1.5-.42.44-.28.78-.686 1.02-1.22.24-.533.36-1.193.36-1.98 0-1.173-.26-2.066-.78-2.68-.52-.613-1.22-.92-2.1-.92-.587 0-1.1.14-1.54.42-.427.267-.76.667-1 1.2-.227.534-.34 1.194-.34 1.98 0 1.174.26 2.074.78 2.7.52.614 1.22.92 2.1.92Zm7.998 1.4c-.306 0-.54-.08-.7-.24-.16-.16-.24-.393-.24-.7v-8.16c0-.306.08-.533.24-.68.16-.16.38-.24.66-.24s.494.08.64.24c.16.147.24.374.24.68v1.54h-.2c.214-.8.614-1.406 1.2-1.82.587-.413 1.327-.646 2.22-.7.214-.013.387.04.52.16.134.107.207.294.22.56.014.254-.046.46-.18.62-.133.147-.34.234-.62.26l-.36.02c-.88.094-1.56.38-2.04.86-.466.48-.7 1.14-.7 1.98v4.68c0 .307-.08.54-.24.7-.146.16-.366.24-.66.24Zm10.728.04c-1.053 0-1.96-.2-2.72-.6a4.378 4.378 0 0 1-1.74-1.74c-.413-.76-.62-1.653-.62-2.68 0-1.013.2-1.9.6-2.66a4.609 4.609 0 0 1 1.68-1.78c.72-.426 1.54-.64 2.46-.64.654 0 1.24.114 1.76.34.534.214.987.527 1.36.94.374.414.654.92.84 1.52.2.587.3 1.254.3 2 0 .214-.066.38-.2.5-.12.107-.3.16-.54.16h-6.84v-1.16h6.38l-.34.28c0-.693-.106-1.28-.32-1.76-.2-.493-.5-.866-.9-1.12-.386-.253-.873-.38-1.46-.38-.64 0-1.186.154-1.64.46-.453.294-.8.714-1.04 1.26-.24.534-.36 1.154-.36 1.86v.12c0 1.2.287 2.107.86 2.72.574.614 1.4.92 2.48.92a5.5 5.5 0 0 0 1.3-.16 3.89 3.89 0 0 0 1.3-.58c.2-.12.38-.173.54-.16.174 0 .314.054.42.16a.603.603 0 0 1 .2.36.748.748 0 0 1-.06.44.935.935 0 0 1-.38.42c-.44.307-.966.547-1.58.72-.6.16-1.18.24-1.74.24Zm9.544 0c-.6 0-1.207-.066-1.82-.2a5.49 5.49 0 0 1-1.7-.74.855.855 0 0 1-.32-.34.928.928 0 0 1-.06-.42.765.765 0 0 1 .18-.38.505.505 0 0 1 .34-.18c.146-.026.3.007.46.1.52.294 1.02.5 1.5.62.493.12.98.18 1.46.18.733 0 1.286-.133 1.66-.4.373-.266.56-.62.56-1.06 0-.373-.127-.66-.38-.86-.24-.213-.62-.373-1.14-.48l-1.86-.38c-.827-.186-1.454-.493-1.88-.92-.414-.44-.62-1-.62-1.68 0-.6.16-1.12.48-1.56.333-.453.793-.8 1.38-1.04.586-.24 1.26-.36 2.02-.36.586 0 1.14.08 1.66.24a4.487 4.487 0 0 1 1.44.68c.16.094.26.214.3.36.053.134.06.274.02.42a.654.654 0 0 1-.18.34.666.666 0 0 1-.36.18.852.852 0 0 1-.48-.12 3.776 3.776 0 0 0-1.2-.56c-.4-.12-.8-.18-1.2-.18-.72 0-1.267.14-1.64.42-.36.28-.54.647-.54 1.1 0 .347.106.634.32.86.226.227.58.394 1.06.5l1.86.38c.866.187 1.52.487 1.96.9.44.4.66.947.66 1.64 0 .907-.36 1.627-1.08 2.16-.707.52-1.66.78-2.86.78Zm10.808 0c-1.054 0-1.96-.2-2.72-.6a4.365 4.365 0 0 1-1.74-1.74c-.414-.76-.62-1.653-.62-2.68 0-1.013.2-1.9.6-2.66a4.594 4.594 0 0 1 1.68-1.78c.72-.426 1.54-.64 2.46-.64.653 0 1.24.114 1.76.34.533.214.986.527 1.36.94.373.414.653.92.84 1.52.2.587.3 1.254.3 2 0 .214-.067.38-.2.5-.12.107-.3.16-.54.16h-6.84v-1.16h6.38l-.34.28c0-.693-.107-1.28-.32-1.76-.2-.493-.5-.866-.9-1.12-.387-.253-.874-.38-1.46-.38-.64 0-1.187.154-1.64.46-.454.294-.8.714-1.04 1.26-.24.534-.36 1.154-.36 1.86v.12c0 1.2.286 2.107.86 2.72.573.614 1.4.92 2.48.92.426 0 .86-.053 1.3-.16.453-.106.886-.3 1.3-.58.2-.12.38-.173.54-.16a.57.57 0 0 1 .42.16.613.613 0 0 1 .2.36.764.764 0 0 1-.06.44.947.947 0 0 1-.38.42c-.44.307-.967.547-1.58.72-.6.16-1.18.24-1.74.24Zm7.083-.04c-.28 0-.5-.08-.66-.24-.16-.16-.24-.393-.24-.7v-8.16c0-.306.08-.533.24-.68.16-.16.38-.24.66-.24s.494.08.64.24c.16.147.24.374.24.68v1.64l-.22-.3c.28-.76.734-1.333 1.36-1.72.64-.386 1.367-.58 2.18-.58.787 0 1.434.14 1.94.42.507.28.887.707 1.14 1.28.254.574.38 1.3.38 2.18v5.24c0 .307-.08.54-.24.7-.146.16-.366.24-.66.24-.293 0-.52-.08-.68-.24-.16-.16-.24-.393-.24-.7v-5.14c0-.866-.166-1.5-.5-1.9-.333-.4-.866-.6-1.6-.6-.853 0-1.54.267-2.06.8-.506.52-.76 1.227-.76 2.12v4.72c0 .627-.306.94-.92.94Zm14.586.04c-.787 0-1.447-.14-1.98-.42a2.744 2.744 0 0 1-1.18-1.22c-.254-.533-.38-1.186-.38-1.96v-4.92h-1.28c-.24 0-.427-.06-.56-.18a.7.7 0 0 1-.2-.52c0-.226.066-.4.2-.52.133-.12.32-.18.56-.18h1.28v-2.18c0-.306.08-.533.24-.68.16-.16.386-.24.68-.24.293 0 .513.08.66.24.16.147.24.374.24.68v2.18h2.42c.253 0 .446.06.58.18.133.12.2.294.2.52a.705.705 0 0 1-.2.52c-.134.12-.327.18-.58.18h-2.42v4.76c0 .734.153 1.287.46 1.66.306.374.813.56 1.52.56.253 0 .466-.02.64-.06.173-.053.326-.08.46-.08.12-.013.22.027.3.12.093.094.14.267.14.52 0 .187-.034.36-.1.52a.488.488 0 0 1-.34.3c-.16.054-.374.1-.64.14-.267.054-.507.08-.72.08Zm6.488 0c-.6 0-1.207-.066-1.82-.2a5.49 5.49 0 0 1-1.7-.74.855.855 0 0 1-.32-.34.928.928 0 0 1-.06-.42.765.765 0 0 1 .18-.38.505.505 0 0 1 .34-.18c.146-.026.3.007.46.1.52.294 1.02.5 1.5.62.493.12.98.18 1.46.18.733 0 1.286-.133 1.66-.4.373-.266.56-.62.56-1.06 0-.373-.127-.66-.38-.86-.24-.213-.62-.373-1.14-.48l-1.86-.38c-.827-.186-1.454-.493-1.88-.92-.414-.44-.62-1-.62-1.68 0-.6.16-1.12.48-1.56.333-.453.793-.8 1.38-1.04.586-.24 1.26-.36 2.02-.36.586 0 1.14.08 1.66.24a4.487 4.487 0 0 1 1.44.68c.16.094.26.214.3.36.053.134.06.274.02.42a.654.654 0 0 1-.18.34.666.666 0 0 1-.36.18.852.852 0 0 1-.48-.12 3.776 3.776 0 0 0-1.2-.56c-.4-.12-.8-.18-1.2-.18-.72 0-1.267.14-1.64.42-.36.28-.54.647-.54 1.1 0 .347.106.634.32.86.226.227.58.394 1.06.5l1.86.38c.866.187 1.52.487 1.96.9.44.4.66.947.66 1.64 0 .907-.36 1.627-1.08 2.16-.707.52-1.66.78-2.86.78Z"
				fill="#414141" />
		</g>
		<defs>
			<filter id="ba" x=".283" y=".073" width="239" height="77" filterUnits="userSpaceOnUse"
				color-interpolation-filters="sRGB">
				<feFlood flood-opacity="0" result="BackgroundImageFix" />
				<feColorMatrix in="SourceAlpha" values="0 0 0 0 0 0 0 0 0 0 0 0 0 0 0 0 0 0 127 0" result="hardAlpha" />
				<feOffset dx="1" dy="1" />
				<feGaussianBlur stdDeviation="1.5" />
				<feColorMatrix values="0 0 0 0 0 0 0 0 0 0 0 0 0 0 0 0 0 0 0.05 0" />
				<feBlend in2="BackgroundImageFix" result="effect1_dropShadow_477_7494" />
				<feColorMatrix in="SourceAlpha" values="0 0 0 0 0 0 0 0 0 0 0 0 0 0 0 0 0 0 127 0" result="hardAlpha" />
				<feOffset dx="3" dy="3" />
				<feGaussianBlur stdDeviation="2.5" />
				<feColorMatrix values="0 0 0 0 0 0 0 0 0 0 0 0 0 0 0 0 0 0 0.04 0" />
				<feBlend in2="effect1_dropShadow_477_7494" result="effect2_dropShadow_477_7494" />
				<feColorMatrix in="SourceAlpha" values="0 0 0 0 0 0 0 0 0 0 0 0 0 0 0 0 0 0 127 0" result="hardAlpha" />
				<feOffset dx="8" dy="7" />
				<feGaussianBlur stdDeviation="3" />
				<feColorMatrix values="0 0 0 0 0 0 0 0 0 0 0 0 0 0 0 0 0 0 0.03 0" />
				<feBlend in2="effect2_dropShadow_477_7494" result="effect3_dropShadow_477_7494" />
				<feColorMatrix in="SourceAlpha" values="0 0 0 0 0 0 0 0 0 0 0 0 0 0 0 0 0 0 127 0" result="hardAlpha" />
				<feOffset dx="14" dy="12" />
				<feGaussianBlur stdDeviation="3.5" />
				<feColorMatrix values="0 0 0 0 0 0 0 0 0 0 0 0 0 0 0 0 0 0 0.01 0" />
				<feBlend in2="effect3_dropShadow_477_7494" result="effect4_dropShadow_477_7494" />
				<feBlend in="SourceGraphic" in2="effect4_dropShadow_477_7494" result="shape" />
			</filter>
		</defs>
	</svg>
	<view id="have-fun" viewBox="240 0 197 77" /><svg width="197" height="77" fill="none" viewBox="0 0 197 77" x="240"
		xmlns="http://www.w3.org/2000/svg">
		<g filter="url(#ca)">
			<rect x="2" y="2" width="174" height="56" rx="16" fill="#D5E7D9" />
			<rect x="2.5" y="2.5" width="173" height="55" rx="15.5" stroke="#76977E" stroke-dasharray="12 12" />
			<path
				d="M44.21 33.917c-1.307 1.563-1.371 4.36-1.261 5.724.11 1.364-.11 1.757-.11 1.757s-.953-3.463-6.03-5.82c-4.405-2.046-8.278-1.096-8.278-1.096s3.17-1.146 4.96-4.068c3.332-5.432 5.825-5.044 5.825-5.044l3.706.437s-.763 2.922-.182 4.104c.58 1.182 1.37 4.006 1.37 4.006Z"
				fill="#FA9800" />
			<path d="M42.84 41.398s-.203 3.932-9.344-.577c-8.046-3.969-4.965-6.34-4.965-6.34S39.194 33 42.839 41.399Z"
				fill="#FA9800" />
			<path
				d="M35.439 38.325c.906.4 1.882.18 2.18-.492l.006-.016a14.154 14.154 0 0 0-1.595-.875 10.51 10.51 0 0 0-1.67-.61l-.024.048c-.297.673.196 1.543 1.103 1.945Z"
				fill="#FA9800" />
			<path d="M29.528 35.914s3.519-.38 6.577 1.054c3.972 1.863 5.306 4.63 5.306 4.63" fill="#FA9800" />
			<path
				d="M37.462 27.46s3.848 1.165 4.113 4.397c.266 3.232-1.272 4.224-2.93 4.29 0 0 3.773 3.652 3.883 4.183.09.441.664-4.605 1.52-6.22.172-.325.037-.734-.114-1.07l-1.663-3.723.256-3.265-3.74-.35-2.417 1.229 1.092.53Z"
				fill="#FA6F00" />
			<path
				d="M46.968 25.377s1.846-.44 4.638 3.787c1.501 2.272 3.935 3.039 3.935 3.039s-2.95-.572-6.136 1.306c-3.67 2.165-4.195 5.016-4.195 5.016s-.186-.307-.178-1.416c.008-1.109-.08-3.021-.774-3.805 0 0-2.848-4.005-1.235-7.497"
				fill="#F3970D" />
			<path
				d="M55.541 32.203c.176.136.31.318.39.526.548 1.464-2.059 3.748-3.76 4.856-2.134 1.392-5.608 2.736-6.673 1.551a1.232 1.232 0 0 1-.287-.61c-.525-2.848 8.157-8.056 10.33-6.323Z"
				fill="#F3970D" />
			<path
				d="M50.58 35.663c-.656.37-1.398.242-1.658-.286l-.005-.012c.363-.289.746-.552 1.145-.79a7.513 7.513 0 0 1 1.217-.578.753.753 0 0 1 .02.038c.26.528-.063 1.258-.718 1.628Z"
				fill="#F3970D" />
			<path d="M54.873 33.413s-2.654-.13-4.865 1.186c-2.87 1.709-3.718 4.016-3.718 4.016" fill="#F3970D" />
			<path
				d="M49.69 27.424a4.358 4.358 0 0 0-2.872 1.314c-.505.526-.922 1.232-.965 2.144-.114 2.431 1.031 3.139 2.245 3.148 0 0-2.664 2.83-2.73 3.232-.056.333-.6-3.439-1.264-4.63-.134-.24-1.36-3.557-1.258-3.813l.182-3.131 1.987.859 2.285-1.186 3.07 2.02-.68.043Z"
				fill="#FA6F00" />
			<path
				d="M43.191 25.093c1.062 0 1.923-1.264 1.923-2.823 0-1.56-.861-2.824-1.923-2.824-1.061 0-1.922 1.264-1.922 2.823 0 1.56.86 2.824 1.922 2.824Z"
				fill="#E20613" />
			<path
				d="M44.329 19.994s3.056-3.584 4.618-2.892c.857.38 2.676 4.26.665 7.588 0 0-1.899 1.727-4.82-1.033M41.884 19.994s-3.056-3.584-4.618-2.892c-.857.38-2.676 4.26-.665 7.588 0 0 1.899 1.727 4.82-1.033"
				fill="#E20613" />
			<path d="m41.094 23.95-4.168 4.172 2.687-.463.245 2.252 3.333-4.818" fill="#E20613" />
			<path d="m45.045 23.95 4.168 4.172-2.687-.463-.245 2.252-3.333-4.818" fill="#E20613" />
			<path
				d="M29.724 36.892c.57.463 4.963 3.92 10.822 5.085 0 0 1.423.173.277-.972-1.145-1.146-3.852-4.37-7.117-4.65-3.266-.28-4.685-.541-4.526-.127.09.232.242.434.44.584.037.026.071.053.104.08ZM54.923 34.045c-.407.38-3.561 3.23-8.028 4.548 0 0-1.093.242-.29-.677.804-.92 2.665-3.463 5.181-3.932 2.517-.469 3.602-.773 3.51-.462a.994.994 0 0 1-.299.457l-.074.066Z"
				fill="#FA6F00" />
			<path
				d="M32.916 33.089a.286.286 0 0 1-.166-.52 8.168 8.168 0 0 0 1.553-1.55c.609-.803 1.376-2.168 1.384-2.182a.286.286 0 0 1 .535.174.287.287 0 0 1-.035.107c-.032.057-.794 1.412-1.427 2.246a8.584 8.584 0 0 1-1.678 1.672.284.284 0 0 1-.166.053ZM51.646 31.293a.283.283 0 0 1-.16-.05 4.71 4.71 0 0 1-.93-.884c-.358-.446-.815-1.184-.835-1.214a.285.285 0 0 1 .089-.402.286.286 0 0 1 .398.1c.005.007.459.739.795 1.157.233.29.503.55.804.77a.285.285 0 0 1 .009.467.286.286 0 0 1-.17.056Z"
				fill="#FFEABA" />
			<path
				d="M49.4 20.806a.287.287 0 0 1-.287-.263c-.062-.765-.41-1.412-.69-1.821a.318.318 0 0 0-.4-.105l-.707.344a.287.287 0 0 1-.251-.516l.707-.343a.894.894 0 0 1 1.123.295c.32.466.716 1.208.788 2.099a.286.286 0 0 1-.263.309l-.02.002ZM36.801 20.667h-.023a.286.286 0 0 1-.262-.309c.073-.89.468-1.632.787-2.098a.894.894 0 0 1 1.124-.296l.706.344a.287.287 0 1 1-.25.515l-.707-.343a.318.318 0 0 0-.4.103c-.28.409-.627 1.057-.69 1.821a.286.286 0 0 1-.285.263ZM44.129 23.305l-.033-.003a.286.286 0 0 1-.252-.317c.21-1.81-.742-2.327-.782-2.35l.002.002.253-.514c.056.028 1.355.694 1.096 2.927a.287.287 0 0 1-.284.255Z"
				fill="#FE5B4A" />
			<path
				d="M43.191 25.465c-.64 0-1.231-.352-1.666-.99-.405-.594-.628-1.378-.628-2.206 0-.827.223-1.61.628-2.205.434-.639 1.026-.99 1.666-.99.641 0 1.232.351 1.667.99.405.594.628 1.378.628 2.206 0 .827-.223 1.611-.628 2.205-.434.64-1.026.99-1.666.99Zm0-5.646c-.84 0-1.55 1.122-1.55 2.45 0 1.329.71 2.451 1.55 2.451.84 0 1.55-1.122 1.55-2.45 0-1.33-.71-2.451-1.55-2.451Z"
				fill="#690A3F" />
			<path
				d="M48.003 25.596c-.443 0-.898-.09-1.358-.266-.697-.267-1.406-.74-2.108-1.403l.513-.54c2.427 2.293 4.009 1.263 4.276 1.057a5.959 5.959 0 0 0 .815-2.713 7.032 7.032 0 0 0-.315-2.488c-.347-1.104-.841-1.717-1.029-1.8-.483-.215-1.394.195-2.497 1.125-.926.78-1.68 1.659-1.687 1.667l-.566-.483a17.053 17.053 0 0 1 1.767-1.748c1.39-1.174 2.496-1.591 3.285-1.241.506.224 1.083 1.13 1.438 2.257.28.89.399 1.823.349 2.755a6.696 6.696 0 0 1-.954 3.108l-.028.047-.04.036c-.023.021-.577.516-1.527.614a3.24 3.24 0 0 1-.334.016ZM38.211 25.596a3.23 3.23 0 0 1-.334-.017c-.95-.098-1.503-.593-1.526-.614l-.04-.036-.029-.047a6.692 6.692 0 0 1-.953-3.108 7.77 7.77 0 0 1 .348-2.755c.355-1.126.933-2.034 1.438-2.257.789-.35 1.894.068 3.286 1.241.63.54 1.22 1.123 1.766 1.748l-.566.483.283-.241-.283.242a16.48 16.48 0 0 0-1.687-1.668c-1.103-.93-2.013-1.34-2.497-1.125-.187.083-.682.696-1.03 1.8a7.03 7.03 0 0 0-.314 2.488c.05.957.329 1.887.814 2.713.268.206 1.85 1.236 4.277-1.058l.512.542c-.702.663-1.41 1.135-2.108 1.403a3.785 3.785 0 0 1-1.357.266Z"
				fill="#690A3F" />
			<path
				d="M39.858 30.283a.372.372 0 0 1-.37-.332l-.2-1.857-2.296.394a.373.373 0 0 1-.327-.63l4.167-4.17a.372.372 0 1 1 .527.526l-3.34 3.342 1.53-.264a.373.373 0 0 1 .434.326l.137 1.258 2.764-3.996a.372.372 0 1 1 .612.424l-3.331 4.819a.371.371 0 0 1-.306.16Z"
				fill="#690A3F" />
			<path
				d="M46.28 30.283a.372.372 0 0 1-.305-.16l-3.332-4.819a.372.372 0 1 1 .612-.423l2.765 3.996.136-1.258a.372.372 0 0 1 .433-.327l1.532.263-3.339-3.341a.372.372 0 1 1 .527-.526l4.167 4.17a.372.372 0 0 1-.327.63l-2.295-.394-.2 1.857a.373.373 0 0 1-.373.332ZM42.84 41.77c-.015 0-.03 0-.045-.002a.373.373 0 0 1-.315-.271c-.003-.007-.243-.839-1.077-1.936-.77-1.015-2.22-2.47-4.752-3.646a13.903 13.903 0 0 0-5.612-1.28c-1.461-.02-2.411.205-2.42.207a.372.372 0 0 1-.216-.712c.008-.002.78-.286 1.751-.912.888-.573 2.134-1.556 3.018-2.998 1.416-2.308 2.862-3.886 4.297-4.69 1.12-.627 1.825-.54 1.902-.528l-.114.736h.006c-.005 0-.575-.061-1.518.492-.892.522-2.3 1.706-3.939 4.38-.96 1.569-2.306 2.631-3.266 3.246l-.057.037a14.655 14.655 0 0 1 6.483 1.346c2.692 1.25 4.24 2.816 5.06 3.909.206.274.398.56.573.854a9.682 9.682 0 0 0-.022-.33c-.053-.668-.242-4.093 1.347-5.994a.371.371 0 0 1 .62.063.373.373 0 0 1-.049.415c-.531.635-.894 1.562-1.08 2.755-.187 1.2-.13 2.288-.096 2.7.114 1.404-.11 1.886-.156 1.968a.372.372 0 0 1-.323.191Z"
				fill="#690A3F" />
			<path
				d="M40.351 43.359a7.393 7.393 0 0 1-1.113-.091c-1.56-.238-3.547-.95-5.907-2.112-3.647-1.8-5.578-3.544-5.74-5.183a2.062 2.062 0 0 1 .713-1.787l.454.59.003-.002a1.313 1.313 0 0 0-.428 1.14c.06.558.43 1.171 1.094 1.823.901.883 2.325 1.808 4.234 2.75 2.276 1.123 4.182 1.81 5.66 2.04 1.085.17 1.916.094 2.473-.223.623-.355.672-.906.674-.93v.005l.744.038c-.002.04-.06.954-1.022 1.519-.48.283-1.097.423-1.839.423Z"
				fill="#690A3F" />
			<path
				d="M36.354 38.898a2.65 2.65 0 0 1-1.066-.234c-.51-.226-.928-.59-1.175-1.027-.268-.473-.31-.973-.116-1.409.01-.025.022-.047.031-.066a.372.372 0 0 1 .43-.19c.593.161 1.172.373 1.73.632a14.56 14.56 0 0 1 1.636.898.373.373 0 0 1 .134.48c-.193.436-.591.742-1.12.861a2.2 2.2 0 0 1-.484.055Zm-.764-.914c.564.25 1.173.21 1.5-.057-.39-.233-.798-.45-1.217-.646a9.9 9.9 0 0 0-1.25-.484c.004.167.051.33.137.474.17.298.464.551.83.713Z"
				fill="#690A3F" />
			<path
				d="M41.41 41.971a.373.373 0 0 1-.335-.21c-.003-.006-.333-.675-1.127-1.555-.733-.81-2.021-1.972-4.002-2.901-2.93-1.375-6.344-1.024-6.378-1.02a.372.372 0 1 1-.08-.741c.037-.004.926-.098 2.205-.013 1.183.08 2.937.334 4.57 1.1 2.107.989 3.48 2.234 4.26 3.102.856.953 1.208 1.674 1.223 1.704a.373.373 0 0 1-.335.535ZM45.21 38.897a.372.372 0 0 1-.32-.18c-.056-.093-.239-.484-.23-1.61.012-1.758-.237-3.053-.682-3.556a.352.352 0 0 1-.025-.031c-.03-.043-.748-1.06-1.27-2.53a8.787 8.787 0 0 1-.52-2.521c-.048-1.019.127-1.967.52-2.819a.372.372 0 1 1 .677.313c-.341.738-.494 1.566-.454 2.46.032.728.191 1.502.473 2.299a10.794 10.794 0 0 0 1.172 2.352c.35.406.588 1.046.725 1.955.086.573.13 1.236.128 1.974a8.19 8.19 0 0 1 .207-.366c.56-.934 1.641-2.291 3.605-3.449a10.404 10.404 0 0 1 4.583-1.42c-.805-.5-1.76-1.272-2.504-2.399s-1.892-2.615-3.127-3.3c-.713-.396-1.119-.328-1.123-.328l.01-.002-.172-.724c.061-.015.622-.129 1.529.34.503.26 1.026.652 1.553 1.168.644.63 1.301 1.45 1.953 2.436 1.404 2.128 3.712 2.881 3.735 2.887a.373.373 0 0 1-.183.721c-.007 0-.722-.133-1.8-.043a9.668 9.668 0 0 0-4.076 1.305c-1.811 1.068-2.807 2.306-3.323 3.156-.56.922-.693 1.6-.695 1.608a.373.373 0 0 1-.366.303v.001Z"
				fill="#690A3F" />
			<path
				d="M46.923 40.066c-.425 0-.796-.077-1.113-.23a1.718 1.718 0 0 1-.97-1.269l.74-.086v-.005a.974.974 0 0 0 .569.696c.224.105.487.15.779.15 1.499 0 3.722-1.228 5.047-2.054 1.367-.853 2.374-1.666 2.995-2.418.453-.55.69-1.052.705-1.494.02-.568-.348-.85-.352-.853a.373.373 0 0 1 .437-.603c.029.02.693.513.659 1.481-.047 1.352-1.41 2.872-4.05 4.519-2.31 1.441-4.135 2.165-5.446 2.166Z"
				fill="#690A3F" />
			<path
				d="M49.815 36.247c-.156.001-.312-.022-.462-.068a1.248 1.248 0 0 1-.775-.66.372.372 0 0 1 .107-.447c.377-.299.773-.572 1.187-.818.406-.24.834-.443 1.277-.607a.373.373 0 0 1 .456.169c.01.017.02.035.028.054.175.356.172.779-.009 1.189-.168.38-.473.71-.86.928a1.941 1.941 0 0 1-.949.26Zm-.357-.828c.037.02.075.037.115.049.24.075.549.026.824-.13.351-.197.585-.531.616-.833a6.928 6.928 0 0 0-.761.39c-.273.162-.54.338-.794.524Z"
				fill="#690A3F" />
			<path
				d="M46.29 38.987a.373.373 0 0 1-.35-.5c.037-.1.927-2.452 3.878-4.208 2.28-1.358 4.96-1.243 5.074-1.238a.37.37 0 0 1 .332.247.372.372 0 0 1-.369.498c-.041-.002-2.578-.102-4.656 1.134a9.473 9.473 0 0 0-2.808 2.52c-.542.745-.75 1.299-.753 1.304a.373.373 0 0 1-.348.243Z"
				fill="#690A3F" />
			<path
				d="M72.878 37.14c-.293 0-.52-.08-.68-.24-.16-.173-.24-.413-.24-.72V23.72c0-.32.08-.56.24-.72.16-.16.387-.24.68-.24.306 0 .54.08.7.24.16.16.24.4.24.72v5.34h8.16v-5.34c0-.32.08-.56.24-.72.16-.16.393-.24.7-.24.293 0 .52.08.68.24.16.16.24.4.24.72v12.46c0 .307-.08.547-.24.72-.16.16-.387.24-.68.24-.307 0-.54-.08-.7-.24-.16-.173-.24-.413-.24-.72v-5.54h-8.16v5.54c0 .307-.08.547-.24.72-.147.16-.38.24-.7.24Zm17.213.04a4.095 4.095 0 0 1-1.82-.4 3.226 3.226 0 0 1-1.26-1.08 2.738 2.738 0 0 1-.44-1.52c0-.72.18-1.287.54-1.7.36-.413.967-.707 1.82-.88.854-.187 2-.28 3.44-.28h.94v1.16h-.9c-1.026 0-1.84.047-2.44.14-.586.093-1 .26-1.24.5-.24.227-.36.547-.36.96 0 .52.18.947.54 1.28.374.333.88.5 1.52.5.507 0 .954-.12 1.34-.36.387-.253.694-.587.92-1 .227-.427.34-.913.34-1.46v-2.3c0-.787-.16-1.353-.48-1.7-.32-.36-.86-.54-1.62-.54-.44 0-.893.06-1.36.18-.466.12-.953.307-1.46.56-.2.093-.373.127-.52.1a.667.667 0 0 1-.36-.24.98.98 0 0 1-.14-.42c0-.16.034-.313.1-.46a.7.7 0 0 1 .4-.32 7.185 7.185 0 0 1 1.74-.62 7.428 7.428 0 0 1 1.64-.2c.867 0 1.58.14 2.14.42.56.267.98.687 1.26 1.26.28.56.42 1.28.42 2.16v5.28c0 .307-.073.54-.22.7-.146.16-.36.24-.64.24-.266 0-.48-.08-.64-.24-.146-.16-.22-.393-.22-.7v-1.42h.18c-.106.493-.306.92-.6 1.28-.293.36-.66.64-1.1.84-.426.187-.913.28-1.46.28Zm11.167-.04c-.254 0-.474-.067-.66-.2-.187-.133-.347-.347-.48-.64l-3.4-7.92a1.187 1.187 0 0 1-.1-.62.703.703 0 0 1 .26-.46c.16-.12.373-.18.64-.18.226 0 .406.053.54.16.133.107.26.293.38.56l3.14 7.74h-.56l3.22-7.74c.106-.267.226-.453.36-.56.146-.107.346-.16.6-.16.226 0 .4.06.52.18.133.12.213.273.24.46.026.187-.014.387-.12.6l-3.42 7.94c-.12.293-.28.507-.48.64-.187.133-.414.2-.68.2Zm10.995.04c-1.053 0-1.96-.2-2.72-.6a4.365 4.365 0 0 1-1.74-1.74c-.413-.76-.62-1.653-.62-2.68 0-1.013.2-1.9.6-2.66a4.594 4.594 0 0 1 1.68-1.78c.72-.427 1.54-.64 2.46-.64.653 0 1.24.113 1.76.34.533.213.987.527 1.36.94.373.413.653.92.84 1.52.2.587.3 1.253.3 2 0 .213-.067.38-.2.5-.12.107-.3.16-.54.16h-6.84v-1.16h6.38l-.34.28c0-.693-.107-1.28-.32-1.76-.2-.493-.5-.867-.9-1.12-.387-.253-.873-.38-1.46-.38-.64 0-1.187.153-1.64.46-.453.293-.8.713-1.04 1.26-.24.533-.36 1.153-.36 1.86v.12c0 1.2.287 2.107.86 2.72s1.4.92 2.48.92a5.5 5.5 0 0 0 1.3-.16c.453-.107.887-.3 1.3-.58.2-.12.38-.173.54-.16.173 0 .313.053.42.16a.608.608 0 0 1 .2.36.748.748 0 0 1-.06.44.941.941 0 0 1-.38.42c-.44.307-.967.547-1.58.72-.6.16-1.18.24-1.74.24Zm12.878-.04c-.293 0-.52-.08-.68-.24-.16-.16-.24-.393-.24-.7v-7.54h-1.2c-.24 0-.426-.06-.56-.18a.705.705 0 0 1-.2-.52c0-.227.067-.4.2-.52.134-.12.32-.18.56-.18h1.7l-.5.48V27c0-1.293.314-2.273.94-2.94.64-.68 1.574-1.073 2.8-1.18l.62-.04c.2-.027.36.007.48.1.12.08.2.187.24.32a.75.75 0 0 1 0 .42.756.756 0 0 1-.18.36.522.522 0 0 1-.36.18l-.44.02c-.8.067-1.38.307-1.74.72-.36.4-.54 1-.54 1.8v.8l-.26-.3h2.3c.254 0 .447.06.58.18.134.12.2.293.2.52a.7.7 0 0 1-.2.52c-.133.12-.326.18-.58.18h-2.04v7.54c0 .627-.3.94-.9.94Zm8.797.04c-.786 0-1.446-.147-1.98-.44a2.7 2.7 0 0 1-1.16-1.3c-.253-.573-.38-1.293-.38-2.16v-5.24c0-.307.074-.533.22-.68.16-.16.387-.24.68-.24.294 0 .52.08.68.24.16.147.24.373.24.68v5.24c0 .827.167 1.44.5 1.84.334.387.86.58 1.58.58.8 0 1.447-.267 1.94-.8.507-.533.76-1.24.76-2.12v-4.74c0-.307.074-.533.22-.68.16-.16.387-.24.68-.24.294 0 .52.08.68.24.16.147.24.373.24.68v8.16c0 .627-.293.94-.88.94-.293 0-.52-.08-.68-.24-.146-.16-.22-.393-.22-.7v-1.74l.26.34c-.266.773-.7 1.367-1.3 1.78-.586.4-1.28.6-2.08.6Zm8.729-.04c-.28 0-.5-.08-.66-.24-.16-.16-.24-.393-.24-.7v-8.16c0-.307.08-.533.24-.68.16-.16.38-.24.66-.24s.493.08.64.24c.16.147.24.373.24.68v1.64l-.22-.3c.28-.76.733-1.333 1.36-1.72.64-.387 1.367-.58 2.18-.58.787 0 1.433.14 1.94.42.507.28.887.707 1.14 1.28.253.573.38 1.3.38 2.18v5.24c0 .307-.08.54-.24.7-.147.16-.367.24-.66.24-.293 0-.52-.08-.68-.24-.16-.16-.24-.393-.24-.7v-5.14c0-.867-.167-1.5-.5-1.9-.333-.4-.867-.6-1.6-.6-.853 0-1.54.267-2.06.8-.507.52-.76 1.227-.76 2.12v4.72c0 .627-.307.94-.92.94Z"
				fill="#414141" />
		</g>
		<defs>
			<filter id="ca" x="0" y="0" width="197" height="77" filterUnits="userSpaceOnUse"
				color-interpolation-filters="sRGB">
				<feFlood flood-opacity="0" result="BackgroundImageFix" />
				<feColorMatrix in="SourceAlpha" values="0 0 0 0 0 0 0 0 0 0 0 0 0 0 0 0 0 0 127 0" result="hardAlpha" />
				<feOffset dx="1" dy="1" />
				<feGaussianBlur stdDeviation="1.5" />
				<feColorMatrix values="0 0 0 0 0 0 0 0 0 0 0 0 0 0 0 0 0 0 0.05 0" />
				<feBlend in2="BackgroundImageFix" result="effect1_dropShadow_825_27200" />
				<feColorMatrix in="SourceAlpha" values="0 0 0 0 0 0 0 0 0 0 0 0 0 0 0 0 0 0 127 0" result="hardAlpha" />
				<feOffset dx="3" dy="3" />
				<feGaussianBlur stdDeviation="2.5" />
				<feColorMatrix values="0 0 0 0 0 0 0 0 0 0 0 0 0 0 0 0 0 0 0.04 0" />
				<feBlend in2="effect1_dropShadow_825_27200" result="effect2_dropShadow_825_27200" />
				<feColorMatrix in="SourceAlpha" values="0 0 0 0 0 0 0 0 0 0 0 0 0 0 0 0 0 0 127 0" result="hardAlpha" />
				<feOffset dx="8" dy="7" />
				<feGaussianBlur stdDeviation="3" />
				<feColorMatrix values="0 0 0 0 0 0 0 0 0 0 0 0 0 0 0 0 0 0 0.03 0" />
				<feBlend in2="effect2_dropShadow_825_27200" result="effect3_dropShadow_825_27200" />
				<feColorMatrix in="SourceAlpha" values="0 0 0 0 0 0 0 0 0 0 0 0 0 0 0 0 0 0 127 0" result="hardAlpha" />
				<feOffset dx="14" dy="12" />
				<feGaussianBlur stdDeviation="3.5" />
				<feColorMatrix values="0 0 0 0 0 0 0 0 0 0 0 0 0 0 0 0 0 0 0.01 0" />
				<feBlend in2="effect3_dropShadow_825_27200" result="effect4_dropShadow_825_27200" />
				<feBlend in="SourceGraphic" in2="effect4_dropShadow_825_27200" result="shape" />
			</filter>
		</defs>
	</svg>
	<view id="match-people" viewBox="0 78 238 77" /><svg width="238" height="77" fill="none" viewBox="0 0 238 77" y="78"
		xmlns="http://www.w3.org/2000/svg">
		<g filter="url(#da)">
			<rect x="2" y="2" width="215" height="56" rx="16" fill="#FBEFEF" />
			<rect x="2.5" y="2.5" width="214" height="55" rx="15.5" stroke="#EBADAD" stroke-dasharray="12 12" />
			<path
				d="M37.735 25.918s-5.747-.764-8.651 1.107c0 0 1.095 2.797 6.4 2.012-.001 0 1.157-2.375 2.251-3.119ZM46.568 25.918s5.747-.764 8.651 1.107c0 0-1.094 2.797-6.4 2.012.002 0-1.156-2.375-2.25-3.119Z"
				fill="#B73F39" />
			<path
				d="M48.45 28.056s2.193.315 3.41-.791c0 0-2.395-.734-4.137-.09l.727.88ZM35.676 28.079s-2.446.315-3.803-.791c0 0 2.67-.734 4.614-.09l-.81.88Z"
				fill="#E883A0" />
			<path
				d="M51.018 37.256c0 3.72-4.059 6.736-9.065 6.736-5.007 0-9.066-3.016-9.066-6.736 0-2.848 2.244-9.185 5.651-11.722 1.043-.776 2.404-.664 3.578-.664 1.154 0 2.703.038 3.705.792 3.345 2.518 5.197 8.732 5.197 11.594Z"
				fill="#B73F39" />
			<path
				d="M41.954 44.365c-2.501 0-4.857-.727-6.633-2.047-.874-.65-1.562-1.408-2.044-2.255a5.62 5.62 0 0 1-.761-2.808c0-1.551.605-3.899 1.579-6.126 1.15-2.629 2.649-4.722 4.223-5.893 1.028-.766 2.291-.753 3.407-.74l.393.002c1.343 0 2.866.067 3.93.867.822.62 1.6 1.482 2.31 2.565.623.949 1.183 2.047 1.664 3.263.846 2.135 1.371 4.459 1.371 6.063 0 .974-.256 1.92-.761 2.808-.483.846-1.17 1.605-2.046 2.254-1.776 1.32-4.131 2.047-6.632 2.047ZM41.3 25.237c-.912 0-1.821.062-2.538.596-1.471 1.096-2.886 3.083-3.985 5.595-.921 2.109-1.517 4.395-1.517 5.828 0 3.51 3.9 6.364 8.694 6.364 4.794 0 8.693-2.855 8.693-6.364 0-1.494-.517-3.766-1.317-5.789-.982-2.479-2.307-4.435-3.731-5.507-.88-.662-2.258-.718-3.482-.718-.132 0-.268 0-.4-.002-.139-.002-.277-.003-.417-.003Z"
				fill="#861A3F" />
			<path
				d="M50.208 39.547c-1.624 2.263-4.014 4.08-8.49 4.08-4.477 0-7.474-2.779-8.045-4.25-.97-2.497 8.28-4.884 8.28-4.884s9.818 2.878 8.255 5.054Z"
				fill="#FFEAE8" />
			<path
				d="M41.717 43.642c-2.495 0-4.365-.857-5.495-1.576a8.646 8.646 0 0 1-1.692-1.394c-.412-.448-.722-.905-.87-1.29-.115-.297-.092-.607.07-.923.568-1.108 2.773-2.13 4.524-2.794 1.894-.718 3.678-1.18 3.695-1.185h.008c.019.005 1.942.572 3.926 1.378 2.666 1.084 4.166 2.063 4.456 2.906a.826.826 0 0 1-.12.79l-.011-.007.011.008c-.924 1.288-1.965 2.234-3.18 2.893-1.482.803-3.222 1.194-5.322 1.194Zm.236-9.134c-.094.024-1.839.482-3.69 1.184-1.745.661-3.944 1.68-4.508 2.778-.158.309-.181.612-.069.9.398 1.025 1.623 2.079 2.552 2.67a10.168 10.168 0 0 0 5.48 1.572c2.094 0 3.83-.39 5.307-1.19 1.212-.658 2.25-1.601 3.171-2.885a.802.802 0 0 0 .116-.765c-.358-1.041-2.611-2.146-4.44-2.889a47.443 47.443 0 0 0-3.92-1.375Z"
				fill="#861A3F" />
			<path d="M47.965 37.146S47.1 41.893 42 43.616c0 0 5.593.45 8.336-4.32l-2.37-2.15Z" fill="#FFDDE8" />
			<path
				d="m33.577 39.45-.542-.512c.035-.036.862-.908 2.152-1.918 1.74-1.364 3.412-2.277 4.968-2.716l.202.716c-3.5.988-6.748 4.395-6.78 4.43Z"
				fill="#861A3F" />
			<path
				d="M43.65 34.634c0 .613-1.696 1.11-1.696 1.11s-1.696-.497-1.696-1.11c0-.613.759-1.11 1.696-1.11.936 0 1.695.497 1.695 1.11Z"
				fill="#E20613" />
			<path
				d="m41.952 36.132-.105-.031a6.899 6.899 0 0 1-.902-.346c-.714-.338-1.06-.705-1.06-1.121 0-.83.908-1.483 2.068-1.483 1.16 0 2.068.651 2.068 1.483 0 .416-.347.783-1.06 1.121a6.867 6.867 0 0 1-.903.346l-.106.03ZM40.63 34.63c.007.018.088.2.678.472.21.096.426.18.645.251.22-.071.435-.155.645-.25.59-.273.672-.455.678-.474-.003-.348-.547-.733-1.323-.733-.775 0-1.319.385-1.323.733Z"
				fill="#861A3F" />
			<path
				d="M40.162 40.414c-.884 0-1.676-.611-1.992-1.551l-.153-.456a.375.375 0 0 1 .109-.4.372.372 0 0 1 .598.162l.152.455c.22.656.762 1.074 1.35 1.043l.568-.029c.44-.024.786-.466.786-1.008v-2.886a.372.372 0 1 1 .745 0v2.885c0 .937-.655 1.706-1.49 1.752l-.568.03-.105.003Z"
				fill="#861A3F" />
			<path
				d="M43.742 40.414c-.035 0-.07 0-.105-.003l-.567-.03c-.836-.046-1.49-.815-1.49-1.752v-2.885a.372.372 0 1 1 .745 0v2.885c0 .541.345.984.786 1.008l.567.03c.588.032 1.13-.387 1.35-1.043l.153-.454a.373.373 0 0 1 .706.237l-.151.456c-.318.94-1.11 1.551-1.994 1.551ZM45.69 25.943a.373.373 0 0 1-.263-.636l9.53-9.562a.371.371 0 0 1 .642.26.373.373 0 0 1-.115.266l-9.53 9.562a.374.374 0 0 1-.263.11Z"
				fill="#861A3F" />
			<path
				d="M50.181 21.436a.373.373 0 0 1-.368-.32l-.625-4.426a.373.373 0 0 1 .692-.244c.024.043.04.09.046.14l.624 4.426a.374.374 0 0 1-.369.424Z"
				fill="#861A3F" />
			<path
				d="M49.783 18.607a.372.372 0 0 1-.257-.642l1.4-1.335a.372.372 0 1 1 .514.54l-1.4 1.334a.372.372 0 0 1-.257.103ZM52.127 23.064H48.56a.372.372 0 0 1 0-.744h3.412l3.456-3.506a.372.372 0 1 1 .53.523l-3.566 3.616a.371.371 0 0 1-.265.111ZM38.308 25.942a.373.373 0 0 1-.264-.11l-9.53-9.561a.373.373 0 0 1 .528-.526l9.53 9.562a.372.372 0 0 1-.264.636Z"
				fill="#861A3F" />
			<path
				d="M33.817 21.436a.372.372 0 0 1-.37-.425l.625-4.425a.373.373 0 1 1 .738.104l-.625 4.426a.372.372 0 0 1-.368.32Z"
				fill="#861A3F" />
			<path
				d="M34.216 18.607a.373.373 0 0 1-.258-.103l-1.399-1.335a.373.373 0 1 1 .514-.539l1.4 1.335a.373.373 0 0 1-.258.642ZM35.44 23.064h-3.568a.37.37 0 0 1-.265-.11l-3.566-3.617a.373.373 0 0 1 .53-.523l3.457 3.506h3.411a.372.372 0 1 1 0 .744ZM55.325 27.314a.372.372 0 0 1-.193-.054c-1.96-1.189-4.365-1.461-6.038-1.48-1.825-.021-3.187.245-3.2.248a.373.373 0 1 1-.145-.73c.057-.012 1.452-.285 3.353-.263 1.12.013 2.182.126 3.158.336 1.23.265 2.326.687 3.258 1.252a.372.372 0 0 1-.193.691Z"
				fill="#861A3F" />
			<path
				d="M49.954 29.83c-.721 0-1.207-.08-1.238-.086a.373.373 0 1 1 .123-.735c.01.002 1.107.18 2.42-.023 1.716-.264 2.978-1.019 3.751-2.245a.372.372 0 0 1 .63.398c-.885 1.403-2.368 2.297-4.29 2.587-.462.07-.929.104-1.396.104Z"
				fill="#861A3F" />
			<path
				d="M48.543 28.836c-.099 0-.199-.002-.3-.004a.373.373 0 0 1 .018-.745c2.014.048 3.083-.434 3.593-.79-2.305-.612-4.54-.057-4.564-.05a.372.372 0 1 1-.185-.722c.117-.029 2.88-.716 5.59.255a.374.374 0 0 1 .191.546c-.029.046-.292.45-1.01.83-.856.451-1.976.68-3.333.68ZM28.555 27.314a.373.373 0 0 1-.194-.69c.932-.567 2.03-.988 3.26-1.253.975-.21 2.037-.323 3.156-.336 1.901-.022 3.296.25 3.354.262a.37.37 0 0 1 .298.44.374.374 0 0 1-.443.29c-.014-.002-1.39-.269-3.217-.247-1.668.02-4.067.294-6.021 1.48a.37.37 0 0 1-.193.054Z"
				fill="#861A3F" />
			<path
				d="M33.925 29.83c-.467 0-.933-.034-1.395-.103-1.922-.29-3.406-1.185-4.291-2.587a.372.372 0 1 1 .63-.397c.774 1.225 2.036 1.98 3.753 2.245 1.313.202 2.41.024 2.42.023a.372.372 0 0 1 .123.734c-.032.005-.519.085-1.24.085Z"
				fill="#861A3F" />
			<path
				d="M35.338 28.836c-1.357 0-2.476-.23-3.332-.68-.716-.38-.983-.784-1.01-.83a.374.374 0 0 1 .188-.546c2.71-.97 5.474-.285 5.59-.255a.373.373 0 0 1-.184.722c-.029-.007-2.268-.559-4.565.052.124.086.255.163.391.23.55.277 1.553.599 3.204.559a.372.372 0 1 1 .018.744 13.28 13.28 0 0 1-.3.004Z"
				fill="#861A3F" />
			<path
				d="M45.977 33.076c.34-.339.302-.925-.082-1.31-.385-.384-.971-.421-1.31-.082-.34.339-.303.925.082 1.31.384.385.971.421 1.31.082Z"
				fill="#000" />
			<path
				d="M45.397 33.68a1.448 1.448 0 0 1-1.415-1.335 1.182 1.182 0 0 1 .339-.924c.24-.241.569-.361.924-.339a1.453 1.453 0 0 1 1.333 1.333 1.18 1.18 0 0 1-.338.925 1.178 1.178 0 0 1-.843.34Zm-.234-1.856a.438.438 0 0 0-.315.123.445.445 0 0 0-.122.351.677.677 0 0 0 .204.432c.239.24.59.276.784.083a.447.447 0 0 0 .121-.352.708.708 0 0 0-.672-.637ZM38.985 32.994c.384-.384.42-.97.082-1.31-.34-.34-.926-.302-1.31.082-.385.385-.422.971-.082 1.31.339.34.925.303 1.31-.082Z"
				fill="#000" />
			<path
				d="M38.255 33.68a1.18 1.18 0 0 1-.843-.34c-.483-.484-.447-1.308.083-1.837.529-.529 1.353-.566 1.836-.082.484.483.447 1.308-.082 1.837-.263.267-.62.418-.994.422Zm-.315-.867c.193.194.544.157.783-.082.24-.239.276-.59.083-.783-.193-.193-.545-.157-.784.082s-.277.59-.083.783Z"
				fill="#000" />
			<path
				d="M50.313 39.615c-.008-.009-.78-.93-2.001-1.958-1.116-.94-2.847-2.164-4.757-2.664l.188-.721c2.05.537 3.884 1.833 5.06 2.825 1.269 1.07 2.05 2.003 2.082 2.042l-.572.476Z"
				fill="#861A3F" />
			<path
				d="M42.918 25.149s4.05 4.808 4.995 8.896c0 0 .327 1.438.266 2.536l2.274 2.083s.802-3.402-.077-5.139c-.879-1.736-2.315-6.8-5.173-8.117l-2.285-.26Z"
				fill="#9B2A39" />
			<path
				d="M41.954 44.365c-2.501 0-4.857-.727-6.633-2.047-.874-.65-1.562-1.408-2.044-2.255a5.62 5.62 0 0 1-.761-2.808c0-1.551.605-3.899 1.579-6.126 1.15-2.629 2.649-4.722 4.223-5.893 1.028-.766 2.291-.753 3.407-.74l.393.002c1.343 0 2.866.067 3.93.867.822.62 1.6 1.482 2.31 2.565.623.949 1.183 2.047 1.664 3.263.846 2.135 1.371 4.459 1.371 6.063 0 .974-.256 1.92-.761 2.808-.483.846-1.17 1.605-2.046 2.254-1.776 1.32-4.131 2.047-6.632 2.047ZM41.3 25.237c-.912 0-1.821.062-2.538.596-1.471 1.096-2.886 3.083-3.985 5.595-.921 2.109-1.517 4.395-1.517 5.828 0 3.51 3.9 6.364 8.694 6.364 4.794 0 8.693-2.855 8.693-6.364 0-1.494-.517-3.766-1.317-5.789-.982-2.479-2.307-4.435-3.731-5.507-.88-.662-2.258-.718-3.482-.718-.132 0-.268 0-.4-.002-.139-.002-.277-.003-.417-.003Z"
				fill="#861A3F" />
			<path
				d="M45.996 32.342c.12-.13.072-.369-.108-.535-.18-.166-.422-.196-.542-.067-.12.13-.071.37.108.536.18.166.422.196.542.066ZM45.154 33.262c.062-.067.037-.19-.056-.277-.093-.086-.219-.102-.28-.035-.063.067-.037.192.056.278.092.086.218.101.28.034ZM39.272 32.24c.12-.13.071-.37-.109-.536-.18-.166-.422-.196-.542-.066-.12.13-.071.369.108.535.18.166.423.196.543.067ZM42.953 34.518c.04-.125-.169-.3-.464-.392-.295-.092-.565-.065-.604.06-.039.125.169.3.464.393.295.091.565.064.604-.06ZM38.43 33.16c.062-.067.036-.191-.057-.277-.093-.087-.218-.102-.28-.035-.062.067-.037.191.056.277.093.086.218.102.28.035Z"
				fill="#FFEAE8" />
			<path
				d="M72.674 37.14c-.267 0-.474-.08-.62-.24-.147-.16-.22-.373-.22-.64V23.64c0-.28.073-.493.22-.64.16-.16.373-.24.64-.24.24 0 .426.047.56.14.146.093.28.253.4.48l5.36 10.06h-.62l5.36-10.06c.12-.227.246-.387.38-.48.133-.093.32-.14.56-.14.266 0 .473.08.62.24.146.147.22.36.22.64v12.62c0 .267-.074.48-.22.64-.134.16-.34.24-.62.24-.28 0-.494-.08-.64-.24-.134-.16-.2-.373-.2-.64V25.48h.44l-4.8 8.98c-.107.173-.22.307-.34.4-.107.08-.26.12-.46.12a.816.816 0 0 1-.48-.14 1.306 1.306 0 0 1-.32-.38l-4.86-9h.48v10.8c0 .267-.074.48-.22.64-.134.16-.34.24-.62.24Zm19.148.04a4.095 4.095 0 0 1-1.82-.4 3.227 3.227 0 0 1-1.26-1.08 2.738 2.738 0 0 1-.44-1.52c0-.72.18-1.287.54-1.7.36-.413.966-.707 1.82-.88.853-.187 2-.28 3.44-.28h.94v1.16h-.9c-1.027 0-1.84.047-2.44.14-.587.093-1 .26-1.24.5-.24.227-.36.547-.36.96 0 .52.18.947.54 1.28.373.333.88.5 1.52.5.506 0 .953-.12 1.34-.36.386-.253.693-.587.92-1 .226-.427.34-.913.34-1.46v-2.3c0-.787-.16-1.353-.48-1.7-.32-.36-.86-.54-1.62-.54-.44 0-.894.06-1.36.18-.467.12-.954.307-1.46.56-.2.093-.374.127-.52.1a.668.668 0 0 1-.36-.24.982.982 0 0 1-.14-.42c0-.16.033-.313.1-.46a.7.7 0 0 1 .4-.32 7.188 7.188 0 0 1 1.74-.62 7.43 7.43 0 0 1 1.64-.2c.866 0 1.58.14 2.14.42.56.267.98.687 1.26 1.26.28.56.42 1.28.42 2.16v5.28c0 .307-.074.54-.22.7-.147.16-.36.24-.64.24-.267 0-.48-.08-.64-.24-.147-.16-.22-.393-.22-.7v-1.42h.18c-.107.493-.307.92-.6 1.28-.294.36-.66.64-1.1.84-.427.187-.914.28-1.46.28Zm11.604 0c-.787 0-1.447-.14-1.98-.42a2.745 2.745 0 0 1-1.18-1.22c-.254-.533-.38-1.187-.38-1.96v-4.92h-1.28c-.24 0-.427-.06-.56-.18a.703.703 0 0 1-.2-.52c0-.227.066-.4.2-.52.133-.12.32-.18.56-.18h1.28v-2.18c0-.307.08-.533.24-.68.16-.16.386-.24.68-.24.293 0 .513.08.66.24.16.147.24.373.24.68v2.18h2.42c.253 0 .446.06.58.18.133.12.2.293.2.52a.705.705 0 0 1-.2.52c-.134.12-.327.18-.58.18h-2.42v4.76c0 .733.153 1.287.46 1.66.306.373.813.56 1.52.56.253 0 .466-.02.64-.06.173-.053.326-.08.46-.08.12-.013.22.027.3.12.093.093.14.267.14.52 0 .187-.034.36-.1.52a.488.488 0 0 1-.34.3c-.16.053-.374.1-.64.14-.267.053-.507.08-.72.08Zm7.25 0c-.987 0-1.84-.207-2.56-.62a4.282 4.282 0 0 1-1.66-1.78c-.387-.773-.58-1.68-.58-2.72 0-.773.107-1.467.32-2.08a4.41 4.41 0 0 1 .96-1.56c.413-.44.913-.773 1.5-1 .6-.227 1.273-.34 2.02-.34.467 0 .96.073 1.48.22a4.3 4.3 0 0 1 1.44.72c.147.107.24.233.28.38a.75.75 0 0 1 0 .42.704.704 0 0 1-.2.38.585.585 0 0 1-.38.16c-.147.013-.307-.033-.48-.14-.32-.24-.66-.413-1.02-.52a3.397 3.397 0 0 0-1-.16c-.493 0-.933.08-1.32.24-.373.16-.693.393-.96.7a2.98 2.98 0 0 0-.58 1.1c-.133.427-.2.927-.2 1.5 0 1.133.267 2.027.8 2.68.533.64 1.287.96 2.26.96.32 0 .653-.047 1-.14.347-.107.687-.28 1.02-.52.173-.107.333-.147.48-.12a.522.522 0 0 1 .36.18.608.608 0 0 1 .2.36.77.77 0 0 1-.04.42.613.613 0 0 1-.28.36c-.427.32-.893.553-1.4.7-.507.147-.993.22-1.46.22Zm5.977-.04c-.28 0-.5-.08-.66-.24-.16-.16-.24-.393-.24-.7V23.68c0-.307.08-.533.24-.68.16-.16.38-.24.66-.24.293 0 .52.08.68.24.16.147.24.373.24.68v5.7h-.26c.28-.76.733-1.333 1.36-1.72.64-.387 1.367-.58 2.18-.58.787 0 1.433.147 1.94.44.507.28.887.707 1.14 1.28.253.573.38 1.293.38 2.16v5.24c0 .307-.08.54-.24.7-.147.16-.367.24-.66.24-.293 0-.52-.08-.68-.24-.16-.16-.24-.393-.24-.7v-5.14c0-.867-.167-1.5-.5-1.9-.333-.4-.867-.6-1.6-.6-.853 0-1.54.267-2.06.8-.507.52-.76 1.227-.76 2.12v4.72c0 .627-.307.94-.92.94Zm16.66 3.6c-.28 0-.5-.08-.66-.24-.16-.16-.24-.387-.24-.68V28.04c0-.307.08-.533.24-.68.16-.16.38-.24.66-.24.293 0 .513.08.66.24.16.147.24.373.24.68v1.82l-.22-.36a3.173 3.173 0 0 1 1.26-1.76c.627-.44 1.38-.66 2.26-.66.867 0 1.62.207 2.26.62.64.4 1.14.98 1.5 1.74.36.747.54 1.64.54 2.68 0 1.027-.18 1.927-.54 2.7-.347.76-.847 1.347-1.5 1.76-.64.4-1.393.6-2.26.6-.867 0-1.613-.22-2.24-.66a3.173 3.173 0 0 1-1.26-1.74h.22v5.04c0 .293-.08.52-.24.68-.16.16-.387.24-.68.24Zm3.78-5c.573 0 1.073-.14 1.5-.42.44-.28.78-.687 1.02-1.22.24-.533.36-1.193.36-1.98 0-1.173-.26-2.067-.78-2.68s-1.22-.92-2.1-.92c-.587 0-1.1.14-1.54.42-.427.267-.76.667-1 1.2-.227.533-.34 1.193-.34 1.98 0 1.173.26 2.073.78 2.7.52.613 1.22.92 2.1.92Zm11.558 1.44c-1.053 0-1.96-.2-2.72-.6a4.378 4.378 0 0 1-1.74-1.74c-.413-.76-.62-1.653-.62-2.68 0-1.013.2-1.9.6-2.66a4.609 4.609 0 0 1 1.68-1.78c.72-.427 1.54-.64 2.46-.64.654 0 1.24.113 1.76.34.534.213.987.527 1.36.94.374.413.654.92.84 1.52.2.587.3 1.253.3 2 0 .213-.066.38-.2.5-.12.107-.3.16-.54.16h-6.84v-1.16h6.38l-.34.28c0-.693-.106-1.28-.32-1.76-.2-.493-.5-.867-.9-1.12-.386-.253-.873-.38-1.46-.38-.64 0-1.186.153-1.64.46-.453.293-.8.713-1.04 1.26-.24.533-.36 1.153-.36 1.86v.12c0 1.2.287 2.107.86 2.72.574.613 1.4.92 2.48.92a5.5 5.5 0 0 0 1.3-.16c.454-.107.887-.3 1.3-.58.2-.12.38-.173.54-.16.174 0 .314.053.42.16a.602.602 0 0 1 .2.36.748.748 0 0 1-.06.44.935.935 0 0 1-.38.42c-.44.307-.966.547-1.58.72-.6.16-1.18.24-1.74.24Zm10.324 0c-.96 0-1.793-.207-2.5-.62a4.188 4.188 0 0 1-1.64-1.76c-.387-.76-.58-1.653-.58-2.68 0-.773.107-1.467.32-2.08.227-.627.547-1.16.96-1.6.413-.44.907-.773 1.48-1 .587-.24 1.24-.36 1.96-.36.96 0 1.793.207 2.5.62.707.413 1.253 1 1.64 1.76.387.747.58 1.633.58 2.66 0 .773-.113 1.473-.34 2.1a4.347 4.347 0 0 1-.94 1.6c-.413.44-.913.78-1.5 1.02-.573.227-1.22.34-1.94.34Zm0-1.44c.587 0 1.093-.14 1.52-.42.44-.28.773-.687 1-1.22.24-.533.36-1.193.36-1.98 0-1.173-.26-2.067-.78-2.68s-1.22-.92-2.1-.92c-.573 0-1.08.14-1.52.42-.427.267-.76.667-1 1.2-.24.533-.36 1.193-.36 1.98 0 1.173.26 2.073.78 2.7.533.613 1.233.92 2.1.92Zm7.951 5c-.28 0-.5-.08-.66-.24-.16-.16-.24-.387-.24-.68V28.04c0-.307.08-.533.24-.68.16-.16.38-.24.66-.24.294 0 .514.08.66.24.16.147.24.373.24.68v1.82l-.22-.36a3.183 3.183 0 0 1 1.26-1.76c.627-.44 1.38-.66 2.26-.66.867 0 1.62.207 2.26.62.64.4 1.14.98 1.5 1.74.36.747.54 1.64.54 2.68 0 1.027-.18 1.927-.54 2.7-.346.76-.846 1.347-1.5 1.76-.64.4-1.393.6-2.26.6-.866 0-1.613-.22-2.24-.66a3.183 3.183 0 0 1-1.26-1.74h.22v5.04c0 .293-.08.52-.24.68-.16.16-.386.24-.68.24Zm3.78-5c.574 0 1.074-.14 1.5-.42.44-.28.78-.687 1.02-1.22.24-.533.36-1.193.36-1.98 0-1.173-.26-2.067-.78-2.68s-1.22-.92-2.1-.92c-.586 0-1.1.14-1.54.42-.426.267-.76.667-1 1.2-.226.533-.34 1.193-.34 1.98 0 1.173.26 2.073.78 2.7.52.613 1.22.92 2.1.92Zm10.119 1.44c-1 0-1.76-.293-2.28-.88-.52-.6-.78-1.46-.78-2.58V23.68c0-.307.08-.533.24-.68.16-.16.38-.24.66-.24.293 0 .52.08.68.24.16.147.24.373.24.68v9.9c0 .693.14 1.213.42 1.56.293.333.706.5 1.24.5h.32l.28-.04c.146-.013.253.027.32.12.066.093.1.28.1.56 0 .253-.06.453-.18.6-.107.133-.287.22-.54.26-.12.013-.24.02-.36.02-.12.013-.24.02-.36.02Zm7.358 0c-1.054 0-1.96-.2-2.72-.6a4.365 4.365 0 0 1-1.74-1.74c-.414-.76-.62-1.653-.62-2.68 0-1.013.2-1.9.6-2.66a4.594 4.594 0 0 1 1.68-1.78c.72-.427 1.54-.64 2.46-.64.653 0 1.24.113 1.76.34.533.213.986.527 1.36.94.373.413.653.92.84 1.52.2.587.3 1.253.3 2 0 .213-.067.38-.2.5-.12.107-.3.16-.54.16h-6.84v-1.16h6.38l-.34.28c0-.693-.107-1.28-.32-1.76-.2-.493-.5-.867-.9-1.12-.387-.253-.874-.38-1.46-.38-.64 0-1.187.153-1.64.46-.454.293-.8.713-1.04 1.26-.24.533-.36 1.153-.36 1.86v.12c0 1.2.286 2.107.86 2.72.573.613 1.4.92 2.48.92.426 0 .86-.053 1.3-.16a3.91 3.91 0 0 0 1.3-.58c.2-.12.38-.173.54-.16.173 0 .313.053.42.16a.613.613 0 0 1 .2.36.764.764 0 0 1-.06.44.947.947 0 0 1-.38.42c-.44.307-.967.547-1.58.72-.6.16-1.18.24-1.74.24Z"
				fill="#414141" />
		</g>
		<defs>
			<filter id="da" x="0" y="0" width="238" height="77" filterUnits="userSpaceOnUse"
				color-interpolation-filters="sRGB">
				<feFlood flood-opacity="0" result="BackgroundImageFix" />
				<feColorMatrix in="SourceAlpha" values="0 0 0 0 0 0 0 0 0 0 0 0 0 0 0 0 0 0 127 0" result="hardAlpha" />
				<feOffset dx="1" dy="1" />
				<feGaussianBlur stdDeviation="1.5" />
				<feColorMatrix values="0 0 0 0 0 0 0 0 0 0 0 0 0 0 0 0 0 0 0.05 0" />
				<feBlend in2="BackgroundImageFix" result="effect1_dropShadow_478_7584" />
				<feColorMatrix in="SourceAlpha" values="0 0 0 0 0 0 0 0 0 0 0 0 0 0 0 0 0 0 127 0" result="hardAlpha" />
				<feOffset dx="3" dy="3" />
				<feGaussianBlur stdDeviation="2.5" />
				<feColorMatrix values="0 0 0 0 0 0 0 0 0 0 0 0 0 0 0 0 0 0 0.04 0" />
				<feBlend in2="effect1_dropShadow_478_7584" result="effect2_dropShadow_478_7584" />
				<feColorMatrix in="SourceAlpha" values="0 0 0 0 0 0 0 0 0 0 0 0 0 0 0 0 0 0 127 0" result="hardAlpha" />
				<feOffset dx="8" dy="7" />
				<feGaussianBlur stdDeviation="3" />
				<feColorMatrix values="0 0 0 0 0 0 0 0 0 0 0 0 0 0 0 0 0 0 0.03 0" />
				<feBlend in2="effect2_dropShadow_478_7584" result="effect3_dropShadow_478_7584" />
				<feColorMatrix in="SourceAlpha" values="0 0 0 0 0 0 0 0 0 0 0 0 0 0 0 0 0 0 127 0" result="hardAlpha" />
				<feOffset dx="14" dy="12" />
				<feGaussianBlur stdDeviation="3.5" />
				<feColorMatrix values="0 0 0 0 0 0 0 0 0 0 0 0 0 0 0 0 0 0 0.01 0" />
				<feBlend in2="effect3_dropShadow_478_7584" result="effect4_dropShadow_478_7584" />
				<feBlend in="SourceGraphic" in2="effect4_dropShadow_478_7584" result="shape" />
			</filter>
		</defs>
	</svg>
	<view id="present" viewBox="437 0 86 86" /><svg width="86" height="86" fill="none" viewBox="0 0 86 86" x="437"
		xmlns="http://www.w3.org/2000/svg">
		<path d="M77.938 36.281H8.061V81.97h69.876V36.28Z" fill="#7EA82D" />
		<path d="M77.938 36.281H8.061v5.375h69.876v-5.375Z" fill="#729C22" />
		<path d="M81.969 20.156H4.03v16.125H81.97V20.156Z" fill="#7EA82D" />
		<path
			d="M51.063 20.156H34.936V81.97h16.126V20.156ZM37.165 8.488a8.062 8.062 0 0 0-7.21-4.457H18.813a8.062 8.062 0 0 0 0 16.125H43L37.165 8.488Z"
			fill="#DD4A43" />
		<path d="M43 20.156H29.562a8.062 8.062 0 1 1 0-16.125h.393a8.062 8.062 0 0 1 7.21 4.457L43 20.156Z"
			fill="#B0342E" />
		<path d="M48.835 8.488a8.062 8.062 0 0 1 7.21-4.457h11.142a8.062 8.062 0 0 1 0 16.125H43l5.835-11.668Z"
			fill="#DD4A43" />
		<path d="M43 20.156h13.438a8.062 8.062 0 1 0 0-16.125h-.393a8.062 8.062 0 0 0-7.21 4.457L43 20.156Z"
			fill="#B0342E" />
		<path d="M51.063 48.375V20.156H34.936V49.72L43 29.562l8.063 18.813Z" fill="#D13E37" />
		<path
			d="m28.219 56.438-5.375-6.72-9.407 2.688 13.438-32.25H43L28.219 56.438ZM57.781 56.438l5.375-6.72 9.407 2.688-13.438-32.25H43l14.781 36.282Z"
			fill="#DD4A43" />
		<path
			d="m26.291 31.776-4.738 12.059 2.501.983 4.739-12.059-2.502-.983ZM28.307 26.392l-1.034 2.688 2.509.964 1.033-2.688-2.508-.964Z"
			fill="#E66B65" />
		<path d="M14.781 65.844h-2.687v12.094h2.687V65.844ZM14.781 60.469h-2.687v2.687h2.687V60.47Z" fill="#95C43B" />
	</svg>
	<view id="presents" viewBox="324 232 96 96" /><svg width="96" height="96" fill="none" viewBox="0 0 96 96" x="324"
		y="232" xmlns="http://www.w3.org/2000/svg">
		<path
			d="M91.5 81.541a3.963 3.963 0 0 0-1.596-3.177L85.5 75.091V43.5a24 24 0 0 0-24-24l6-12.812-3-1.486a6.75 6.75 0 0 0-6 0 6.75 6.75 0 0 1-6 0 6.75 6.75 0 0 0-6 0l-3 1.486 6 12.812a24 24 0 0 0-24 24V75l-4.428 3.358a3.979 3.979 0 0 0-.408 5.978 3.973 3.973 0 0 0 2.811 1.164h64.066A3.96 3.96 0 0 0 91.5 81.54Z"
			fill="#DD4A43" />
		<path
			d="M89.903 78.364 85.5 75.091V43.5a23.912 23.912 0 0 0-7.536-17.432C71.414 59.967 46.636 77.4 31.037 85.5h56.504a3.959 3.959 0 0 0 2.362-7.136Z"
			fill="#D13E37" />
		<path d="M61.5 21h-12a1.5 1.5 0 1 1 0-3h12a1.5 1.5 0 1 1 0 3Z" fill="#7A4321" />
		<path
			d="m53.536 36.828-.116-.176a14.473 14.473 0 0 1 1.8-18.213 1.5 1.5 0 0 1 2.567 1.06 14.04 14.04 0 0 0 7.059 12.164l2.685 1.535-1.488 2.605-2.685-1.534a17.052 17.052 0 0 1-8.1-10.824 11.477 11.477 0 0 0 .666 11.55l.118.18-2.506 1.653Z"
			fill="#7A4321" />
		<path d="M43.5 67.5v24h-36v-24M46.5 58.5h-42v9h42v-9Z" fill="#7EA82D" />
		<path d="m16.5 46.5 9 12H15L9 51h6l1.5-4.5Z" fill="#D13E37" />
		<path d="m34.5 46.5-9 12H36l6-7.5h-6l-1.5-4.5Z" fill="#B5362F" />
		<path d="M43.5 67.5h-36V72h36v-4.5Z" fill="#729C22" />
		<path d="M30 58.5h-9v33h9v-33Z" fill="#DD4A43" />
		<path
			d="m33.522 39.375-2.907-.75a19.433 19.433 0 0 1 5.987-9.75l1.987 2.25a16.414 16.414 0 0 0-5.067 8.25ZM40.38 29.748l-1.661-2.498a19.421 19.421 0 0 1 2.982-1.624l1.2 2.748c-.88.383-1.723.843-2.522 1.374Z"
			fill="#E66B65" />
		<path d="M15 78h-3v9h3v-9ZM15 72h-3v3h3v-3Z" fill="#95C43B" />
	</svg>
	<view id="share-wishes" viewBox="0 155 236 77" /><svg width="236" height="77" fill="none" viewBox="0 0 236 77" y="155"
		xmlns="http://www.w3.org/2000/svg">
		<g filter="url(#ga)">
			<rect x="2" y="2" width="213" height="56" rx="16" fill="#FBEFEF" />
			<rect x="2.5" y="2.5" width="212" height="55" rx="15.5" stroke="#EBADAD" stroke-dasharray="12 12" />
			<path d="M34.781 28.094s8.259-9.207 19.594-7.08l-1.517 2.804C41.99 22.662 36.037 29.38 36.037 29.38"
				fill="#F3970D" />
			<path d="M38.99 32.242s5.589-5.64 14.1-5.082l2.559-1.876-2.79-1.466s-11.022-.803-16.59 5.587l2.722 2.837Z"
				fill="#FA6F00" />
			<path
				d="M38.99 32.614h-.003a.373.373 0 0 1-.266-.115l-2.72-2.836a.373.373 0 0 1-.013-.502c1.305-1.499 3.01-2.731 5.068-3.664 1.636-.742 3.497-1.296 5.532-1.65 3.456-.598 6.183-.41 6.297-.4.051.004.101.018.146.042l2.79 1.466a.373.373 0 0 1 .047.63L53.31 27.46a.372.372 0 0 1-.245.071 17.788 17.788 0 0 0-5.659.543c-1.517.399-2.98.98-4.356 1.731-1.914 1.04-3.32 2.22-3.795 2.7a.372.372 0 0 1-.265.108Zm-2.212-3.217 2.226 2.32c.528-.478 1.79-1.531 3.666-2.553a20.178 20.178 0 0 1 4.532-1.805 18.533 18.533 0 0 1 5.776-.578l1.97-1.445-2.191-1.151c-.463-.026-3-.132-6.059.4-1.97.342-3.768.878-5.344 1.594-1.836.835-3.375 1.915-4.576 3.218Z"
				fill="#FA6F00" />
			<path
				d="M40.404 29.543a.458.458 0 0 0-.466-.676l-3.666.538a.458.458 0 0 1-.401-.142l-2.083-2.243-.44-.473a.643.643 0 0 0-.077-.067.437.437 0 0 0-.086-.046.458.458 0 0 0-.582.219l-.013.028a.474.474 0 0 0-.029.1l-.621 3.655a.459.459 0 0 1-.258.338l-3.363 1.56a.458.458 0 0 0-.02.82l3.282 1.72a.459.459 0 0 1 .242.351l.443 3.678a.458.458 0 0 0 .774.273l2.65-2.59a.459.459 0 0 1 .409-.122l3.636.716a.458.458 0 0 0 .499-.652l-1.645-3.321a.46.46 0 0 1 .011-.426l1.804-3.238Z"
				fill="#F3B427" />
			<path d="M53.091 27.16s-8.771.75-14.099 5.41l.463 1.716s6.715-5.193 16.494-4.158l-2.858-2.968Z" fill="#F3970D" />
			<path
				d="M39.454 34.658a.372.372 0 0 1-.36-.276l-.462-1.716a.373.373 0 0 1 .114-.377c1.242-1.087 2.77-2.052 4.54-2.869a29.32 29.32 0 0 1 4.656-1.661c2.858-.77 5.026-.961 5.117-.97a.371.371 0 0 1 .299.113l2.859 2.968a.372.372 0 0 1-.307.628c-2.2-.232-4.421-.16-6.601.21-1.76.302-3.48.79-5.136 1.457-2.82 1.136-4.475 2.403-4.49 2.415a.372.372 0 0 1-.229.078Zm-.042-1.96.263.974c.687-.464 2.14-1.36 4.22-2.199a25.73 25.73 0 0 1 5.288-1.5 24.933 24.933 0 0 1 5.81-.302l-2.045-2.122c-.571.062-2.483.3-4.826.932a28.701 28.701 0 0 0-4.532 1.62c-1.619.747-3.023 1.62-4.178 2.597ZM28.39 32.422l4.42 1.296a.12.12 0 0 1 .087.107l.21 3.26a.12.12 0 0 0 .112.112.12.12 0 0 0 .056-.01l1.874-.817a.12.12 0 0 1 .133.195l-2.333 2.349a.118.118 0 0 1-.096.035l-.521-.048a.12.12 0 0 1-.108-.106l-.416-3.724a.118.118 0 0 0-.056-.088l-3.353-2.085a.12.12 0 0 1-.048-.057l-.106-.258a.12.12 0 0 1 .079-.161.119.119 0 0 1 .066 0Z"
				fill="#F3970D" />
			<path
				d="M40.404 29.543a.458.458 0 0 0-.466-.676l-3.666.538a.458.458 0 0 1-.401-.142l-2.083-2.243-.44-.473a.643.643 0 0 0-.077-.067.437.437 0 0 0-.086-.046.458.458 0 0 0-.582.219l-.013.028a.474.474 0 0 0-.029.1l-.621 3.655a.459.459 0 0 1-.258.338l-3.363 1.56a.458.458 0 0 0-.02.82l3.282 1.72a.459.459 0 0 1 .242.351l.443 3.678a.458.458 0 0 0 .774.273l2.65-2.59a.459.459 0 0 1 .409-.122l3.636.716a.458.458 0 0 0 .499-.652l-1.645-3.321a.46.46 0 0 1 .011-.426l1.804-3.238Z"
				stroke="#B73F39" stroke-linecap="round" stroke-linejoin="round" />
			<path
				d="M34.781 28.094s8.259-9.207 19.594-7.08l-1.517 2.804C41.99 22.662 36.037 29.38 36.037 29.38M39.453 34.286s6.715-5.193 16.495-4.158l-2.859-2.968"
				stroke="#B73F39" stroke-linecap="round" stroke-linejoin="round" />
			<path d="M38.992 32.242s5.588-5.64 14.1-5.082l2.558-1.876-2.79-1.467" stroke="#B73F39" stroke-linecap="round"
				stroke-linejoin="round" />
			<path
				d="M34.95 30.287a.286.286 0 0 1-.223-.108l-1.577-1.97a.287.287 0 0 1 .447-.358l1.577 1.97a.288.288 0 0 1-.071.422.287.287 0 0 1-.153.044Z"
				fill="#FFEABA" />
			<path
				d="M76.507 37.18c-.626 0-1.233-.053-1.82-.16a8.197 8.197 0 0 1-1.66-.44c-.52-.2-.986-.447-1.4-.74-.173-.12-.3-.267-.38-.44a.943.943 0 0 1-.06-.5.981.981 0 0 1 .22-.44.76.76 0 0 1 .42-.22c.16-.027.334.027.52.16a6.62 6.62 0 0 0 1.92.9c.68.187 1.427.28 2.24.28 1.174 0 2.034-.213 2.58-.64.56-.427.84-.987.84-1.68 0-.573-.2-1.02-.6-1.34-.4-.333-1.073-.593-2.02-.78l-2.12-.44c-1.253-.267-2.193-.707-2.82-1.32-.613-.613-.92-1.433-.92-2.46 0-.627.127-1.193.38-1.7.254-.52.614-.967 1.08-1.34a5.058 5.058 0 0 1 1.64-.86c.64-.2 1.347-.3 2.12-.3.827 0 1.6.113 2.32.34.734.227 1.394.56 1.98 1a.86.86 0 0 1 .32.44c.054.16.06.32.02.48a.667.667 0 0 1-.22.4.641.641 0 0 1-.42.18c-.16.013-.34-.047-.54-.18a5.49 5.49 0 0 0-1.64-.8 6.2 6.2 0 0 0-1.84-.26c-.68 0-1.273.107-1.78.32-.493.213-.88.513-1.16.9-.266.373-.4.813-.4 1.32 0 .613.187 1.093.56 1.44.374.347 1 .613 1.88.8l2.1.42c1.334.28 2.32.713 2.96 1.3.654.573.98 1.347.98 2.32a3.58 3.58 0 0 1-.38 1.66c-.24.493-.586.92-1.04 1.28-.453.347-1.006.62-1.66.82-.653.187-1.386.28-2.2.28Zm8.404-.04c-.28 0-.5-.08-.66-.24-.16-.16-.24-.393-.24-.7V23.68c0-.307.08-.533.24-.68.16-.16.38-.24.66-.24.293 0 .52.08.68.24.16.147.24.373.24.68v5.7h-.26c.28-.76.733-1.333 1.36-1.72.64-.387 1.366-.58 2.18-.58.786 0 1.433.147 1.94.44.506.28.886.707 1.14 1.28.253.573.38 1.293.38 2.16v5.24c0 .307-.08.54-.24.7-.147.16-.367.24-.66.24-.294 0-.52-.08-.68-.24-.16-.16-.24-.393-.24-.7v-5.14c0-.867-.167-1.5-.5-1.9-.334-.4-.867-.6-1.6-.6-.854 0-1.54.267-2.06.8-.507.52-.76 1.227-.76 2.12v4.72c0 .627-.307.94-.92.94Zm13.645.04a4.095 4.095 0 0 1-1.82-.4 3.227 3.227 0 0 1-1.26-1.08 2.738 2.738 0 0 1-.44-1.52c0-.72.18-1.287.54-1.7.36-.413.967-.707 1.82-.88.853-.187 2-.28 3.44-.28h.94v1.16h-.9c-1.027 0-1.84.047-2.44.14-.587.093-1 .26-1.24.5-.24.227-.36.547-.36.96 0 .52.18.947.54 1.28.373.333.88.5 1.52.5.507 0 .953-.12 1.34-.36.387-.253.693-.587.92-1 .227-.427.34-.913.34-1.46v-2.3c0-.787-.16-1.353-.48-1.7-.32-.36-.86-.54-1.62-.54-.44 0-.893.06-1.36.18a7.41 7.41 0 0 0-1.46.56c-.2.093-.373.127-.52.1a.667.667 0 0 1-.36-.24.98.98 0 0 1-.14-.42c0-.16.033-.313.1-.46a.7.7 0 0 1 .4-.32 7.188 7.188 0 0 1 1.74-.62 7.428 7.428 0 0 1 1.64-.2c.867 0 1.58.14 2.14.42.56.267.98.687 1.26 1.26.28.56.42 1.28.42 2.16v5.28c0 .307-.073.54-.22.7-.147.16-.36.24-.64.24-.267 0-.48-.08-.64-.24-.147-.16-.22-.393-.22-.7v-1.42h.18c-.107.493-.307.92-.6 1.28s-.66.64-1.1.84c-.427.187-.913.28-1.46.28Zm8.504-.04c-.307 0-.54-.08-.7-.24-.16-.16-.24-.393-.24-.7v-8.16c0-.307.08-.533.24-.68.16-.16.38-.24.66-.24s.493.08.64.24c.16.147.24.373.24.68v1.54h-.2c.213-.8.613-1.407 1.2-1.82.587-.413 1.327-.647 2.22-.7.213-.013.387.04.52.16.133.107.207.293.22.56.013.253-.047.46-.18.62-.133.147-.34.233-.62.26l-.36.02c-.88.093-1.56.38-2.04.86-.467.48-.7 1.14-.7 1.98v4.68c0 .307-.08.54-.24.7-.147.16-.367.24-.66.24Zm10.728.04c-1.053 0-1.96-.2-2.72-.6a4.365 4.365 0 0 1-1.74-1.74c-.413-.76-.62-1.653-.62-2.68 0-1.013.2-1.9.6-2.66a4.594 4.594 0 0 1 1.68-1.78c.72-.427 1.54-.64 2.46-.64.653 0 1.24.113 1.76.34.533.213.987.527 1.36.94.373.413.653.92.84 1.52.2.587.3 1.253.3 2 0 .213-.067.38-.2.5-.12.107-.3.16-.54.16h-6.84v-1.16h6.38l-.34.28c0-.693-.107-1.28-.32-1.76-.2-.493-.5-.867-.9-1.12-.387-.253-.873-.38-1.46-.38-.64 0-1.187.153-1.64.46-.453.293-.8.713-1.04 1.26-.24.533-.36 1.153-.36 1.86v.12c0 1.2.287 2.107.86 2.72s1.4.92 2.48.92a5.5 5.5 0 0 0 1.3-.16c.453-.107.887-.3 1.3-.58.2-.12.38-.173.54-.16.173 0 .313.053.42.16a.608.608 0 0 1 .2.36.748.748 0 0 1-.06.44.941.941 0 0 1-.38.42c-.44.307-.967.547-1.58.72-.6.16-1.18.24-1.74.24Zm14.859-.04a1.19 1.19 0 0 1-.66-.18c-.187-.133-.334-.347-.44-.64l-2.98-7.94c-.094-.253-.12-.473-.08-.66a.705.705 0 0 1 .28-.44c.146-.107.34-.16.58-.16.226 0 .406.053.54.16.133.107.246.3.34.58l2.72 7.68h-.48l2.8-7.72c.093-.24.213-.413.36-.52.16-.12.353-.18.58-.18.24 0 .44.06.6.18.16.107.273.28.34.52l2.76 7.72h-.46l2.76-7.72c.093-.267.213-.447.36-.54a.89.89 0 0 1 .54-.16c.24 0 .42.06.54.18.12.12.186.28.2.48.026.187 0 .387-.08.6l-2.98 7.94c-.094.28-.24.487-.44.62-.187.133-.407.2-.66.2-.254 0-.48-.067-.68-.2-.187-.133-.334-.34-.44-.62l-2.86-7.84h.92l-2.86 7.84c-.107.28-.254.487-.44.62-.187.133-.414.2-.68.2Zm14.315-.04c-.28 0-.5-.087-.66-.26-.16-.173-.24-.413-.24-.72v-7.98c0-.32.08-.56.24-.72.16-.173.38-.26.66-.26.293 0 .52.087.68.26.16.16.24.4.24.72v7.98c0 .307-.08.547-.24.72-.147.173-.374.26-.68.26Zm0-12.1c-.36 0-.647-.093-.86-.28-.2-.2-.3-.46-.3-.78 0-.347.1-.607.3-.78.213-.187.5-.28.86-.28.386 0 .673.093.86.28.2.173.3.433.3.78 0 .32-.1.58-.3.78-.187.187-.474.28-.86.28Zm7.206 12.18c-.6 0-1.207-.067-1.82-.2a5.492 5.492 0 0 1-1.7-.74.856.856 0 0 1-.32-.34.928.928 0 0 1-.06-.42.765.765 0 0 1 .18-.38.504.504 0 0 1 .34-.18c.146-.027.3.007.46.1.52.293 1.02.5 1.5.62.493.12.98.18 1.46.18.733 0 1.286-.133 1.66-.4.373-.267.56-.62.56-1.06 0-.373-.127-.66-.38-.86-.24-.213-.62-.373-1.14-.48l-1.86-.38c-.827-.187-1.454-.493-1.88-.92-.414-.44-.62-1-.62-1.68 0-.6.16-1.12.48-1.56.333-.453.793-.8 1.38-1.04.586-.24 1.26-.36 2.02-.36.586 0 1.14.08 1.66.24a4.485 4.485 0 0 1 1.44.68c.16.093.26.213.3.36.053.133.06.273.02.42a.655.655 0 0 1-.18.34.667.667 0 0 1-.36.18.854.854 0 0 1-.48-.12 3.774 3.774 0 0 0-1.2-.56c-.4-.12-.8-.18-1.2-.18-.72 0-1.267.14-1.64.42-.36.28-.54.647-.54 1.1 0 .347.106.633.32.86.226.227.58.393 1.06.5l1.86.38c.866.187 1.52.487 1.96.9.44.4.66.947.66 1.64 0 .907-.36 1.627-1.08 2.16-.707.52-1.66.78-2.86.78Zm7.208-.04c-.28 0-.5-.08-.66-.24-.16-.16-.24-.393-.24-.7V23.68c0-.307.08-.533.24-.68.16-.16.38-.24.66-.24.293 0 .52.08.68.24.16.147.24.373.24.68v5.7h-.26c.28-.76.733-1.333 1.36-1.72.64-.387 1.366-.58 2.18-.58.786 0 1.433.147 1.94.44.506.28.886.707 1.14 1.28.253.573.38 1.293.38 2.16v5.24c0 .307-.08.54-.24.7-.147.16-.367.24-.66.24-.294 0-.52-.08-.68-.24-.16-.16-.24-.393-.24-.7v-5.14c0-.867-.167-1.5-.5-1.9-.334-.4-.867-.6-1.6-.6-.854 0-1.54.267-2.06.8-.507.52-.76 1.227-.76 2.12v4.72c0 .627-.307.94-.92.94Zm15.045.04c-1.053 0-1.96-.2-2.72-.6a4.365 4.365 0 0 1-1.74-1.74c-.413-.76-.62-1.653-.62-2.68 0-1.013.2-1.9.6-2.66a4.594 4.594 0 0 1 1.68-1.78c.72-.427 1.54-.64 2.46-.64.653 0 1.24.113 1.76.34.533.213.987.527 1.36.94.373.413.653.92.84 1.52.2.587.3 1.253.3 2 0 .213-.067.38-.2.5-.12.107-.3.16-.54.16h-6.84v-1.16h6.38l-.34.28c0-.693-.107-1.28-.32-1.76-.2-.493-.5-.867-.9-1.12-.387-.253-.873-.38-1.46-.38-.64 0-1.187.153-1.64.46-.453.293-.8.713-1.04 1.26-.24.533-.36 1.153-.36 1.86v.12c0 1.2.287 2.107.86 2.72s1.4.92 2.48.92a5.5 5.5 0 0 0 1.3-.16c.453-.107.887-.3 1.3-.58.2-.12.38-.173.54-.16.173 0 .313.053.42.16a.608.608 0 0 1 .2.36.748.748 0 0 1-.06.44.941.941 0 0 1-.38.42c-.44.307-.967.547-1.58.72-.6.16-1.18.24-1.74.24Zm9.544 0c-.6 0-1.207-.067-1.82-.2a5.492 5.492 0 0 1-1.7-.74.856.856 0 0 1-.32-.34.928.928 0 0 1-.06-.42.765.765 0 0 1 .18-.38.504.504 0 0 1 .34-.18c.146-.027.3.007.46.1.52.293 1.02.5 1.5.62.493.12.98.18 1.46.18.733 0 1.286-.133 1.66-.4.373-.267.56-.62.56-1.06 0-.373-.127-.66-.38-.86-.24-.213-.62-.373-1.14-.48l-1.86-.38c-.827-.187-1.454-.493-1.88-.92-.414-.44-.62-1-.62-1.68 0-.6.16-1.12.48-1.56.333-.453.793-.8 1.38-1.04.586-.24 1.26-.36 2.02-.36.586 0 1.14.08 1.66.24a4.485 4.485 0 0 1 1.44.68c.16.093.26.213.3.36.053.133.06.273.02.42a.655.655 0 0 1-.18.34.667.667 0 0 1-.36.18.854.854 0 0 1-.48-.12 3.774 3.774 0 0 0-1.2-.56c-.4-.12-.8-.18-1.2-.18-.72 0-1.267.14-1.64.42-.36.28-.54.647-.54 1.1 0 .347.106.633.32.86.226.227.58.393 1.06.5l1.86.38c.866.187 1.52.487 1.96.9.44.4.66.947.66 1.64 0 .907-.36 1.627-1.08 2.16-.707.52-1.66.78-2.86.78Z"
				fill="#414141" />
		</g>
		<defs>
			<filter id="ga" x="0" y="0" width="236" height="77" filterUnits="userSpaceOnUse"
				color-interpolation-filters="sRGB">
				<feFlood flood-opacity="0" result="BackgroundImageFix" />
				<feColorMatrix in="SourceAlpha" values="0 0 0 0 0 0 0 0 0 0 0 0 0 0 0 0 0 0 127 0" result="hardAlpha" />
				<feOffset dx="1" dy="1" />
				<feGaussianBlur stdDeviation="1.5" />
				<feColorMatrix values="0 0 0 0 0 0 0 0 0 0 0 0 0 0 0 0 0 0 0.05 0" />
				<feBlend in2="BackgroundImageFix" result="effect1_dropShadow_477_7225" />
				<feColorMatrix in="SourceAlpha" values="0 0 0 0 0 0 0 0 0 0 0 0 0 0 0 0 0 0 127 0" result="hardAlpha" />
				<feOffset dx="3" dy="3" />
				<feGaussianBlur stdDeviation="2.5" />
				<feColorMatrix values="0 0 0 0 0 0 0 0 0 0 0 0 0 0 0 0 0 0 0.04 0" />
				<feBlend in2="effect1_dropShadow_477_7225" result="effect2_dropShadow_477_7225" />
				<feColorMatrix in="SourceAlpha" values="0 0 0 0 0 0 0 0 0 0 0 0 0 0 0 0 0 0 127 0" result="hardAlpha" />
				<feOffset dx="8" dy="7" />
				<feGaussianBlur stdDeviation="3" />
				<feColorMatrix values="0 0 0 0 0 0 0 0 0 0 0 0 0 0 0 0 0 0 0.03 0" />
				<feBlend in2="effect2_dropShadow_477_7225" result="effect3_dropShadow_477_7225" />
				<feColorMatrix in="SourceAlpha" values="0 0 0 0 0 0 0 0 0 0 0 0 0 0 0 0 0 0 127 0" result="hardAlpha" />
				<feOffset dx="14" dy="12" />
				<feGaussianBlur stdDeviation="3.5" />
				<feColorMatrix values="0 0 0 0 0 0 0 0 0 0 0 0 0 0 0 0 0 0 0.01 0" />
				<feBlend in2="effect3_dropShadow_477_7225" result="effect4_dropShadow_477_7225" />
				<feBlend in="SourceGraphic" in2="effect4_dropShadow_477_7225" result="shape" />
			</filter>
		</defs>
	</svg>
	<view id="snowflake" viewBox="0 232 102 126" /><svg width="102" height="126" fill="none" viewBox="0 0 102 126" y="232"
		xmlns="http://www.w3.org/2000/svg">
		<g opacity=".4">
			<path d="M53.42 16.974h-3.887v92.241h3.886V16.974Z" fill="#87CED9" />
			<path d="M87.304 38.425 13.26 84.538l1.943 3.63 74.044-46.112-1.943-3.631Z" fill="#87CED9" />
			<path d="m14.695 37.764-1.943 3.631 74.042 46.12 1.943-3.63-74.042-46.121Z" fill="#87CED9" />
			<path
				d="M51.477 19.07c-.383 0-.759-.122-1.078-.352l-5.83-4.193a2.048 2.048 0 0 1-.634-.755 2.228 2.228 0 0 1-.23-.99V6.493c0-.345.079-.685.23-.99.15-.304.369-.563.635-.755L50.4.555c.318-.23.694-.353 1.078-.353.383 0 .759.123 1.078.353l5.83 4.192c.265.192.483.451.634.756.151.304.23.644.23.989v6.289c0 .345-.079.685-.23.989a2.05 2.05 0 0 1-.635.755l-5.83 4.193c-.318.23-.694.352-1.078.352Zm-3.886-7.41 3.886 2.798 3.887-2.795v-4.05l-3.886-2.798-3.887 2.798v4.046ZM51.477 125.986c-.383 0-.759-.122-1.078-.352l-5.83-4.193a2.045 2.045 0 0 1-.634-.755 2.227 2.227 0 0 1-.23-.989v-6.289c0-.345.079-.685.23-.989.15-.305.369-.564.635-.756l5.83-4.192c.318-.23.694-.353 1.078-.353.383 0 .759.123 1.078.353l5.83 4.192c.265.192.483.451.634.756.151.304.23.644.23.989v6.289c0 .345-.079.685-.23.989-.15.304-.369.564-.635.755l-5.83 4.193c-.318.23-.694.352-1.078.352Zm-3.886-7.411 3.886 2.799 3.887-2.795v-4.046l-3.886-2.802-3.887 2.794v4.05Z"
				fill="#A7E1EB" />
			<path
				d="M51.478 31.648c-.455 0-.895-.17-1.245-.484L38.574 20.682l2.491-3.224 10.413 9.368 10.413-9.364 2.492 3.224-11.66 10.482c-.35.312-.79.482-1.245.48ZM61.892 108.73l-10.414-9.368-10.413 9.364-2.49-3.224L50.232 95.02a1.86 1.86 0 0 1 1.245-.487c.456 0 .896.172 1.246.487l11.659 10.482-2.491 3.228ZM8.727 99.152a1.825 1.825 0 0 1-.86-.21L1.583 95.59a2.012 2.012 0 0 1-.822-.832 2.231 2.231 0 0 1-.256-1.183l.453-7.547c.021-.344.121-.678.29-.97.17-.293.404-.536.681-.707l5.052-3.145a1.825 1.825 0 0 1 1.832-.063l6.28 3.354c.345.184.63.473.823.832.192.358.281.77.256 1.183l-.45 7.547a2.213 2.213 0 0 1-.292.97c-.169.293-.403.535-.68.707L9.699 98.88a1.833 1.833 0 0 1-.972.272Zm-4.251-6.708 4.187 2.233 3.245-2.021.301-5.032-4.185-2.237-3.247 2.025-.301 5.032ZM94.557 45.694a1.825 1.825 0 0 1-.86-.21l-6.282-3.354a2.012 2.012 0 0 1-.823-.831 2.23 2.23 0 0 1-.256-1.184l.453-7.547c.021-.344.121-.677.29-.97.17-.292.404-.535.681-.707l5.052-3.144a1.825 1.825 0 0 1 1.832-.063l6.281 3.354c.344.183.63.473.822.831.192.359.281.77.256 1.184l-.45 7.547a2.225 2.225 0 0 1-.291.97c-.17.292-.404.535-.681.707l-5.052 3.144a1.833 1.833 0 0 1-.972.273ZM90.3 38.985l4.187 2.233 3.238-2.023.3-5.031-4.185-2.23-3.247 2.022-.293 5.03Z"
				fill="#A7E1EB" />
			<path
				d="m23.659 96.564-3.83-.717 2.307-14.41-12.724-5.049 1.339-3.935 14.245 5.66c.427.17.786.495 1.014.92.227.425.31.924.231 1.407L23.66 96.564ZM91.757 54.146l-14.247-5.66a1.989 1.989 0 0 1-1.012-.92 2.238 2.238 0 0 1-.231-1.405l2.586-16.142 3.83.717-2.312 14.41 12.725 5.049-1.339 3.951ZM93.272 98.485c-.34 0-.676-.097-.971-.28l-5.052-3.145a2.018 2.018 0 0 1-.68-.707 2.212 2.212 0 0 1-.292-.97l-.449-7.547a2.231 2.231 0 0 1 .256-1.183c.191-.359.477-.648.82-.832l6.28-3.354a1.825 1.825 0 0 1 1.833.063l5.052 3.144c.278.172.511.415.681.708.169.292.269.625.291.97l.449 7.546c.025.413-.064.825-.256 1.184a2.007 2.007 0 0 1-.821.831l-6.28 3.354a1.804 1.804 0 0 1-.86.218Zm-3.177-6.498 3.247 2.023 4.19-2.23-.3-5.032-3.246-2.023-4.186 2.232.295 5.03ZM7.448 45.028c-.34 0-.676-.097-.971-.281l-5.052-3.145a2.018 2.018 0 0 1-.681-.707 2.212 2.212 0 0 1-.291-.97l-.449-7.547a2.23 2.23 0 0 1 .256-1.183c.191-.358.477-.648.82-.831l6.28-3.355a1.825 1.825 0 0 1 1.833.063l5.052 3.145c.278.172.511.415.68.707.17.293.27.626.292.97l.449 7.547c.024.413-.065.825-.256 1.183a2.013 2.013 0 0 1-.82.832L8.308 44.81a1.804 1.804 0 0 1-.86.218Zm-3.177-6.499 3.247 2.023 4.186-2.233-.3-5.03-3.247-2.024-4.185 2.237.3 5.027Z"
				fill="#A7E1EB" />
			<path
				d="m78.341 95.9-2.584-16.142c-.077-.483.005-.98.232-1.404.227-.424.585-.749 1.011-.918l14.243-5.66 1.343 3.934-12.725 5.05 2.316 14.43-3.836.71ZM10.255 53.488l-1.343-3.935 12.725-5.048-2.31-14.415 3.83-.713 2.584 16.143c.078.483-.004.98-.231 1.405-.228.425-.586.75-1.012.92l-14.243 5.643Z"
				fill="#A7E1EB" />
			<path
				d="M32.046 98.733c-.273 0-.544-.063-.794-.183a1.957 1.957 0 0 1-.655-.517c-.182-.22-.32-.479-.403-.76a2.254 2.254 0 0 1-.08-.871l2.346-22.386-18.695-9.014c-.34-.164-.63-.43-.833-.767a2.217 2.217 0 0 1-.317-1.132 2.22 2.22 0 0 1 .302-1.137c.2-.34.485-.61.823-.78l19.221-9.622-.915-21.918c-.016-.392.07-.781.248-1.123.179-.342.443-.623.762-.811a1.827 1.827 0 0 1 2.055.129l16.366 12.505 16.365-12.505a1.854 1.854 0 0 1 1.04-.391c.374-.02.745.078 1.07.28.323.203.586.503.756.863.17.36.24.766.2 1.168L69.02 51.272l20.183 9.914c.342.169.631.44.833.783.202.342.307.74.303 1.146a2.215 2.215 0 0 1-.325 1.14 1.987 1.987 0 0 1-.848.764l-19.857 9.234 1.594 22.222c.028.397-.049.794-.222 1.146a2.033 2.033 0 0 1-.757.839 1.83 1.83 0 0 1-1.056.27 1.853 1.853 0 0 1-1.026-.383l-16.421-12.55L33.09 98.404a1.841 1.841 0 0 1-1.044.33ZM19.247 63.056l16.097 7.757c.376.181.69.487.894.874.205.386.29.832.244 1.275l-2.048 19.544 16-11.002a1.838 1.838 0 0 1 1.091-.327c.386.01.76.144 1.075.384l14.11 10.782-1.382-19.26a2.23 2.23 0 0 1 .273-1.244c.21-.374.521-.668.893-.842l17.099-7.966-17.46-8.583c-.367-.18-.672-.479-.873-.854a2.233 2.233 0 0 1-.255-1.242l1.619-18.448-14.031 10.723c-.329.25-.721.386-1.124.386-.402 0-.794-.135-1.123-.386L36.11 33.744l.795 19.036c.017.415-.08.826-.28 1.182-.2.355-.494.638-.843.813l-16.534 8.281Z"
				fill="#A7E1EB" />
		</g>
	</svg>
	<view id="snowflake-white" viewBox="102 232 122 126" /><svg width="122" height="126" viewBox="0 0 102 126" fill="none"
		x="102" y="232" xmlns="http://www.w3.org/2000/svg">
		<g opacity=".4" fill="#fff">
			<path d="m83.596 30.415-2.888-2.6-61.722 68.548 2.888 2.6 61.722-68.548Z" />
			<path d="M94.423 69.03 8.543 53.751l-.987 3.999 85.881 15.277.986-3.999Z" />
			<path
				d="m40.906 19.953-3.873 1.398 24.163 83.819 3.874-1.398-24.164-83.819ZM80.75 30.673a1.844 1.844 0 0 1-.566-.983l-1.526-7.017c-.07-.32-.059-.659.033-.986.091-.327.26-.632.491-.888l4.208-4.674c.231-.257.517-.456.833-.581.315-.126.651-.172.977-.137l7.138.785c.39.043.752.203 1.037.46.285.256.482.599.565.983l1.527 7.017c.07.32.058.659-.033.986a2.23 2.23 0 0 1-.492.888L90.734 31.2a2.23 2.23 0 0 1-.832.582 2.05 2.05 0 0 1-.978.136l-7.137-.785a1.844 1.844 0 0 1-1.037-.46Zm2.07-8.107 1.016 4.68 4.758.523 2.71-3.01-1.015-4.68-4.761-.52-2.708 3.007ZM9.209 110.127a1.842 1.842 0 0 1-.566-.983l-1.526-7.017c-.07-.32-.058-.659.033-.985.091-.327.26-.633.491-.89l4.208-4.673c.231-.256.517-.456.833-.581.316-.126.651-.172.978-.137l7.137.785c.39.043.752.203 1.037.46.285.256.482.599.565.983l1.527 7.016c.07.321.058.66-.034.987-.09.327-.26.632-.49.889l-4.209 4.673c-.23.257-.517.457-.832.582a2.047 2.047 0 0 1-.977.136l-7.138-.785a1.842 1.842 0 0 1-1.037-.46Zm2.07-8.108 1.016 4.68 4.758.524 2.708-3.007-1.014-4.682-4.757-.524-2.71 3.01Z" />
			<path
				d="M72.334 40.021a1.858 1.858 0 0 1-.601-1.193l-1.65-15.591 4.008-.73 1.47 13.93 14.004.01-.306 4.062-15.678-.011a1.858 1.858 0 0 1-1.247-.477ZM28.495 104.272l-1.47-13.93-14.005-.009.306-4.062 15.678.011c.47 0 .914.167 1.252.471.338.305.55.728.6 1.196l1.65 15.59-4.011.733ZM-4.605 61.58a1.825 1.825 0 0 1-.5-.731l-2.424-6.697a2.012 2.012 0 0 1-.055-1.167c.098-.395.307-.76.602-1.051l5.386-5.306c.246-.241.544-.422.865-.526.322-.104.658-.128.98-.07l5.858 1.043a1.825 1.825 0 0 1 1.404 1.18l2.422 6.695c.133.366.152.772.055 1.167s-.306.761-.601 1.052l-5.385 5.306a2.213 2.213 0 0 1-.865.526 2.017 2.017 0 0 1-.98.07L-3.7 62.029a1.833 1.833 0 0 1-.904-.448Zm1.329-7.83 1.618 4.461 3.764.67 3.59-3.538-1.614-4.463-3.768-.667-3.59 3.537ZM94.95 79.285a1.825 1.825 0 0 1-.5-.732l-2.424-6.696a2.012 2.012 0 0 1-.055-1.168 2.23 2.23 0 0 1 .602-1.051l5.386-5.306c.246-.241.544-.422.865-.526.322-.104.658-.128.98-.07l5.858 1.044a1.825 1.825 0 0 1 1.404 1.18l2.422 6.694c.133.366.152.773.055 1.168-.097.394-.307.76-.602 1.05l-5.384 5.308a2.225 2.225 0 0 1-.865.526 2.026 2.026 0 0 1-.98.07l-5.858-1.044a1.833 1.833 0 0 1-.904-.447Zm1.324-7.834 1.618 4.46 3.76.663 3.59-3.537-1.618-4.458-3.766-.67-3.584 3.542Z" />
			<path
				d="m8.223 69.648-2.366-3.095 11.356-9.166-6.077-12.265 3.628-2.029 6.798 13.738c.205.412.254.894.138 1.362a2.238 2.238 0 0 1-.77 1.201L8.224 69.648ZM87.213 83.692l-6.8-13.739a1.989 1.989 0 0 1-.137-1.36c.115-.468.387-.893.768-1.2l12.723-10.265 2.367 3.095-11.361 9.162 6.079 12.267-3.64 2.04ZM58.67 117.657a1.835 1.835 0 0 1-.534-.86l-1.65-5.717a2.018 2.018 0 0 1-.033-.98c.07-.331.219-.646.433-.916l4.716-5.909c.258-.324.6-.57.982-.708a2.012 2.012 0 0 1 1.166-.069l6.912 1.71a1.825 1.825 0 0 1 1.32 1.273l1.65 5.717c.091.313.102.65.032.98-.07.331-.218.646-.432.916l-4.717 5.91c-.257.323-.599.57-.982.707a2.007 2.007 0 0 1-1.166.069l-6.911-1.71a1.804 1.804 0 0 1-.786-.413Zm1.988-6.956 1.059 3.676 4.606 1.146 3.144-3.94-1.06-3.675-4.604-1.142-3.145 3.935ZM30.66 20.502a1.835 1.835 0 0 1-.534-.859l-1.65-5.717a2.018 2.018 0 0 1-.033-.981c.07-.33.219-.645.433-.915l4.717-5.91c.257-.323.599-.57.981-.707a2.013 2.013 0 0 1 1.167-.07l6.911 1.71a1.825 1.825 0 0 1 1.32 1.273l1.65 5.718c.091.313.102.65.033.98-.07.331-.219.646-.433.916l-4.717 5.909c-.257.324-.599.57-.981.708a2.013 2.013 0 0 1-1.167.069l-6.911-1.71a1.804 1.804 0 0 1-.786-.414Zm1.988-6.955 1.06 3.676 4.604 1.141 3.144-3.939-1.06-3.676-4.607-1.138-3.141 3.936Z" />
			<path
				d="m49.303 105.745 8.881-13.726c.266-.41.66-.724 1.112-.888a1.988 1.988 0 0 1 1.367-.006l14.372 5.324-1.636 3.823-12.836-4.762-7.934 12.273-3.326-2.038ZM27.085 28.667l1.635-3.822 12.835 4.763 7.928-12.258 3.324 2.033-8.881 13.725c-.266.411-.66.726-1.113.89a1.989 1.989 0 0 1-1.367.006l-14.36-5.337Z" />
			<path
				d="M13.005 76.872a1.823 1.823 0 0 1-.468-.667 1.957 1.957 0 0 1-.141-.822c.011-.286.083-.57.21-.835.126-.264.304-.503.523-.7L29.851 58.78 21.99 39.573a1.991 1.991 0 0 1-.106-1.128c.073-.387.255-.752.522-1.053.267-.3.609-.524.984-.643.376-.12.77-.129 1.134-.029l20.723 5.711 13.986-16.9c.25-.303.574-.534.936-.669a2.024 2.024 0 0 1 1.109-.093 1.827 1.827 0 0 1 1.44 1.47l3.795 20.245 20.53 1.657c.383.029.742.17 1.033.405.292.236.502.557.607.925.105.367.1.766-.015 1.147a2.24 2.24 0 0 1-.632 1.002L72.239 66.342l8.365 20.873c.141.354.175.75.095 1.14a2.22 2.22 0 0 1-.541 1.054 2.215 2.215 0 0 1-1.004.629c-.381.112-.778.112-1.142 0l-20.935-6.424-13.686 17.58a2.235 2.235 0 0 1-.931.703 2.033 2.033 0 0 1-1.124.117 1.83 1.83 0 0 1-.966-.506 1.853 1.853 0 0 1-.505-.97l-3.807-20.314L14 77.326a1.841 1.841 0 0 1-.995-.454Zm14.36-35.077 6.772 16.535c.159.387.187.824.08 1.248a2.235 2.235 0 0 1-.671 1.11l-14.6 13.155 19.251 2.53c.392.051.75.22 1.03.486s.47.616.543 1.005l3.27 17.454L54.9 80.08a2.23 2.23 0 0 1 1.036-.742 1.996 1.996 0 0 1 1.227-.028L75.2 84.832 67.968 66.77a2.004 2.004 0 0 1-.077-1.219c.101-.414.325-.796.642-1.093L82.08 51.832l-17.602-1.42a1.848 1.848 0 0 1-1.093-.465c-.3-.27-.5-.632-.577-1.038L59.51 31.295 47.363 45.973c-.265.32-.612.56-.999.69-.386.131-.794.145-1.17.041l-17.829-4.91Z" />
		</g>
	</svg>
	<view id="snowglobe" viewBox="224 232 100 100" /><svg width="100" height="100" fill="none" viewBox="0 0 100 100"
		x="224" y="232" xmlns="http://www.w3.org/2000/svg">
		<path d="m79.688 76.563.07.212a42.187 42.187 0 1 0-59.516 0l.07-.212" fill="#87CED9" />
		<path
			d="M19.506 76.006c.245.257.486.52.737.77l.07-.213h1.152a50.639 50.639 0 0 1-1.96-.557ZM79.127 16.375a47.702 47.702 0 0 1-33.406 60.188h33.964l.07.212a42.162 42.162 0 0 0-.625-60.4h-.003Z"
			fill="#71C4D1" />
		<path d="M85.938 95.313H14.061l6.25-18.75h59.376l6.25 18.75Z" fill="#995023" />
		<path d="M79.69 76.563h-9.68c-9.394 9.668-21.914 15.384-32.772 18.75H85.94l-6.25-18.75Z" fill="#80421C" />
		<path
			d="m17.252 36.415-2.969-.954A37.558 37.558 0 0 1 25.55 18.47l2.04 2.367a34.435 34.435 0 0 0-10.337 15.579ZM30.653 18.477l-1.764-2.58a37.643 37.643 0 0 1 4.806-2.788l1.365 2.813a34.777 34.777 0 0 0-4.407 2.555Z"
			fill="#AADDE6" />
		<path d="M64.063 82.813H35.936v6.25h28.126v-6.25Z" fill="#FFA230" />
		<path d="M34.375 50 25 60.938v15.624h18.75V60.938L34.375 50Z" fill="#DD4A43" />
		<path d="M62.5 60.938H43.75v15.624H62.5V60.938Z" fill="#D13E37" />
		<path
			d="M37.5 65.625h-6.25v10.938h6.25V65.624ZM51.563 65.625h-3.126v4.688h3.126v-4.688ZM57.813 65.625h-3.126v4.688h3.126v-4.688Z"
			fill="#70320F" />
		<path
			d="M53.125 43.75h-6.25V50h6.25v-6.25ZM71.875 51.563H75l-6.25-10.938-6.25 10.938h3.125L62.5 59.374h3.125L62.5 68.75H75l-3.125-9.375H75l-3.125-7.813Z"
			fill="#EBEBE8" />
		<path d="M70.313 68.75h-3.126v7.813h3.126V68.75Z" fill="#80421C" />
		<path
			d="M46.875 31.25H43.75v3.125h3.125V31.25ZM40.625 21.875H37.5V25h3.125v-3.125ZM84.375 43.75H81.25v3.125h3.125V43.75ZM76.563 28.125h-3.126v3.125h3.126v-3.125ZM17.188 51.563h-3.125v3.124h3.124v-3.124ZM54.688 10.938h-3.126v3.124h3.126v-3.124ZM60.938 25h-3.126v3.125h3.126V25ZM26.563 39.063h-3.125v3.124h3.125v-3.124Z"
			fill="#EBEBE8" />
		<path d="M64.063 89.063H35.936v3.124h28.126v-3.124Z" fill="#80421C" />
		<path d="M62.5 60.938H43.75v3.124H62.5v-3.124Z" fill="#BA3731" />
		<path d="M34.375 50h18.75L62.5 60.938H43.75L34.375 50Z" fill="#EBEBE8" />
		<path d="M70.313 68.75h-3.126v3.125h3.126V68.75Z" fill="#70320F" />
		<path d="M64.063 85.938H35.936v3.124h28.126v-3.124Z" fill="#DE6E12" />
	</svg>
</svg>
