<svg width="33" height="32" viewBox="0 0 33 32" fill="none" xmlns="http://www.w3.org/2000/svg">
<path d="M5.83203 12.3274L2.33203 14.4999V30.4999H31.332V14.4999L27.832 12.3274" fill="#729C22"/>
<path d="M23.832 1.5H5.83203V28H27.832V5.5L23.832 1.5Z" fill="#DD4A43"/>
<path d="M24.282 1.94995C21.3045 13.708 11.238 22.0385 5.83203 25.78V28H27.832V5.49995L24.282 1.94995Z" fill="#D13E37"/>
<path d="M31.332 30.5H2.33203V14.5L16.832 24.5L31.332 14.5V30.5Z" fill="#7EA82D"/>
<path d="M21.9652 12.8085L19.8962 13.692L17.8312 12.5L19.8962 11.308L21.9652 12.1915L22.3577 11.272L20.9782 10.683L22.2772 9.933L21.7772 9.067L20.4782 9.817L20.6577 8.328L19.6647 8.2085L19.3957 10.442L17.3312 11.634V9.25L19.1312 7.9L18.5312 7.1L17.3312 8V6.5H16.3312V8L15.1312 7.1L14.5312 7.9L16.3312 9.25V11.634L14.2667 10.442L13.9977 8.2085L13.0047 8.328L13.1842 9.817L11.8852 9.067L11.3852 9.933L12.6842 10.683L11.3047 11.272L11.6972 12.1915L13.7662 11.308L15.8312 12.5L13.7662 13.692L11.6972 12.8085L11.3047 13.728L12.6842 14.317L11.3852 15.067L11.8852 15.933L13.1842 15.183L13.0047 16.672L13.9977 16.7915L14.2667 14.558L16.3312 13.366V15.75L14.5312 17.1L15.1312 17.9L16.3312 17V18.5H17.3312V17L18.5312 17.9L19.1312 17.1L17.3312 15.75V13.366L19.3957 14.558L19.6647 16.7915L20.6577 16.672L20.4782 15.183L21.7772 15.933L22.2772 15.067L20.9782 14.317L22.3577 13.728L21.9652 12.8085Z" fill="#EBEBE8"/>
<path d="M23.832 5.5V1.5L27.832 5.5H23.832Z" fill="#7EA82D"/>
<path d="M4.83203 17.5H3.83203V18.5H4.83203V17.5Z" fill="#97BF49"/>
<path d="M4.83203 19.5H3.83203V24.5H4.83203V19.5Z" fill="#97BF49"/>
<path d="M11.338 20.7109L2.33203 29.7899V30.4999H3.03603L12.174 21.2879L11.338 20.7109Z" fill="#729C22"/>
<path d="M22.3262 20.7109L21.4902 21.2879L30.6282 30.4999H31.3322V29.7899L22.3262 20.7109Z" fill="#729C22"/>
</svg>
