<svg width="37" height="36" viewBox="0 0 37 36" fill="none" xmlns="http://www.w3.org/2000/svg">
<path d="M34.8125 30.5781C34.8124 30.3466 34.7583 30.1183 34.6543 29.9115C34.5504 29.7047 34.3997 29.5249 34.214 29.3867L32.5625 28.1593V16.3125C32.5625 13.9256 31.6143 11.6364 29.9265 9.94854C28.2386 8.26071 25.9494 7.3125 23.5625 7.3125L25.8125 2.50819L24.6875 1.95075C24.3379 1.77728 23.9528 1.68701 23.5625 1.68701C23.1722 1.68701 22.7872 1.77728 22.4375 1.95075C22.0878 2.12423 21.7028 2.21449 21.3125 2.21449C20.9222 2.21449 20.5372 2.12423 20.1875 1.95075C19.8378 1.77728 19.4528 1.68701 19.0625 1.68701C18.6722 1.68701 18.2872 1.77728 17.9375 1.95075L16.8125 2.50819L19.0625 7.3125C16.6756 7.3125 14.3864 8.26071 12.6985 9.94854C11.0107 11.6364 10.0625 13.9256 10.0625 16.3125V28.125L8.402 29.3844C8.21886 29.5235 8.07036 29.7031 7.9681 29.9091C7.86583 30.1151 7.81258 30.3419 7.8125 30.5719C7.81243 30.7676 7.85093 30.9615 7.92582 31.1424C8.0007 31.3233 8.1105 31.4876 8.24893 31.6261C8.38736 31.7645 8.55172 31.8743 8.7326 31.9492C8.91348 32.0241 9.10735 32.0626 9.30312 32.0625H33.3281C33.7217 32.0624 34.0992 31.9059 34.3776 31.6276C34.6559 31.3492 34.8124 30.9717 34.8125 30.5781Z" fill="#DD4A43"/>
<path d="M34.2134 29.3866L32.5619 28.1593V16.3124C32.5623 15.0876 32.3117 13.8757 31.8257 12.7515C31.3397 11.6272 30.6284 10.6144 29.7359 9.77563C27.28 22.4876 17.9881 29.025 12.1387 32.0625H33.3275C33.6396 32.0625 33.9438 31.9642 34.1969 31.7815C34.45 31.5988 34.639 31.3409 34.7371 31.0446C34.8352 30.7483 34.8374 30.4286 34.7434 30.1309C34.6494 29.8333 34.4639 29.5728 34.2134 29.3866Z" fill="#D13E37"/>
<path d="M23.5625 7.875H19.0625C18.9133 7.875 18.7702 7.81574 18.6648 7.71025C18.5593 7.60476 18.5 7.46168 18.5 7.3125C18.5 7.16332 18.5593 7.02024 18.6648 6.91475C18.7702 6.80926 18.9133 6.75 19.0625 6.75H23.5625C23.7117 6.75 23.8548 6.80926 23.9602 6.91475C24.0657 7.02024 24.125 7.16332 24.125 7.3125C24.125 7.46168 24.0657 7.60476 23.9602 7.71025C23.8548 7.81574 23.7117 7.875 23.5625 7.875Z" fill="#7A4321"/>
<path d="M20.5756 13.8104L20.5323 13.7446C19.8408 12.7027 19.5303 11.4539 19.6533 10.2095C19.7763 8.965 20.3252 7.80117 21.2073 6.91476C21.2859 6.83534 21.3863 6.78111 21.4958 6.75896C21.6053 6.73682 21.7188 6.74778 21.8221 6.79044C21.9253 6.83309 22.0135 6.90552 22.0754 6.99849C22.1374 7.09145 22.1702 7.20075 22.1698 7.31245C22.1709 8.23837 22.4163 9.14761 22.881 9.94844C23.3458 10.7493 24.0135 11.4134 24.8169 11.8738L25.8238 12.4492L25.2658 13.4263L24.2589 12.8508C23.5026 12.417 22.8431 11.8332 22.3207 11.1352C21.7984 10.4372 21.4243 9.63971 21.2214 8.79182C20.8757 9.47121 20.7167 10.2302 20.7606 10.9912C20.8044 11.7522 21.0497 12.4879 21.4711 13.1231L21.5156 13.1906L20.5756 13.8104Z" fill="#7A4321"/>
<path d="M16.8125 25.3125V34.3125H3.3125V25.3125" fill="#7EA82D"/>
<path d="M17.9375 21.9375H2.1875V25.3125H17.9375V21.9375Z" fill="#7EA82D"/>
<path d="M6.6875 17.4375L10.0625 21.9375H6.125L3.875 19.125H6.125L6.6875 17.4375Z" fill="#D13E37"/>
<path d="M13.4375 17.4375L10.0625 21.9375H14L16.25 19.125H14L13.4375 17.4375Z" fill="#B5362F"/>
<path d="M16.8125 25.3125H3.3125V27H16.8125V25.3125Z" fill="#729C22"/>
<path d="M11.75 21.9375H8.375V34.3125H11.75V21.9375Z" fill="#DD4A43"/>
<path d="M13.0706 14.7656L11.9805 14.4844C12.3449 13.068 13.1271 11.794 14.2254 10.8281L14.9707 11.6719C14.0407 12.4886 13.3785 13.5668 13.0706 14.7656Z" fill="#E66B65"/>
<path d="M15.6422 11.1555L15.0195 10.2189C15.3738 9.98362 15.748 9.77978 16.1378 9.60974L16.5878 10.6402C16.2581 10.784 15.9417 10.9564 15.6422 11.1555Z" fill="#E66B65"/>
<path d="M6.125 29.25H5V32.625H6.125V29.25Z" fill="#95C43B"/>
<path d="M6.125 27H5V28.125H6.125V27Z" fill="#95C43B"/>
</svg>
