<svg width="192" height="229" viewBox="0 0 192 229" fill="none" xmlns="http://www.w3.org/2000/svg">
<g opacity="0.4">
<path d="M71.0309 0.879175C73.9854 -0.621352 77.5967 0.557575 79.0974 3.51199L94.1442 33.137L111.995 7.90652C113.909 5.20144 117.653 4.56022 120.358 6.4739C123.063 8.38771 123.705 12.1321 121.792 14.8372L100.288 45.2317L128.938 101.641L165.938 45.7337L149.063 10.345C147.637 7.35397 148.905 3.77231 151.896 2.34597C154.887 0.919993 158.468 2.1883 159.894 5.17898L173.666 34.0579L190.546 8.553C192.374 5.78995 196.097 5.03205 198.86 6.86062C201.623 8.68944 202.381 12.4127 200.552 15.176L183.523 40.9065L214.875 45.1946C218.158 45.6438 220.455 48.6686 220.007 51.9514C219.558 55.2345 216.532 57.5321 213.249 57.0833L176.173 52.013L139.091 108.043L207.572 111.212L226.544 79.0139C228.226 76.1591 231.904 75.2088 234.758 76.8909C237.613 78.5731 238.565 82.2508 236.883 85.1057L221.13 111.84L250.338 113.192C253.648 113.345 256.208 116.152 256.054 119.462C255.901 122.772 253.093 125.331 249.783 125.178L219.551 123.779L233.949 153.09C235.41 156.064 234.183 159.659 231.209 161.12C228.234 162.581 224.639 161.354 223.178 158.38L205.872 123.146L138.273 120.018L169.807 182.105L207.039 182.668C210.352 182.718 212.997 185.445 212.947 188.758C212.897 192.071 210.17 194.717 206.857 194.667L175.951 194.199L188.119 218.156C189.619 221.11 188.441 224.721 185.487 226.222C182.533 227.723 178.921 226.544 177.421 223.59L164.722 198.591L145.221 225.982C143.299 228.681 139.554 229.312 136.854 227.39C134.155 225.468 133.524 221.722 135.446 219.023L158.589 186.515L127.572 125.449L90.3669 181.665L108.674 216.543C110.214 219.477 109.084 223.105 106.15 224.645C103.216 226.185 99.5886 225.054 98.0485 222.12L82.8093 193.086L65.9587 218.548C64.1298 221.311 60.4065 222.068 57.6432 220.24C54.8802 218.411 54.1231 214.688 55.9518 211.925L72.1657 187.424L41.4196 184.388C38.1222 184.062 35.7131 181.125 36.0388 177.827C36.3645 174.53 39.3017 172.121 42.5993 172.447L79.6569 176.106L117.415 119.053L50.4401 115.954L32.7272 148.774C31.1533 151.69 27.5133 152.777 24.5974 151.203C21.6813 149.629 20.5927 145.99 22.1667 143.074L37.1364 115.339L6.16767 113.907C2.8575 113.753 0.29868 110.945 0.451845 107.635C0.605106 104.325 3.41225 101.766 6.72235 101.919L37.5436 103.345L22.2849 75.0735C20.7109 72.1575 21.7985 68.5176 24.7145 66.9436C27.6305 65.3698 31.2705 66.4583 32.8444 69.3743L51.529 103.992L118.242 107.079L90.1091 51.6917L50.2057 51.2063C46.8925 51.1658 44.2397 48.4464 44.28 45.1331C44.3204 41.8197 47.0389 39.166 50.3522 39.2063L83.9763 39.6155L68.3981 8.94558C66.8978 5.9912 68.0766 2.37973 71.0309 0.879175Z" fill="#D4E9FD"/>
</g>
</svg>
