<svg width="37" height="36" viewBox="0 0 37 36" fill="none" xmlns="http://www.w3.org/2000/svg">
<path d="M18.5 5.625C18.055 5.625 17.62 5.49304 17.25 5.24581C16.88 4.99857 16.5916 4.64717 16.4213 4.23604C16.251 3.8249 16.2064 3.3725 16.2932 2.93605C16.3801 2.49959 16.5943 2.09868 16.909 1.78401C17.2237 1.46934 17.6246 1.25505 18.061 1.16823C18.4975 1.08142 18.9499 1.12597 19.361 1.29627C19.7722 1.46657 20.1236 1.75496 20.3708 2.12497C20.618 2.49498 20.75 2.92999 20.75 3.375C20.75 3.97174 20.5129 4.54403 20.091 4.96599C19.669 5.38795 19.0967 5.625 18.5 5.625ZM18.5 2.25C18.2775 2.25 18.06 2.31598 17.875 2.4396C17.69 2.56321 17.5458 2.73892 17.4606 2.94448C17.3755 3.15005 17.3532 3.37625 17.3966 3.59448C17.44 3.81271 17.5472 4.01316 17.7045 4.1705C17.8618 4.32783 18.0623 4.43498 18.2805 4.47838C18.4988 4.52179 18.725 4.49951 18.9305 4.41437C19.1361 4.32922 19.3118 4.18502 19.4354 4.00002C19.559 3.81501 19.625 3.59751 19.625 3.375C19.625 3.07663 19.5065 2.79048 19.2955 2.57951C19.0845 2.36853 18.7984 2.25 18.5 2.25Z" fill="#FD9A30"/>
<path d="M19.3038 6.34909L23.922 13.7381C23.9862 13.8407 24.0704 13.9293 24.1697 13.9986C24.269 14.0679 24.3812 14.1165 24.4996 14.1414L33.1402 15.9605C33.3008 15.9943 33.4492 16.0713 33.5692 16.1832C33.6892 16.2952 33.7763 16.4379 33.8211 16.5958C33.8659 16.7537 33.8666 16.9208 33.8232 17.0791C33.7799 17.2374 33.694 17.3809 33.575 17.4939L27.2801 23.5003C27.1745 23.601 27.0951 23.7259 27.0485 23.8641C27.002 24.0024 26.9898 24.1499 27.0129 24.294L28.3477 32.5908C28.3739 32.7539 28.3547 32.921 28.2923 33.0739C28.2299 33.2267 28.1266 33.3595 27.9938 33.4576C27.8609 33.5557 27.7037 33.6153 27.5392 33.63C27.3747 33.6447 27.2094 33.6139 27.0613 33.5409L18.8983 29.5128C18.7744 29.4517 18.6381 29.4199 18.5 29.4199C18.3619 29.4199 18.2256 29.4517 18.1018 29.5128L9.93876 33.5409C9.79065 33.6139 9.6253 33.6447 9.46083 33.63C9.29635 33.6153 9.13909 33.5557 9.00626 33.4576C8.87343 33.3595 8.77015 33.2267 8.70773 33.0739C8.6453 32.921 8.62613 32.7539 8.65233 32.5908L9.98714 24.294C10.0103 24.1499 9.99803 24.0024 9.95148 23.8641C9.90494 23.7259 9.82548 23.601 9.71995 23.5003L3.43908 17.5068C3.32047 17.3931 3.23529 17.249 3.19276 17.0902C3.15023 16.9315 3.15199 16.7641 3.19784 16.6063C3.24368 16.4485 3.33187 16.3062 3.45283 16.1949C3.5738 16.0837 3.72291 16.0077 3.88401 15.9751L13.032 14.1453C13.1591 14.12 13.2792 14.0674 13.3842 13.9913C13.4891 13.9152 13.5764 13.8173 13.64 13.7043L17.7564 6.38621C17.8328 6.25007 17.9434 6.13615 18.0772 6.05566C18.211 5.97518 18.3634 5.93088 18.5195 5.92714C18.6756 5.92339 18.83 5.96033 18.9675 6.0343C19.105 6.10828 19.2209 6.21676 19.3038 6.34909Z" fill="#FDB62F"/>
<path d="M13.4367 14.0625L13.0312 14.1435L3.88322 15.975C3.72353 16.0057 3.57533 16.0797 3.45473 16.1888C3.33414 16.2979 3.24576 16.4379 3.19922 16.5938L18.4992 20.8125L13.4367 14.0625Z" fill="#FD9A30"/>
<path d="M24.125 14.0624L23.9219 13.7378L22.0747 10.7819L19.3038 6.34823C19.2197 6.21274 19.1007 6.10233 18.9593 6.02852C18.8179 5.95471 18.6593 5.9202 18.5 5.92861V20.8124L24.125 14.0624Z" fill="#FD9A30"/>
<path d="M26.9375 23.8264L27.2801 23.5002L28.9456 21.9106L33.575 17.4938C33.6954 17.3803 33.7817 17.2355 33.8243 17.0756C33.8668 16.9157 33.8638 16.7471 33.8158 16.5887L18.5 20.8126L26.9375 23.8264Z" fill="#FD9A30"/>
<path d="M18.5 29.3158L20.6864 30.3953L27.0612 33.5408C27.2078 33.6142 27.3718 33.6457 27.5351 33.6317C27.6984 33.6177 27.8547 33.5588 27.9866 33.4614L18.5 20.8125V29.3158Z" fill="#FD9A30"/>
<path d="M10.0627 23.8264L8.65252 32.5907C8.62823 32.737 8.64127 32.8871 8.69043 33.027C8.7396 33.1669 8.8233 33.2922 8.93377 33.3911C11.0561 30.3322 18.5002 20.8125 18.5002 20.8125L10.0627 23.8264Z" fill="#FD9A30"/>
</svg>
