<svg xmlns="http://www.w3.org/2000/svg">
    <defs>
        <symbol id="copy" viewBox="0 0 24 24">
            <path
                d="M19.5 1.5H6.9375C6.83437 1.5 6.75 1.58437 6.75 1.6875V3C6.75 3.10312 6.83437 3.1875 6.9375 3.1875H18.5625V19.3125C18.5625 19.4156 18.6469 19.5 18.75 19.5H20.0625C20.1656 19.5 20.25 19.4156 20.25 19.3125V2.25C20.25 1.83516 19.9148 1.5 19.5 1.5ZM16.5 4.5H4.5C4.08516 4.5 3.75 4.83516 3.75 5.25V17.6883C3.75 17.8875 3.82969 18.0773 3.97031 18.218L8.03203 22.2797C8.08359 22.3312 8.14219 22.3734 8.20547 22.4086V22.4531H8.30391C8.38594 22.4836 8.47266 22.5 8.56172 22.5H16.5C16.9148 22.5 17.25 22.1648 17.25 21.75V5.25C17.25 4.83516 16.9148 4.5 16.5 4.5ZM8.95312 21H8.94844L5.4375 17.4891V17.4844H8.95312V21Z" />
        </symbol>
        <symbol id="edit" viewBox="0 0 24 24">
            <path
                d="M20.625 19.5938H3.375C2.96016 19.5938 2.625 19.9289 2.625 20.3438V21.1875C2.625 21.2906 2.70937 21.375 2.8125 21.375H21.1875C21.2906 21.375 21.375 21.2906 21.375 21.1875V20.3438C21.375 19.9289 21.0398 19.5938 20.625 19.5938ZM6.03984 17.625C6.08672 17.625 6.13359 17.6203 6.18047 17.6133L10.1227 16.9219C10.1695 16.9125 10.2141 16.8914 10.2469 16.8563L20.182 6.92109C20.2038 6.89941 20.221 6.87366 20.2328 6.8453C20.2445 6.81695 20.2506 6.78656 20.2506 6.75586C20.2506 6.72516 20.2445 6.69477 20.2328 6.66642C20.221 6.63806 20.2038 6.61231 20.182 6.59063L16.2867 2.69297C16.2422 2.64844 16.1836 2.625 16.1203 2.625C16.057 2.625 15.9984 2.64844 15.9539 2.69297L6.01875 12.6281C5.98359 12.6633 5.9625 12.7055 5.95312 12.7523L5.26172 16.6945C5.23892 16.8201 5.24707 16.9493 5.28545 17.071C5.32384 17.1927 5.39132 17.3032 5.48203 17.393C5.63672 17.543 5.83125 17.625 6.03984 17.625Z" />
        </symbol>
        <symbol id="save" viewBox="0 0 24 24">
            <path
                d="M20.9367 6.87422L17.1258 3.06328C16.8445 2.78203 16.4625 2.625 16.0641 2.625H3.375C2.96016 2.625 2.625 2.96016 2.625 3.375V20.625C2.625 21.0398 2.96016 21.375 3.375 21.375H20.625C21.0398 21.375 21.375 21.0398 21.375 20.625V7.93359C21.375 7.53516 21.218 7.15547 20.9367 6.87422ZM9 4.125H15V6.75H9V4.125ZM12 17.1094C10.1367 17.1094 8.625 15.5977 8.625 13.7344C8.625 11.8711 10.1367 10.3594 12 10.3594C13.8633 10.3594 15.375 11.8711 15.375 13.7344C15.375 15.5977 13.8633 17.1094 12 17.1094ZM12 11.8594C10.9641 11.8594 10.125 12.6984 10.125 13.7344C10.125 14.7703 10.9641 15.6094 12 15.6094C13.0359 15.6094 13.875 14.7703 13.875 13.7344C13.875 12.6984 13.0359 11.8594 12 11.8594Z" />
        </symbol>
        <symbol id="success" viewBox="0 0 16 16">
            <path
                d="M8 1.5C4.13438 1.5 1 4.63438 1 8.5C1 12.3656 4.13438 15.5 8 15.5C11.8656 15.5 15 12.3656 15 8.5C15 4.63438 11.8656 1.5 8 1.5ZM11.0234 6.21406L7.73281 10.7766C7.68682 10.8408 7.62619 10.8931 7.55595 10.9291C7.48571 10.9652 7.40787 10.9841 7.32891 10.9841C7.24994 10.9841 7.17211 10.9652 7.10186 10.9291C7.03162 10.8931 6.97099 10.8408 6.925 10.7766L4.97656 8.07656C4.91719 7.99375 4.97656 7.87813 5.07812 7.87813H5.81094C5.97031 7.87813 6.12187 7.95469 6.21562 8.08594L7.32812 9.62969L9.78438 6.22344C9.87813 6.09375 10.0281 6.01562 10.1891 6.01562H10.9219C11.0234 6.01562 11.0828 6.13125 11.0234 6.21406Z"
                fill="#278D3F" />
        </symbol>
        <symbol id="error" viewBox="0 0 16 16">
            <path
                d="M8 1.5C4.13438 1.5 1 4.63438 1 8.5C1 12.3656 4.13438 15.5 8 15.5C11.8656 15.5 15 12.3656 15 8.5C15 4.63438 11.8656 1.5 8 1.5ZM10.5844 11.1594L9.55313 11.1547L8 9.30313L6.44844 11.1531L5.41563 11.1578C5.34688 11.1578 5.29063 11.1031 5.29063 11.0328C5.29063 11.0031 5.30156 10.975 5.32031 10.9516L7.35313 8.52969L5.32031 6.10938C5.30143 6.08647 5.29096 6.0578 5.29063 6.02812C5.29063 5.95937 5.34688 5.90312 5.41563 5.90312L6.44844 5.90781L8 7.75938L9.55156 5.90938L10.5828 5.90469C10.6516 5.90469 10.7078 5.95937 10.7078 6.02969C10.7078 6.05937 10.6969 6.0875 10.6781 6.11094L8.64844 8.53125L10.6797 10.9531C10.6984 10.9766 10.7094 11.0047 10.7094 11.0344C10.7094 11.1031 10.6531 11.1594 10.5844 11.1594Z"
                fill="#F10203" />
        </symbol>
        <symbol id="info" viewBox="0 0 14 14">
            <path
                d="M7 0C3.13438 0 0 3.13438 0 7C0 10.8656 3.13438 14 7 14C10.8656 14 14 10.8656 14 7C14 3.13438 10.8656 0 7 0ZM7.5 10.375C7.5 10.4438 7.44375 10.5 7.375 10.5H6.625C6.55625 10.5 6.5 10.4438 6.5 10.375V6.125C6.5 6.05625 6.55625 6 6.625 6H7.375C7.44375 6 7.5 6.05625 7.5 6.125V10.375ZM7 5C6.80374 4.99599 6.61687 4.91522 6.47948 4.775C6.3421 4.63478 6.26515 4.4463 6.26515 4.25C6.26515 4.0537 6.3421 3.86522 6.47948 3.725C6.61687 3.58478 6.80374 3.50401 7 3.5C7.19626 3.50401 7.38313 3.58478 7.52052 3.725C7.6579 3.86522 7.73485 4.0537 7.73485 4.25C7.73485 4.4463 7.6579 4.63478 7.52052 4.775C7.38313 4.91522 7.19626 4.99599 7 5Z"></path>
        </symbol>

        <symbol id="check-mark" viewBox="0 0 12 12">
            <path
                d="M10.6872 2.22656H9.86806C9.75322 2.22656 9.64423 2.2793 9.57392 2.36953L4.74228 8.49023L2.42548 5.55469C2.39044 5.51019 2.34576 5.47421 2.29482 5.44945C2.24388 5.42469 2.18798 5.41179 2.13134 5.41172H1.3122C1.23369 5.41172 1.19033 5.50195 1.23837 5.56289L4.44814 9.6293C4.59814 9.81914 4.88642 9.81914 5.03759 9.6293L10.761 2.37656C10.8091 2.3168 10.7657 2.22656 10.6872 2.22656Z"
                fill="#517459" />
        </symbol>

        <symbol id="link" viewBox="0 0 19 18">
            <path
                d="M10.9543 12.5961C10.9191 12.5612 10.8715 12.5416 10.8219 12.5416C10.7723 12.5416 10.7247 12.5612 10.6895 12.5961L7.96602 15.3196C6.70508 16.5805 4.57695 16.7141 3.18477 15.3196C1.79023 13.925 1.92383 11.7992 3.18477 10.5383L5.9082 7.81487C5.98086 7.74221 5.98086 7.62268 5.9082 7.55003L4.97539 6.61721C4.94015 6.58232 4.89256 6.56274 4.84297 6.56274C4.79338 6.56274 4.74579 6.58232 4.71055 6.61721L1.98711 9.34065C0.00429684 11.3235 0.00429684 14.5321 1.98711 16.5125C3.96992 18.493 7.17852 18.4953 9.15899 16.5125L11.8824 13.7891C11.9551 13.7164 11.9551 13.5969 11.8824 13.5242L10.9543 12.5961ZM17.0152 1.48674C15.0324 -0.496069 11.8238 -0.496069 9.84336 1.48674L7.11758 4.21018C7.08268 4.24542 7.06311 4.29301 7.06311 4.3426C7.06311 4.3922 7.08268 4.43978 7.11758 4.47502L8.04805 5.40549C8.1207 5.47815 8.24023 5.47815 8.31289 5.40549L11.0363 2.68206C12.2973 1.42112 14.4254 1.28752 15.8176 2.68206C17.2121 4.07659 17.0785 6.20237 15.8176 7.46331L13.0941 10.1867C13.0592 10.222 13.0397 10.2696 13.0397 10.3192C13.0397 10.3688 13.0592 10.4163 13.0941 10.4516L14.027 11.3844C14.0996 11.4571 14.2191 11.4571 14.2918 11.3844L17.0152 8.66096C18.9957 6.67815 18.9957 3.46956 17.0152 1.48674ZM11.8004 5.72659C11.7652 5.69169 11.7176 5.67212 11.668 5.67212C11.6184 5.67212 11.5708 5.69169 11.5355 5.72659L6.22695 11.0328C6.19206 11.0681 6.17248 11.1157 6.17248 11.1653C6.17248 11.2149 6.19206 11.2624 6.22695 11.2977L7.15508 12.2258C7.22773 12.2985 7.34727 12.2985 7.41992 12.2258L12.7262 6.91956C12.7988 6.8469 12.7988 6.72737 12.7262 6.65471L11.8004 5.72659Z"/>
        </symbol>

        <symbol id="cross" viewBox="0 0 16 16">
            <path
                d="M9.21425 8L15.3666 0.666406C15.4697 0.544531 15.383 0.359375 15.2236 0.359375H13.3533C13.2432 0.359375 13.1377 0.408594 13.065 0.492969L7.99081 6.54219L2.91659 0.492969C2.84628 0.408594 2.74081 0.359375 2.62831 0.359375H0.758C0.598625 0.359375 0.511906 0.544531 0.615031 0.666406L6.76738 8L0.615031 15.3336C0.591931 15.3608 0.57711 15.394 0.57233 15.4293C0.56755 15.4647 0.57301 15.5006 0.588063 15.533C0.603116 15.5653 0.627129 15.5926 0.657252 15.6117C0.687375 15.6308 0.722341 15.6408 0.758 15.6406H2.62831C2.73847 15.6406 2.84394 15.5914 2.91659 15.507L7.99081 9.45781L13.065 15.507C13.1353 15.5914 13.2408 15.6406 13.3533 15.6406H15.2236C15.383 15.6406 15.4697 15.4555 15.3666 15.3336L9.21425 8Z"/>
        </symbol>
    </defs>
</svg>