<?xml version="1.0" encoding="utf-8"?><svg width="74" height="68" viewBox="0 0 74 68" xmlns="http://www.w3.org/2000/svg" xmlns:xlink="http://www.w3.org/1999/xlink"><view id="presents" viewBox="0 0 37 36"/><svg width="37" height="36" fill="none" viewBox="0 0 37 36" xmlns="http://www.w3.org/2000/svg"><path d="M34.813 30.578a1.485 1.485 0 0 0-.599-1.191l-1.651-1.228V16.313a9 9 0 0 0-9-9l2.25-4.805-1.125-.557a2.531 2.531 0 0 0-2.25 0 2.531 2.531 0 0 1-2.25 0 2.532 2.532 0 0 0-2.25 0l-1.125.557 2.25 4.804a9 9 0 0 0-9 9v11.813l-1.661 1.26a1.492 1.492 0 0 0 .901 2.677h24.025a1.485 1.485 0 0 0 1.484-1.484Z" fill="#DD4A43"/><path d="m34.213 29.387-1.651-1.228V16.312a8.966 8.966 0 0 0-2.826-6.536C27.28 22.488 17.988 29.025 12.139 32.063h21.189a1.485 1.485 0 0 0 .885-2.676Z" fill="#D13E37"/><path d="M23.563 7.875h-4.5a.562.562 0 1 1 0-1.125h4.5a.562.562 0 1 1 0 1.125Z" fill="#7A4321"/><path d="m20.576 13.81-.044-.065a5.427 5.427 0 0 1 .675-6.83.563.563 0 0 1 .963.397 5.265 5.265 0 0 0 2.647 4.562l1.007.575-.558.977-1.007-.575a6.395 6.395 0 0 1-3.038-4.06 4.303 4.303 0 0 0 .25 4.332l.045.068-.94.62Z" fill="#7A4321"/><path d="M16.813 25.313v9h-13.5v-9M17.938 21.938H2.188v3.375h15.75v-3.375Z" fill="#7EA82D"/><path d="m6.688 17.438 3.375 4.5H6.124l-2.25-2.813h2.25l.563-1.688Z" fill="#D13E37"/><path d="m13.438 17.438-3.376 4.5H14l2.25-2.813H14l-.563-1.688Z" fill="#B5362F"/><path d="M16.813 25.313h-13.5V27h13.5v-1.688Z" fill="#729C22"/><path d="M11.75 21.938H8.375v12.375h3.375V21.937Z" fill="#DD4A43"/><path d="m13.07 14.766-1.09-.282a7.287 7.287 0 0 1 2.245-3.656l.746.844a6.155 6.155 0 0 0-1.9 3.094ZM15.642 11.155l-.622-.936c.354-.235.728-.44 1.118-.61l.45 1.031c-.33.144-.646.316-.946.515Z" fill="#E66B65"/><path d="M6.125 29.25H5v3.375h1.125V29.25ZM6.125 27H5v1.125h1.125V27Z" fill="#95C43B"/></svg><view id="star" viewBox="37 0 37 36"/><svg width="37" height="36" fill="none" viewBox="0 0 37 36" x="37" xmlns="http://www.w3.org/2000/svg"><path d="M18.166 5.625a2.25 2.25 0 1 1 0-4.5 2.25 2.25 0 0 1 0 4.5Zm0-3.375a1.125 1.125 0 1 0 0 2.25 1.125 1.125 0 0 0 0-2.25Z" fill="#FD9A30"/><path d="m18.97 6.35 4.618 7.388a.9.9 0 0 0 .578.403l8.64 1.82a.9.9 0 0 1 .435 1.533L26.946 23.5a.9.9 0 0 0-.267.794l1.335 8.297a.9.9 0 0 1-1.287.95l-8.163-4.028a.9.9 0 0 0-.796 0L9.605 33.54a.9.9 0 0 1-1.287-.95l1.335-8.297a.9.9 0 0 0-.267-.794l-6.28-5.993a.9.9 0 0 1 .444-1.532l9.148-1.83a.899.899 0 0 0 .608-.44l4.116-7.319a.9.9 0 0 1 1.548-.037Z" fill="#FDB62F"/><path d="m13.103 14.063-.406.08-9.148 1.832a.889.889 0 0 0-.684.619l15.3 4.218-5.062-6.75ZM23.791 14.062l-.203-.324-1.847-2.956-2.771-4.434a.89.89 0 0 0-.804-.42v14.884l5.625-6.75ZM26.604 23.826l.342-.326 1.666-1.59 4.629-4.416a.89.89 0 0 0 .24-.905l-15.315 4.224 8.438 3.013ZM18.166 29.316l2.186 1.08 6.375 3.145a.888.888 0 0 0 .926-.08l-9.487-12.648v8.503ZM9.729 23.826l-1.41 8.765a.88.88 0 0 0 .28.8c2.123-3.059 9.567-12.578 9.567-12.578L9.73 23.825Z" fill="#FD9A30"/></svg><view id="note" viewBox="0 36 33 32"/><svg width="33" height="32" fill="none" viewBox="0 0 33 32" y="36" xmlns="http://www.w3.org/2000/svg"><path d="m5.832 12.327-3.5 2.173v16h29v-16l-3.5-2.173" fill="#729C22"/><path d="M23.832 1.5h-18V28h22V5.5l-4-4Z" fill="#DD4A43"/><path d="M24.282 1.95c-2.977 11.758-13.044 20.088-18.45 23.83V28h22V5.5l-3.55-3.55Z" fill="#D13E37"/><path d="M31.332 30.5h-29v-16l14.5 10 14.5-10v16Z" fill="#7EA82D"/><path d="m21.965 12.809-2.069.883-2.065-1.192 2.065-1.192 2.07.883.392-.919-1.38-.589 1.3-.75-.5-.866-1.3.75.18-1.489-.993-.12-.27 2.234-2.064 1.192V9.25l1.8-1.35-.6-.8-1.2.9V6.5h-1V8l-1.2-.9-.6.8 1.8 1.35v2.384l-2.064-1.192-.27-2.233-.992.119.18 1.489-1.3-.75-.5.866 1.3.75-1.38.589.392.92 2.07-.884L15.83 12.5l-2.065 1.192-2.069-.883-.392.919 1.38.589-1.3.75.5.866 1.3-.75-.18 1.489.993.12.269-2.234 2.064-1.192v2.384l-1.8 1.35.6.8 1.2-.9v1.5h1V17l1.2.9.6-.8-1.8-1.35v-2.384l2.065 1.192.269 2.233.993-.119-.18-1.489 1.3.75.5-.866-1.3-.75 1.38-.589-.393-.92Z" fill="#EBEBE8"/><path d="M23.832 5.5v-4l4 4h-4Z" fill="#7EA82D"/><path d="M4.832 17.5h-1v1h1v-1ZM4.832 19.5h-1v5h1v-5Z" fill="#97BF49"/><path d="m11.338 20.71-9.006 9.08v.71h.704l9.138-9.212-.836-.577ZM22.326 20.71l-.836.578 9.138 9.212h.704v-.71l-9.006-9.08Z" fill="#729C22"/></svg></svg>