<?xml version="1.0" encoding="utf-8"?><svg width="49" height="24" viewBox="0 0 49 24" xmlns="http://www.w3.org/2000/svg" xmlns:xlink="http://www.w3.org/1999/xlink"><view id="presents" viewBox="0 0 25 24"/><svg width="25" height="24" fill="none" viewBox="0 0 25 24" xmlns="http://www.w3.org/2000/svg"><path d="M23.375 20.386a.992.992 0 0 0-.399-.794l-1.101-.819v-7.898a6 6 0 0 0-6-6l1.5-3.203-.75-.371a1.688 1.688 0 0 0-1.5 0 1.688 1.688 0 0 1-1.5 0 1.688 1.688 0 0 0-1.5 0l-.75.371 1.5 3.203a6 6 0 0 0-6 6v7.875l-1.107.84a.994.994 0 0 0 .6 1.785h16.017a.99.99 0 0 0 .99-.99Z" fill="#DD4A43"/><path d="m22.976 19.592-1.101-.819v-7.897a5.98 5.98 0 0 0-1.884-4.358c-1.637 8.474-7.832 12.833-11.732 14.857h14.126a.99.99 0 0 0 .59-1.783Z" fill="#D13E37"/><path d="M15.875 5.25h-3a.375.375 0 0 1 0-.75h3a.375.375 0 0 1 0 .75Z" fill="#7A4321"/><path d="m13.884 9.207-.029-.043a3.618 3.618 0 0 1 .45-4.554.376.376 0 0 1 .642.265 3.51 3.51 0 0 0 1.764 3.041l.672.384-.372.651-.672-.383a4.265 4.265 0 0 1-2.025-2.706 2.87 2.87 0 0 0 .167 2.887l.03.045-.627.413Z" fill="#7A4321"/><path d="M11.375 16.875v6h-9v-6M12.125 14.625h-10.5v2.25h10.5v-2.25Z" fill="#7EA82D"/><path d="m4.625 11.625 2.25 3H4.25l-1.5-1.875h1.5l.375-1.125Z" fill="#D13E37"/><path d="m9.125 11.625-2.25 3H9.5L11 12.75H9.5l-.375-1.125Z" fill="#B5362F"/><path d="M11.375 16.875h-9V18h9v-1.125Z" fill="#729C22"/><path d="M8 14.625H5.75v8.25H8v-8.25Z" fill="#DD4A43"/><path d="m8.88 9.844-.726-.188A4.858 4.858 0 0 1 9.65 7.22l.497.562a4.103 4.103 0 0 0-1.266 2.063ZM10.595 7.438l-.415-.625c.236-.157.485-.292.745-.406l.3.687c-.22.096-.43.211-.63.344Z" fill="#E66B65"/><path d="M4.25 19.5H3.5v2.25h.75V19.5ZM4.25 18H3.5v.75h.75V18Z" fill="#95C43B"/></svg><view id="star" viewBox="25 0 24 24"/><svg width="24" height="24" fill="none" viewBox="0 0 24 24" x="25" xmlns="http://www.w3.org/2000/svg"><path d="M12 3.75a1.5 1.5 0 1 1 0-3 1.5 1.5 0 0 1 0 3Zm0-2.25A.75.75 0 1 0 12 3a.75.75 0 0 0 0-1.5Z" fill="#FD9A30"/><path d="m12.537 4.233 3.078 4.926a.6.6 0 0 0 .385.269l5.76 1.212a.6.6 0 0 1 .29 1.022l-4.196 4.005a.6.6 0 0 0-.178.529l.89 5.531a.601.601 0 0 1-.858.633l-5.442-2.685a.6.6 0 0 0-.53 0L6.292 22.36a.6.6 0 0 1-.857-.633l.89-5.531a.6.6 0 0 0-.179-.53L1.96 11.672a.6.6 0 0 1 .297-1.021l6.098-1.22a.6.6 0 0 0 .406-.294l2.744-4.879a.6.6 0 0 1 1.031-.024Z" fill="#FDB62F"/><path d="m8.625 9.375-.27.054-6.099 1.221a.593.593 0 0 0-.456.412L12 13.876l-3.375-4.5ZM15.75 9.374l-.135-.216-1.232-1.97-1.847-2.956a.594.594 0 0 0-.536-.28v9.922l3.75-4.5ZM17.625 15.885l.228-.218 1.11-1.06 3.087-2.944a.592.592 0 0 0 .16-.603L12 13.875l5.625 2.01ZM12 19.544l1.458.72 4.25 2.096a.592.592 0 0 0 .616-.052L12 13.875v5.669Z" fill="#FD9A30"/><path d="m6.375 15.884-.94 5.843a.587.587 0 0 0 .188.534C7.038 20.22 12 13.875 12 13.875l-5.625 2.01Z" fill="#FD9A30"/></svg></svg>