<svg width="0" height="0" class="hidden">
  <symbol fill="none" xmlns="http://www.w3.org/2000/svg" viewBox="0 0 22 16" id="fugar">
    <path d="M5.58569 6.56997C5.58569 6.56997 11.7796 -0.335339 20.281 1.25966L19.1436 3.36342C10.9925 2.49609 6.52692 7.53419 6.52692 7.53419" fill="#F3970D"></path>
    <path d="M8.74268 9.68125C8.74268 9.68125 12.9336 5.45203 19.3169 5.87033L21.2361 4.46288L19.1437 3.36309C19.1437 3.36309 10.8772 2.76153 6.70166 7.55407L8.74268 9.68125Z" fill="#FA6F00"></path>
    <path d="M8.74287 9.96021H8.74029C8.70304 9.95989 8.66623 9.95212 8.63203 9.93736C8.59782 9.9226 8.56692 9.90115 8.54113 9.87427L6.50011 7.74731C6.45182 7.69697 6.42411 7.63039 6.42244 7.56065C6.42077 7.49091 6.44526 7.42307 6.49109 7.37048C7.46992 6.24663 8.74888 5.32216 10.2919 4.62241C11.5187 4.06618 12.9145 3.65024 14.4407 3.38577C17.0333 2.93653 19.0781 3.07833 19.1639 3.08499C19.2022 3.0878 19.2395 3.09848 19.2734 3.11635L21.366 4.21593C21.408 4.23796 21.4437 4.27031 21.4697 4.30995C21.4957 4.34959 21.5112 4.39519 21.5148 4.44248C21.5183 4.48976 21.5097 4.53716 21.4899 4.58022C21.47 4.62328 21.4395 4.66057 21.4013 4.68858L19.4823 6.09538C19.4293 6.13423 19.3643 6.15317 19.2988 6.14888C17.8714 6.05621 16.4385 6.19367 15.0548 6.556C13.9171 6.85527 12.8199 7.29129 11.7872 7.85452C10.3516 8.63376 9.29781 9.5187 8.94095 9.87878C8.91492 9.90472 8.88402 9.92526 8.85003 9.93923C8.81603 9.95321 8.77962 9.96033 8.74287 9.96021ZM7.0832 7.54729L8.75275 9.28753C9.14871 8.92939 10.0949 8.1394 11.5028 7.37284C12.5767 6.7859 13.7179 6.33141 14.9014 6.01932C16.3137 5.64806 17.7758 5.50168 19.2337 5.58556L20.7112 4.5021L19.0676 3.63842C18.7202 3.6193 16.8173 3.5396 14.5237 3.93921C13.0462 4.19509 11.6972 4.59749 10.5155 5.13417C9.13818 5.76001 7.98447 6.57018 7.0832 7.54729Z" fill="#FA6F00"></path>
    <path d="M9.80187 7.6571C9.83293 7.60112 9.84774 7.53759 9.84464 7.47365C9.84154 7.40971 9.82064 7.3479 9.7843 7.2952C9.74797 7.2425 9.69764 7.20098 9.63898 7.17534C9.58033 7.1497 9.51568 7.14095 9.45232 7.15007L6.70231 7.55311C6.64733 7.56104 6.59125 7.55553 6.53887 7.53704C6.48649 7.51856 6.43936 7.48766 6.40153 7.44698L4.83962 5.76433L4.50983 5.40984C4.50382 5.40339 4.49759 5.39716 4.49136 5.39115C4.47894 5.37963 4.46573 5.36901 4.45182 5.35935C4.44495 5.35462 4.43807 5.35011 4.43034 5.34603C4.41656 5.33782 4.4022 5.33064 4.38737 5.32454C4.31495 5.29547 4.23478 5.29191 4.16007 5.31445C4.12331 5.32536 4.08861 5.34228 4.05737 5.36451C4.04475 5.37349 4.03277 5.38332 4.02149 5.39394C4.00437 5.41015 3.98897 5.42807 3.97551 5.44743C3.96639 5.46074 3.95821 5.47467 3.95102 5.48911C3.94737 5.49642 3.94415 5.50394 3.94093 5.5106C3.9311 5.53445 3.9239 5.55931 3.91944 5.58472L3.45344 8.32612C3.44412 8.38089 3.42166 8.43258 3.38798 8.47677C3.3543 8.52096 3.31042 8.55633 3.26008 8.57985L0.737602 9.74967C0.679682 9.77678 0.630472 9.8195 0.595502 9.87304C0.560533 9.92658 0.541191 9.98881 0.539651 10.0527C0.53811 10.1167 0.554433 10.1798 0.586784 10.2349C0.619135 10.2901 0.666231 10.3351 0.722777 10.365L3.18446 11.6555C3.23368 11.6814 3.27589 11.7188 3.30748 11.7646C3.33906 11.8104 3.35907 11.8631 3.36579 11.9183L3.69837 14.6771C3.70631 14.7405 3.73174 14.8004 3.77182 14.8501C3.81189 14.8998 3.86502 14.9374 3.92525 14.9586C3.98548 14.9798 4.05042 14.9838 4.11281 14.9702C4.17519 14.9565 4.23255 14.9258 4.27844 14.8814L6.26661 12.939C6.30644 12.9002 6.35511 12.8715 6.40844 12.8556C6.46176 12.8397 6.51815 12.837 6.57276 12.8477L9.29999 13.3848C9.36278 13.397 9.42771 13.3913 9.48748 13.3686C9.54725 13.3459 9.5995 13.3069 9.63834 13.2561C9.67718 13.2053 9.70108 13.1447 9.70734 13.081C9.71361 13.0174 9.702 12.9532 9.67382 12.8958L8.44062 10.4047C8.41601 10.3548 8.40388 10.2997 8.40527 10.2441C8.40665 10.1885 8.42151 10.1341 8.44857 10.0855L9.80187 7.6571Z" fill="#F3B427"></path>
    <path d="M19.3169 5.87012C19.3169 5.87012 12.7383 6.43279 8.74268 9.92679L9.08965 11.2143C9.08965 11.2143 14.126 7.31988 21.4606 8.09568L19.3169 5.87012Z" fill="#F3970D"></path>
    <path d="M9.08956 11.4939C9.02814 11.4939 8.96844 11.4736 8.9197 11.4363C8.87096 11.3989 8.83589 11.3465 8.81993 11.2872L8.47274 9.99988C8.45915 9.9494 8.46 9.89612 8.47519 9.8461C8.49038 9.79608 8.51931 9.75133 8.55868 9.71693C9.49002 8.90225 10.6356 8.17844 11.9633 7.56549C13.0205 7.07758 14.1953 6.65821 15.4554 6.3194C17.5989 5.74233 19.2248 5.5986 19.2931 5.5928C19.3343 5.5893 19.3758 5.595 19.4146 5.60949C19.4533 5.62398 19.4884 5.6469 19.5172 5.67659L21.6615 7.90258C21.7013 7.94385 21.7275 7.99635 21.7364 8.05297C21.7453 8.10959 21.7366 8.16759 21.7114 8.21908C21.6862 8.27058 21.6458 8.31308 21.5957 8.34082C21.5455 8.36857 21.488 8.38021 21.431 8.37416C19.7813 8.20008 18.1155 8.25322 16.4802 8.53207C15.1611 8.75763 13.87 9.12381 12.6289 9.62434C10.5133 10.4758 9.2726 11.426 9.26036 11.4355C9.21146 11.4733 9.15139 11.4939 9.08956 11.4939ZM9.05797 10.0242L9.25477 10.7546C9.77039 10.4064 10.8596 9.73391 12.4201 9.10527C13.6982 8.58973 15.0278 8.21261 16.3863 7.98035C17.8249 7.73503 19.2872 7.65896 20.7435 7.75369L19.2098 6.16235C18.7814 6.20876 17.3473 6.38751 15.5901 6.86145C14.362 7.19231 13.2186 7.6018 12.191 8.07553C10.9772 8.6367 9.92379 9.29176 9.05797 10.0242Z" fill="#F3970D"></path>
    <path d="M0.791529 9.81716L4.10721 10.7887C4.12493 10.7939 4.14063 10.8044 4.15216 10.8188C4.1637 10.8332 4.17051 10.8508 4.17166 10.8692L4.32957 13.3139C4.33047 13.3283 4.33482 13.3423 4.34227 13.3547C4.34972 13.367 4.36004 13.3774 4.37236 13.3849C4.38468 13.3924 4.39863 13.3968 4.41303 13.3978C4.42742 13.3988 4.44184 13.3962 4.45504 13.3904L5.86055 12.7781C5.87972 12.7697 5.90122 12.7682 5.92135 12.774C5.94148 12.7797 5.95897 12.7923 5.9708 12.8096C5.98262 12.8269 5.98804 12.8478 5.98611 12.8686C5.98418 12.8895 5.97503 12.909 5.96024 12.9238L4.21055 14.6855C4.20126 14.695 4.18997 14.7022 4.17752 14.7067C4.16507 14.7113 4.15177 14.713 4.13858 14.7117L3.74799 14.6761C3.7274 14.6742 3.7081 14.6652 3.69335 14.6507C3.67859 14.6362 3.66928 14.6171 3.667 14.5966L3.35483 11.8036C3.35334 11.7901 3.3488 11.7771 3.34154 11.7656C3.33428 11.7541 3.3245 11.7444 3.31293 11.7372L0.797974 10.1738C0.781812 10.1636 0.769317 10.1486 0.76231 10.1308L0.683033 9.93747C0.676583 9.92181 0.674696 9.90464 0.677589 9.88795C0.680482 9.87125 0.688037 9.85572 0.699382 9.84314C0.710727 9.83056 0.7254 9.82144 0.741705 9.81685C0.75801 9.81225 0.775283 9.81236 0.791529 9.81716Z" fill="#F3970D"></path>
    <path d="M9.80187 7.6571C9.83293 7.60112 9.84774 7.53759 9.84464 7.47365C9.84154 7.40971 9.82064 7.3479 9.7843 7.2952C9.74797 7.2425 9.69764 7.20098 9.63898 7.17534C9.58033 7.1497 9.51568 7.14095 9.45232 7.15007L6.70231 7.55311C6.64733 7.56104 6.59125 7.55553 6.53887 7.53704C6.48649 7.51856 6.43936 7.48766 6.40153 7.44698L4.83962 5.76433L4.50983 5.40984C4.50382 5.40339 4.49759 5.39716 4.49136 5.39115C4.47894 5.37963 4.46573 5.36901 4.45182 5.35935C4.44495 5.35462 4.43807 5.35011 4.43034 5.34603C4.41656 5.33782 4.4022 5.33064 4.38737 5.32454C4.31495 5.29547 4.23478 5.29191 4.16007 5.31445C4.12331 5.32536 4.08861 5.34228 4.05737 5.36451C4.04475 5.37349 4.03277 5.38332 4.02149 5.39394C4.00437 5.41015 3.98897 5.42807 3.97551 5.44743C3.96639 5.46074 3.95821 5.47467 3.95102 5.48911C3.94737 5.49642 3.94415 5.50394 3.94093 5.5106C3.9311 5.53445 3.9239 5.55931 3.91944 5.58472L3.45344 8.32612C3.44412 8.38089 3.42166 8.43258 3.38798 8.47677C3.3543 8.52096 3.31042 8.55633 3.26008 8.57985L0.737602 9.74967C0.679682 9.77678 0.630472 9.8195 0.595502 9.87304C0.560533 9.92658 0.541191 9.98881 0.539651 10.0527C0.53811 10.1167 0.554433 10.1798 0.586784 10.2349C0.619135 10.2901 0.666231 10.3351 0.722777 10.365L3.18446 11.6555C3.23368 11.6814 3.27589 11.7188 3.30748 11.7646C3.33906 11.8104 3.35907 11.8631 3.36579 11.9183L3.69837 14.6771C3.70631 14.7405 3.73174 14.8004 3.77182 14.8501C3.81189 14.8998 3.86502 14.9374 3.92525 14.9586C3.98548 14.9798 4.05042 14.9838 4.11281 14.9702C4.17519 14.9565 4.23255 14.9258 4.27844 14.8814L6.26661 12.939C6.30644 12.9002 6.35511 12.8715 6.40844 12.8556C6.46176 12.8397 6.51815 12.837 6.57276 12.8477L9.29999 13.3848C9.36278 13.397 9.42771 13.3913 9.48748 13.3686C9.54725 13.3459 9.5995 13.3069 9.63834 13.2561C9.67718 13.2053 9.70108 13.1447 9.70734 13.081C9.71361 13.0174 9.702 12.9532 9.67382 12.8958L8.44062 10.4047C8.41601 10.3548 8.40388 10.2997 8.40527 10.2441C8.40665 10.1885 8.42151 10.1341 8.44857 10.0855L9.80187 7.6571Z" stroke="#B73F39" stroke-linecap="round" stroke-linejoin="round"></path>
    <path d="M5.58569 6.56997C5.58569 6.56997 11.7796 -0.335339 20.281 1.25966L19.1436 3.36342C10.9925 2.49609 6.52692 7.53419 6.52692 7.53419" stroke="#B73F39" stroke-linecap="round" stroke-linejoin="round"></path>
    <path d="M9.0896 11.2143C9.0896 11.2143 14.126 7.31988 21.4605 8.09568L19.3168 5.87012" stroke="#B73F39" stroke-linecap="round" stroke-linejoin="round"></path>
    <path d="M8.74268 9.68143C8.74268 9.68143 12.9336 5.45221 19.3169 5.87052L21.2361 4.46307L19.1437 3.36328" stroke="#B73F39" stroke-linecap="round" stroke-linejoin="round"></path>
    <path d="M5.71167 8.21444C5.67944 8.21443 5.64762 8.20716 5.61857 8.19318C5.58952 8.17919 5.564 8.15885 5.54388 8.13366L4.36094 6.65574C4.32727 6.6111 4.31234 6.55509 4.3193 6.49961C4.32627 6.44413 4.35459 6.39355 4.39825 6.35861C4.44191 6.32368 4.49747 6.30714 4.55312 6.31252C4.60878 6.31789 4.66015 6.34475 4.69632 6.3874L5.87925 7.86532C5.90454 7.89691 5.9204 7.935 5.92499 7.9752C5.92959 8.0154 5.92274 8.05609 5.90523 8.09257C5.88772 8.12905 5.86026 8.15984 5.82602 8.1814C5.79177 8.20296 5.75214 8.21442 5.71167 8.21444Z" fill="#FFEABA"></path>
  </symbol>
  <symbol fill="none" xmlns="http://www.w3.org/2000/svg" viewBox="0 0 24 20" id="gift">
    <path d="M14.1143 3.86426H1.13623V6.27631H14.1143V3.86426Z" fill="#FA6F00"></path>
    <path d="M14.115 6.55581H1.13623C1.06216 6.55581 0.991116 6.52638 0.938738 6.474C0.886359 6.42163 0.856934 6.35059 0.856934 6.27651V3.86426C0.856934 3.79018 0.886359 3.71914 0.938738 3.66676C0.991116 3.61439 1.06216 3.58496 1.13623 3.58496H14.115C14.189 3.58496 14.2601 3.61439 14.3124 3.66676C14.3648 3.71914 14.3942 3.79018 14.3942 3.86426V6.27651C14.3942 6.35059 14.3648 6.42163 14.3124 6.474C14.2601 6.52638 14.189 6.55581 14.115 6.55581ZM1.41553 5.99722H13.8357V4.14355H1.41553V5.99722Z" fill="black"></path>
    <path d="M10.8044 15.6193H2.38184V6.27637H12.8688V7.58068" fill="#FA9800"></path>
    <path d="M10.8042 15.8984H2.38232C2.30825 15.8984 2.23721 15.8689 2.18483 15.8166C2.13245 15.7642 2.10303 15.6931 2.10303 15.6191V6.27637C2.10303 6.20229 2.13245 6.13125 2.18483 6.07887C2.23721 6.0265 2.30825 5.99707 2.38232 5.99707H12.8689C12.9429 5.99707 13.014 6.0265 13.0663 6.07887C13.1187 6.13125 13.1482 6.20229 13.1482 6.27637V7.58068C13.1482 7.65476 13.1187 7.7258 13.0663 7.77818C13.014 7.83056 12.9429 7.85998 12.8689 7.85998C12.7948 7.85998 12.7237 7.83056 12.6714 7.77818C12.619 7.7258 12.5896 7.65476 12.5896 7.58068V6.55566H2.66098V15.3398H10.8036C10.8776 15.3398 10.9487 15.3692 11.0011 15.4216C11.0534 15.474 11.0829 15.545 11.0829 15.6191C11.0829 15.6931 11.0534 15.7642 11.0011 15.8166C10.9487 15.8689 10.8776 15.8984 10.8036 15.8984H10.8042Z" fill="black"></path>
    <path d="M9.09483 3.86426H6.15576V6.27631H9.09483V3.86426Z" fill="#FE5B4A"></path>
    <path d="M9.09483 6.55581H6.15576C6.08169 6.55581 6.01065 6.52638 5.95827 6.474C5.90589 6.42163 5.87646 6.35059 5.87646 6.27651V3.86426C5.87646 3.79018 5.90589 3.71914 5.95827 3.66676C6.01065 3.61439 6.08169 3.58496 6.15576 3.58496H9.09483C9.1689 3.58496 9.23994 3.61439 9.29232 3.66676C9.3447 3.71914 9.37412 3.79018 9.37412 3.86426V6.27651C9.37412 6.35059 9.3447 6.42163 9.29232 6.474C9.23994 6.52638 9.1689 6.55581 9.09483 6.55581ZM6.43506 5.99722H8.81553V4.14355H6.43506V5.99722Z" fill="black"></path>
    <path d="M8.67681 6.51172H6.57349V15.6187H8.67681V6.51172Z" fill="#FE5B4A"></path>
    <path d="M8.67711 15.8978H6.57422C6.50014 15.8978 6.4291 15.8684 6.37673 15.816C6.32435 15.7637 6.29492 15.6926 6.29492 15.6185V6.51172C6.29492 6.43765 6.32435 6.3666 6.37673 6.31423C6.4291 6.26185 6.50014 6.23242 6.57422 6.23242H8.67754C8.75161 6.23242 8.82265 6.26185 8.87503 6.31423C8.92741 6.3666 8.95684 6.43765 8.95684 6.51172V15.6185C8.95684 15.6553 8.9496 15.6916 8.93554 15.7255C8.92147 15.7594 8.90086 15.7902 8.87488 15.8162C8.8489 15.8421 8.81806 15.8627 8.78413 15.8767C8.75019 15.8907 8.71382 15.8979 8.67711 15.8978ZM6.85309 15.3392H8.39781V6.79102H6.85352L6.85309 15.3392Z" fill="black"></path>
    <path d="M7.51416 3.86422L10.1819 1.19629L11.8138 2.82846L10.7783 3.86422" fill="#FE5B4A"></path>
    <path d="M7.51406 4.14321C7.45883 4.14319 7.40485 4.1268 7.35894 4.09611C7.31303 4.06542 7.27725 4.0218 7.25612 3.97078C7.23499 3.91976 7.22946 3.86362 7.24022 3.80945C7.25099 3.75529 7.27758 3.70553 7.31662 3.66647L9.98433 0.998745C10.0367 0.946398 10.1077 0.916992 10.1818 0.916992C10.2558 0.916992 10.3268 0.946398 10.3792 0.998745L12.012 2.63156C12.0644 2.68394 12.0938 2.75496 12.0938 2.82901C12.0938 2.90305 12.0644 2.97407 12.012 3.02645L10.9763 4.06221C10.9239 4.11458 10.8528 4.14398 10.7787 4.14396C10.7047 4.14394 10.6336 4.1145 10.5813 4.0621C10.5289 4.00971 10.4995 3.93866 10.4995 3.86459C10.4995 3.79051 10.529 3.71948 10.5814 3.66711L11.4193 2.82922L10.1822 1.59215L7.7115 4.06286C7.68549 4.08858 7.65467 4.10892 7.62079 4.12271C7.5869 4.1365 7.55064 4.14346 7.51406 4.14321Z" fill="black"></path>
    <path d="M7.51399 3.86422L4.84628 1.19629L3.21411 2.82846L4.24987 3.86422" fill="#FE5B4A"></path>
    <path d="M7.51362 4.14308C7.47695 4.14317 7.44063 4.136 7.40675 4.12199C7.37286 4.10798 7.34208 4.0874 7.31618 4.06144L4.84548 1.59074L3.60883 2.82824L4.44672 3.66613C4.47267 3.69207 4.49325 3.72287 4.50729 3.75677C4.52133 3.79066 4.52855 3.82699 4.52855 3.86368C4.52855 3.90037 4.52133 3.9367 4.50729 3.97059C4.49325 4.00449 4.47267 4.03529 4.44672 4.06123C4.42078 4.08717 4.38998 4.10775 4.35609 4.12179C4.32219 4.13583 4.28586 4.14306 4.24918 4.14306C4.21249 4.14306 4.17616 4.13583 4.14226 4.12179C4.10837 4.10775 4.07757 4.08717 4.05163 4.06123L3.01608 3.02547C2.96373 2.97309 2.93433 2.90207 2.93433 2.82802C2.93433 2.75398 2.96373 2.68296 3.01608 2.63058L4.64889 0.997769C4.70127 0.945422 4.77229 0.916016 4.84633 0.916016C4.92038 0.916016 4.9914 0.945422 5.04378 0.997769L7.71106 3.66635C7.7501 3.70541 7.77669 3.75516 7.78746 3.80933C7.79822 3.86349 7.79269 3.91963 7.77156 3.97066C7.75043 4.02168 7.71465 4.06529 7.66874 4.09598C7.62283 4.12667 7.56885 4.14306 7.51362 4.14308Z" fill="black"></path>
    <path opacity="0.6" d="M12.8686 13.3049V6.51172H2.56128L12.8686 13.3049Z" fill="#B73F39"></path>
    <path d="M22.8631 9.22363H9.88501V11.1895H22.8631V9.22363Z" fill="#469BB5"></path>
    <path d="M22.8629 11.4687H9.88501C9.81094 11.4687 9.7399 11.4393 9.68752 11.3869C9.63514 11.3346 9.60571 11.2635 9.60571 11.1894V9.22363C9.60571 9.14956 9.63514 9.07852 9.68752 9.02614C9.7399 8.97376 9.81094 8.94434 9.88501 8.94434H22.8629C22.9369 8.94434 23.008 8.97376 23.0604 9.02614C23.1127 9.07852 23.1422 9.14956 23.1422 9.22363V11.1894C23.1422 11.2635 23.1127 11.3346 23.0604 11.3869C23.008 11.4393 22.9369 11.4687 22.8629 11.4687ZM10.1643 10.9101H22.5836V9.50293H10.1643V10.9101Z" fill="black"></path>
    <path d="M21.6176 11.1895H11.1306V18.8042H21.6176V11.1895Z" fill="#4DBAB5"></path>
    <path d="M21.6176 19.0837H11.1306C11.0565 19.0837 10.9855 19.0543 10.9331 19.0019C10.8807 18.9495 10.8513 18.8785 10.8513 18.8044V11.1895C10.8513 11.1154 10.8807 11.0443 10.9331 10.992C10.9855 10.9396 11.0565 10.9102 11.1306 10.9102H21.6176C21.6916 10.9102 21.7627 10.9396 21.8151 10.992C21.8674 11.0443 21.8969 11.1154 21.8969 11.1895V18.8044C21.8969 18.8785 21.8674 18.9495 21.8151 19.0019C21.7627 19.0543 21.6916 19.0837 21.6176 19.0837ZM11.4099 18.5251H21.3383V11.4688H11.4099V18.5251Z" fill="black"></path>
    <path d="M17.8436 9.22363H14.9045V11.1895H17.8436V9.22363Z" fill="#4161B5"></path>
    <path d="M17.8436 11.4687H14.9045C14.8305 11.4687 14.7594 11.4393 14.707 11.3869C14.6547 11.3346 14.6252 11.2635 14.6252 11.1894V9.22363C14.6252 9.14956 14.6547 9.07852 14.707 9.02614C14.7594 8.97376 14.8305 8.94434 14.9045 8.94434H17.8436C17.9177 8.94434 17.9887 8.97376 18.0411 9.02614C18.0935 9.07852 18.1229 9.14956 18.1229 9.22363V11.1894C18.1229 11.2635 18.0935 11.3346 18.0411 11.3869C17.9887 11.4393 17.9177 11.4687 17.8436 11.4687ZM15.1838 10.9101H17.5643V9.50293H15.1838V10.9101Z" fill="black"></path>
    <path d="M17.4261 11.3818H15.3228V18.8043H17.4261V11.3818Z" fill="#4161B5"></path>
    <path d="M17.4261 19.0838H15.3228C15.2487 19.0838 15.1776 19.0544 15.1253 19.002C15.0729 18.9496 15.0435 18.8786 15.0435 18.8045V11.3818C15.0435 11.3078 15.0729 11.2367 15.1253 11.1843C15.1776 11.132 15.2487 11.1025 15.3228 11.1025H17.4261C17.5001 11.1025 17.5712 11.132 17.6236 11.1843C17.6759 11.2367 17.7054 11.3078 17.7054 11.3818V18.8045C17.7054 18.8786 17.6759 18.9496 17.6236 19.002C17.5712 19.0544 17.5001 19.0838 17.4261 19.0838ZM15.6021 18.5252H17.1468V11.6611H15.6021V18.5252Z" fill="black"></path>
    <path d="M16.2629 9.22403L18.9307 7.0498L20.5626 8.3799L19.5271 9.22403" fill="#4161B5"></path>
    <path d="M19.5275 9.50268C19.4698 9.50273 19.4136 9.48491 19.3664 9.45168C19.3193 9.41845 19.2835 9.37143 19.2642 9.31709C19.2448 9.26275 19.2428 9.20375 19.2583 9.14819C19.2738 9.09264 19.3062 9.04325 19.3509 9.00682L20.1209 8.37927L18.9309 7.41011L16.4387 9.44038C16.4104 9.46455 16.3776 9.48282 16.3421 9.49412C16.3066 9.50542 16.2693 9.50951 16.2322 9.50616C16.1951 9.50281 16.1591 9.49209 16.1262 9.47462C16.0934 9.45715 16.0643 9.43329 16.0408 9.40443C16.0173 9.37558 15.9998 9.34232 15.9893 9.3066C15.9788 9.27088 15.9756 9.23343 15.9798 9.19645C15.984 9.15947 15.9956 9.1237 16.0138 9.09124C16.032 9.05879 16.0566 9.03031 16.0859 9.00747L18.7537 6.83325C18.8035 6.79267 18.8658 6.77051 18.93 6.77051C18.9943 6.77051 19.0566 6.79267 19.1064 6.83325L20.7393 8.16335C20.7714 8.18954 20.7973 8.22256 20.8151 8.26002C20.8329 8.29748 20.8422 8.33844 20.8422 8.37991C20.8422 8.42138 20.8329 8.46234 20.8151 8.4998C20.7973 8.53726 20.7714 8.57028 20.7393 8.59647L19.7035 9.44038C19.6538 9.48085 19.5916 9.50287 19.5275 9.50268Z" fill="black"></path>
    <path d="M16.2627 9.22403L13.595 7.0498L11.9629 8.3799L12.9986 9.22403" fill="#4161B5"></path>
    <path d="M12.9977 9.50334C12.9334 9.50328 12.8711 9.48104 12.8213 9.44039L11.7858 8.59648C11.7536 8.57029 11.7277 8.53726 11.7099 8.4998C11.6921 8.46235 11.6829 8.42139 11.6829 8.37992C11.6829 8.33844 11.6921 8.29749 11.7099 8.26003C11.7277 8.22257 11.7536 8.18954 11.7858 8.16335L13.4186 6.83325C13.4684 6.79267 13.5307 6.77051 13.595 6.77051C13.6592 6.77051 13.7215 6.79267 13.7714 6.83325L16.4391 9.00748C16.4685 9.03032 16.493 9.0588 16.5112 9.09125C16.5294 9.12371 16.541 9.15948 16.5452 9.19646C16.5494 9.23344 16.5462 9.27089 16.5357 9.30661C16.5252 9.34233 16.5077 9.37559 16.4842 9.40444C16.4607 9.4333 16.4316 9.45716 16.3988 9.47463C16.3659 9.4921 16.3299 9.50283 16.2928 9.50617C16.2557 9.50952 16.2184 9.50543 16.1829 9.49413C16.1474 9.48283 16.1146 9.46456 16.0863 9.44039L13.5941 7.41011L12.4041 8.37992L13.1741 9.00748C13.2188 9.04389 13.2512 9.09326 13.2667 9.14879C13.2822 9.20433 13.2802 9.26331 13.2609 9.31764C13.2415 9.37198 13.2059 9.419 13.1588 9.45224C13.1116 9.48549 13.0554 9.50334 12.9977 9.50334Z" fill="black"></path>
    <path opacity="0.6" d="M21.4165 18.175V11.3818H11.1091L21.4165 18.175Z" fill="#124379"></path>
    <path opacity="0.6" d="M22.7272 11.0012H10.1094V9.76367L14.095 10.1912L22.7272 11.0012Z" fill="#124379"></path>
    <path d="M5.94624 3.51045C5.91802 3.51053 5.89006 3.50501 5.86399 3.4942C5.83791 3.48339 5.81424 3.46752 5.79435 3.4475L4.56974 2.22289C4.54922 2.20308 4.53285 2.17937 4.52159 2.15316C4.51033 2.12695 4.50441 2.09875 4.50416 2.07023C4.50391 2.0417 4.50935 2.01341 4.52015 1.98701C4.53095 1.9606 4.5469 1.93661 4.56708 1.91644C4.58725 1.89627 4.61124 1.88032 4.63764 1.86951C4.66404 1.85871 4.69233 1.85328 4.72086 1.85352C4.74939 1.85377 4.77758 1.8597 4.80379 1.87096C4.83 1.88222 4.85371 1.89859 4.87353 1.9191L6.09814 3.14372C6.12817 3.17376 6.14863 3.21204 6.15691 3.25371C6.1652 3.29538 6.16095 3.33857 6.14469 3.37782C6.12843 3.41707 6.1009 3.45062 6.06558 3.47423C6.03026 3.49784 5.98873 3.51045 5.94624 3.51045Z" fill="#FFEAE8"></path>
    <path d="M10.9182 3.0509C10.8612 3.05089 10.8066 3.02825 10.7663 2.98795L10.0004 2.22225C9.98044 2.20229 9.96462 2.1786 9.95383 2.15252C9.94304 2.12644 9.93749 2.0985 9.9375 2.07028C9.93751 2.04206 9.94308 2.01412 9.95389 1.98805C9.96469 1.96198 9.98053 1.9383 10.0005 1.91835C10.0205 1.89841 10.0441 1.88259 10.0702 1.8718C10.0963 1.86101 10.1242 1.85546 10.1525 1.85547C10.1807 1.85548 10.2086 1.86105 10.2347 1.87186C10.2608 1.88266 10.2844 1.8985 10.3044 1.91846L11.0701 2.68374C11.1001 2.71378 11.1206 2.75206 11.1289 2.79373C11.1371 2.8354 11.1329 2.87859 11.1166 2.91784C11.1004 2.95709 11.0728 2.99064 11.0375 3.01425C11.0022 3.03786 10.9607 3.05047 10.9182 3.05047V3.0509Z" fill="#FFEAE8"></path>
    <path opacity="0.6" d="M13.9657 6.05H1.3479V4.8125L5.33347 5.24004L13.9657 6.05Z" fill="#B73F39"></path>
    <path d="M14.33 8.73425C14.2816 8.73437 14.2345 8.718 14.1966 8.68785L13.493 8.12925C13.4498 8.09341 13.4223 8.04206 13.4164 7.9862C13.4106 7.93035 13.4269 7.87443 13.4618 7.83042C13.4966 7.78641 13.5474 7.7578 13.6031 7.75073C13.6588 7.74366 13.7151 7.75869 13.7598 7.79259L14.4637 8.35119C14.4986 8.37892 14.524 8.41682 14.5364 8.45964C14.5488 8.50246 14.5476 8.54808 14.5329 8.59018C14.5182 8.63227 14.4908 8.66875 14.4544 8.69457C14.4181 8.72038 14.3746 8.73425 14.33 8.73425Z" fill="#8ECFB5"></path>
    <path d="M19.4784 8.73428C19.43 8.7344 19.3829 8.71803 19.345 8.68788L18.6414 8.12928C18.5967 8.09387 18.568 8.04217 18.5615 7.98556C18.5549 7.92895 18.5712 7.87207 18.6066 7.82743C18.642 7.78278 18.6937 7.75404 18.7503 7.74751C18.8069 7.74098 18.8638 7.75721 18.9084 7.79262L19.612 8.35122C19.6469 8.37895 19.6724 8.41685 19.6848 8.45967C19.6972 8.50249 19.6959 8.54811 19.6813 8.5902C19.6666 8.6323 19.6392 8.66878 19.6028 8.6946C19.5665 8.72041 19.523 8.73428 19.4784 8.73428Z" fill="#8ECFB5"></path>
    <path d="M14.115 6.55581H1.13623C1.06216 6.55581 0.991116 6.52638 0.938738 6.474C0.886359 6.42163 0.856934 6.35059 0.856934 6.27651V3.86426C0.856934 3.79018 0.886359 3.71914 0.938738 3.66676C0.991116 3.61439 1.06216 3.58496 1.13623 3.58496H14.115C14.189 3.58496 14.2601 3.61439 14.3124 3.66676C14.3648 3.71914 14.3942 3.79018 14.3942 3.86426V6.27651C14.3942 6.35059 14.3648 6.42163 14.3124 6.474C14.2601 6.52638 14.189 6.55581 14.115 6.55581ZM1.41553 5.99722H13.8357V4.14355H1.41553V5.99722Z" fill="#690A3F"></path>
    <path d="M10.8042 15.8984H2.38232C2.30825 15.8984 2.23721 15.8689 2.18483 15.8166C2.13245 15.7642 2.10303 15.6931 2.10303 15.6191V6.27637C2.10303 6.20229 2.13245 6.13125 2.18483 6.07887C2.23721 6.0265 2.30825 5.99707 2.38232 5.99707H12.8689C12.9429 5.99707 13.014 6.0265 13.0663 6.07887C13.1187 6.13125 13.1482 6.20229 13.1482 6.27637V7.58068C13.1482 7.65476 13.1187 7.7258 13.0663 7.77818C13.014 7.83056 12.9429 7.85998 12.8689 7.85998C12.7948 7.85998 12.7237 7.83056 12.6714 7.77818C12.619 7.7258 12.5896 7.65476 12.5896 7.58068V6.55566H2.66098V15.3398H10.8036C10.8776 15.3398 10.9487 15.3692 11.0011 15.4216C11.0534 15.474 11.0829 15.545 11.0829 15.6191C11.0829 15.6931 11.0534 15.7642 11.0011 15.8166C10.9487 15.8689 10.8776 15.8984 10.8036 15.8984H10.8042Z" fill="#690A3F"></path>
    <path d="M9.09483 6.55581H6.15576C6.08169 6.55581 6.01065 6.52638 5.95827 6.474C5.90589 6.42163 5.87646 6.35059 5.87646 6.27651V3.86426C5.87646 3.79018 5.90589 3.71914 5.95827 3.66676C6.01065 3.61439 6.08169 3.58496 6.15576 3.58496H9.09483C9.1689 3.58496 9.23994 3.61439 9.29232 3.66676C9.3447 3.71914 9.37412 3.79018 9.37412 3.86426V6.27651C9.37412 6.35059 9.3447 6.42163 9.29232 6.474C9.23994 6.52638 9.1689 6.55581 9.09483 6.55581ZM6.43506 5.99722H8.81553V4.14355H6.43506V5.99722Z" fill="#690A3F"></path>
    <path d="M8.67711 15.8978H6.57422C6.50014 15.8978 6.4291 15.8684 6.37673 15.816C6.32435 15.7637 6.29492 15.6926 6.29492 15.6185V6.51172C6.29492 6.43765 6.32435 6.3666 6.37673 6.31423C6.4291 6.26185 6.50014 6.23242 6.57422 6.23242H8.67754C8.75161 6.23242 8.82265 6.26185 8.87503 6.31423C8.92741 6.3666 8.95684 6.43765 8.95684 6.51172V15.6185C8.95684 15.6553 8.9496 15.6916 8.93554 15.7255C8.92147 15.7594 8.90086 15.7902 8.87488 15.8162C8.8489 15.8421 8.81806 15.8627 8.78413 15.8767C8.75019 15.8907 8.71382 15.8979 8.67711 15.8978ZM6.85309 15.3392H8.39781V6.79102H6.85352L6.85309 15.3392Z" fill="#690A3F"></path>
    <path d="M7.51406 4.14321C7.45883 4.14319 7.40485 4.1268 7.35894 4.09611C7.31303 4.06542 7.27725 4.0218 7.25612 3.97078C7.23499 3.91976 7.22946 3.86362 7.24022 3.80945C7.25099 3.75529 7.27758 3.70553 7.31662 3.66647L9.98433 0.998745C10.0367 0.946398 10.1077 0.916992 10.1818 0.916992C10.2558 0.916992 10.3268 0.946398 10.3792 0.998745L12.012 2.63156C12.0644 2.68394 12.0938 2.75496 12.0938 2.82901C12.0938 2.90305 12.0644 2.97407 12.012 3.02645L10.9763 4.06221C10.9239 4.11458 10.8528 4.14398 10.7787 4.14396C10.7047 4.14394 10.6336 4.1145 10.5813 4.0621C10.5289 4.00971 10.4995 3.93866 10.4995 3.86459C10.4995 3.79051 10.529 3.71948 10.5814 3.66711L11.4193 2.82922L10.1822 1.59215L7.7115 4.06286C7.68549 4.08858 7.65467 4.10892 7.62079 4.12271C7.5869 4.1365 7.55064 4.14346 7.51406 4.14321Z" fill="#690A3F"></path>
    <path d="M7.51362 4.14308C7.47695 4.14317 7.44063 4.136 7.40675 4.12199C7.37286 4.10798 7.34208 4.0874 7.31618 4.06144L4.84548 1.59074L3.60883 2.82824L4.44672 3.66613C4.47267 3.69207 4.49325 3.72287 4.50729 3.75677C4.52133 3.79066 4.52855 3.82699 4.52855 3.86368C4.52855 3.90037 4.52133 3.9367 4.50729 3.97059C4.49325 4.00449 4.47267 4.03529 4.44672 4.06123C4.42078 4.08717 4.38998 4.10775 4.35609 4.12179C4.32219 4.13583 4.28586 4.14306 4.24918 4.14306C4.21249 4.14306 4.17616 4.13583 4.14226 4.12179C4.10837 4.10775 4.07757 4.08717 4.05163 4.06123L3.01608 3.02547C2.96373 2.97309 2.93433 2.90207 2.93433 2.82802C2.93433 2.75398 2.96373 2.68296 3.01608 2.63058L4.64889 0.997769C4.70127 0.945422 4.77229 0.916016 4.84633 0.916016C4.92038 0.916016 4.9914 0.945422 5.04378 0.997769L7.71106 3.66635C7.7501 3.70541 7.77669 3.75516 7.78746 3.80933C7.79822 3.86349 7.79269 3.91963 7.77156 3.97066C7.75043 4.02168 7.71465 4.06529 7.66874 4.09598C7.62283 4.12667 7.56885 4.14306 7.51362 4.14308Z" fill="#690A3F"></path>
    <path d="M22.8629 11.4687H9.88501C9.81094 11.4687 9.7399 11.4393 9.68752 11.3869C9.63514 11.3346 9.60571 11.2635 9.60571 11.1894V9.22363C9.60571 9.14956 9.63514 9.07852 9.68752 9.02614C9.7399 8.97376 9.81094 8.94434 9.88501 8.94434H22.8629C22.9369 8.94434 23.008 8.97376 23.0604 9.02614C23.1127 9.07852 23.1422 9.14956 23.1422 9.22363V11.1894C23.1422 11.2635 23.1127 11.3346 23.0604 11.3869C23.008 11.4393 22.9369 11.4687 22.8629 11.4687ZM10.1643 10.9101H22.5836V9.50293H10.1643V10.9101Z" fill="#690A3F"></path>
    <path d="M21.6176 19.0837H11.1306C11.0565 19.0837 10.9855 19.0543 10.9331 19.0019C10.8807 18.9495 10.8513 18.8785 10.8513 18.8044V11.1895C10.8513 11.1154 10.8807 11.0443 10.9331 10.992C10.9855 10.9396 11.0565 10.9102 11.1306 10.9102H21.6176C21.6916 10.9102 21.7627 10.9396 21.8151 10.992C21.8674 11.0443 21.8969 11.1154 21.8969 11.1895V18.8044C21.8969 18.8785 21.8674 18.9495 21.8151 19.0019C21.7627 19.0543 21.6916 19.0837 21.6176 19.0837ZM11.4099 18.5251H21.3383V11.4688H11.4099V18.5251Z" fill="#690A3F"></path>
    <path d="M17.8436 11.4687H14.9045C14.8305 11.4687 14.7594 11.4393 14.707 11.3869C14.6547 11.3346 14.6252 11.2635 14.6252 11.1894V9.22363C14.6252 9.14956 14.6547 9.07852 14.707 9.02614C14.7594 8.97376 14.8305 8.94434 14.9045 8.94434H17.8436C17.9177 8.94434 17.9887 8.97376 18.0411 9.02614C18.0935 9.07852 18.1229 9.14956 18.1229 9.22363V11.1894C18.1229 11.2635 18.0935 11.3346 18.0411 11.3869C17.9887 11.4393 17.9177 11.4687 17.8436 11.4687ZM15.1838 10.9101H17.5643V9.50293H15.1838V10.9101Z" fill="#690A3F"></path>
    <path d="M17.4261 19.0838H15.3228C15.2487 19.0838 15.1776 19.0544 15.1253 19.002C15.0729 18.9496 15.0435 18.8786 15.0435 18.8045V11.3818C15.0435 11.3078 15.0729 11.2367 15.1253 11.1843C15.1776 11.132 15.2487 11.1025 15.3228 11.1025H17.4261C17.5001 11.1025 17.5712 11.132 17.6236 11.1843C17.6759 11.2367 17.7054 11.3078 17.7054 11.3818V18.8045C17.7054 18.8786 17.6759 18.9496 17.6236 19.002C17.5712 19.0544 17.5001 19.0838 17.4261 19.0838ZM15.6021 18.5252H17.1468V11.6611H15.6021V18.5252Z" fill="#690A3F"></path>
    <path d="M19.5275 9.50268C19.4698 9.50273 19.4136 9.48491 19.3664 9.45168C19.3193 9.41845 19.2835 9.37143 19.2642 9.31709C19.2448 9.26275 19.2428 9.20375 19.2583 9.14819C19.2738 9.09264 19.3062 9.04325 19.3509 9.00682L20.1209 8.37927L18.9309 7.41011L16.4387 9.44038C16.4104 9.46455 16.3776 9.48282 16.3421 9.49412C16.3066 9.50542 16.2693 9.50951 16.2322 9.50616C16.1951 9.50281 16.1591 9.49209 16.1262 9.47462C16.0934 9.45715 16.0643 9.43329 16.0408 9.40443C16.0173 9.37558 15.9998 9.34232 15.9893 9.3066C15.9788 9.27088 15.9756 9.23343 15.9798 9.19645C15.984 9.15947 15.9956 9.1237 16.0138 9.09124C16.032 9.05879 16.0566 9.03031 16.0859 9.00747L18.7537 6.83325C18.8035 6.79267 18.8658 6.77051 18.93 6.77051C18.9943 6.77051 19.0566 6.79267 19.1064 6.83325L20.7393 8.16335C20.7714 8.18954 20.7973 8.22256 20.8151 8.26002C20.8329 8.29748 20.8422 8.33844 20.8422 8.37991C20.8422 8.42138 20.8329 8.46234 20.8151 8.4998C20.7973 8.53726 20.7714 8.57028 20.7393 8.59647L19.7035 9.44038C19.6538 9.48085 19.5916 9.50287 19.5275 9.50268Z" fill="#690A3F"></path>
    <path d="M12.9977 9.50334C12.9334 9.50328 12.8711 9.48104 12.8213 9.44039L11.7858 8.59648C11.7536 8.57029 11.7277 8.53726 11.7099 8.4998C11.6921 8.46235 11.6829 8.42139 11.6829 8.37992C11.6829 8.33844 11.6921 8.29749 11.7099 8.26003C11.7277 8.22257 11.7536 8.18954 11.7858 8.16335L13.4186 6.83325C13.4684 6.79267 13.5307 6.77051 13.595 6.77051C13.6592 6.77051 13.7215 6.79267 13.7714 6.83325L16.4391 9.00748C16.4685 9.03032 16.493 9.0588 16.5112 9.09125C16.5294 9.12371 16.541 9.15948 16.5452 9.19646C16.5494 9.23344 16.5462 9.27089 16.5357 9.30661C16.5252 9.34233 16.5077 9.37559 16.4842 9.40444C16.4607 9.4333 16.4316 9.45716 16.3988 9.47463C16.3659 9.4921 16.3299 9.50283 16.2928 9.50617C16.2557 9.50952 16.2184 9.50543 16.1829 9.49413C16.1474 9.48283 16.1146 9.46456 16.0863 9.44039L13.5941 7.41011L12.4041 8.37992L13.1741 9.00748C13.2188 9.04389 13.2512 9.09326 13.2667 9.14879C13.2822 9.20433 13.2802 9.26331 13.2609 9.31764C13.2415 9.37198 13.2059 9.419 13.1588 9.45224C13.1116 9.48549 13.0554 9.50334 12.9977 9.50334Z" fill="#690A3F"></path>
  </symbol>
</svg>