<svg xmlns="http://www.w3.org/2000/svg">
  <view id="snowflake-1" viewBox="0 0 192 229" />
  <svg width="192" height="229" viewBox="0 0 192 229" x="0">
    <g opacity="0.4">
        <path d="M71.0309 0.879175C73.9854 -0.621352 77.5967 0.557575 79.0974 3.51199L94.1442 33.137L111.995 7.90652C113.909 5.20144 117.653 4.56022 120.358 6.4739C123.063 8.38771 123.705 12.1321 121.792 14.8372L100.288 45.2317L128.938 101.641L165.938 45.7337L149.063 10.345C147.637 7.35397 148.905 3.77231 151.896 2.34597C154.887 0.919993 158.468 2.1883 159.894 5.17898L173.666 34.0579L190.546 8.553C192.374 5.78995 196.097 5.03205 198.86 6.86062C201.623 8.68944 202.381 12.4127 200.552 15.176L183.523 40.9065L214.875 45.1946C218.158 45.6438 220.455 48.6686 220.007 51.9514C219.558 55.2345 216.532 57.5321 213.249 57.0833L176.173 52.013L139.091 108.043L207.572 111.212L226.544 79.0139C228.226 76.1591 231.904 75.2088 234.758 76.8909C237.613 78.5731 238.565 82.2508 236.883 85.1057L221.13 111.84L250.338 113.192C253.648 113.345 256.208 116.152 256.054 119.462C255.901 122.772 253.093 125.331 249.783 125.178L219.551 123.779L233.949 153.09C235.41 156.064 234.183 159.659 231.209 161.12C228.234 162.581 224.639 161.354 223.178 158.38L205.872 123.146L138.273 120.018L169.807 182.105L207.039 182.668C210.352 182.718 212.997 185.445 212.947 188.758C212.897 192.071 210.17 194.717 206.857 194.667L175.951 194.199L188.119 218.156C189.619 221.11 188.441 224.721 185.487 226.222C182.533 227.723 178.921 226.544 177.421 223.59L164.722 198.591L145.221 225.982C143.299 228.681 139.554 229.312 136.854 227.39C134.155 225.468 133.524 221.722 135.446 219.023L158.589 186.515L127.572 125.449L90.3669 181.665L108.674 216.543C110.214 219.477 109.084 223.105 106.15 224.645C103.216 226.185 99.5886 225.054 98.0485 222.12L82.8093 193.086L65.9587 218.548C64.1298 221.311 60.4065 222.068 57.6432 220.24C54.8802 218.411 54.1231 214.688 55.9518 211.925L72.1657 187.424L41.4196 184.388C38.1222 184.062 35.7131 181.125 36.0388 177.827C36.3645 174.53 39.3017 172.121 42.5993 172.447L79.6569 176.106L117.415 119.053L50.4401 115.954L32.7272 148.774C31.1533 151.69 27.5133 152.777 24.5974 151.203C21.6813 149.629 20.5927 145.99 22.1667 143.074L37.1364 115.339L6.16767 113.907C2.8575 113.753 0.29868 110.945 0.451845 107.635C0.605106 104.325 3.41225 101.766 6.72235 101.919L37.5436 103.345L22.2849 75.0735C20.7109 72.1575 21.7985 68.5176 24.7145 66.9436C27.6305 65.3698 31.2705 66.4583 32.8444 69.3743L51.529 103.992L118.242 107.079L90.1091 51.6917L50.2057 51.2063C46.8925 51.1658 44.2397 48.4464 44.28 45.1331C44.3204 41.8197 47.0389 39.166 50.3522 39.2063L83.9763 39.6155L68.3981 8.94558C66.8978 5.9912 68.0766 2.37973 71.0309 0.879175Z" fill="#D4E9FD"/>
    </g>
  </svg>
  <view id="snowflake-2" viewBox="192 0 256 316" />
  <svg width="256" height="316" viewBox="0 0 256 316" x="192">
    <g opacity="0.4">
        <path d="M-0.246521 0.902056C3.84505 -1.17512 8.84641 0.456867 10.9246 4.54665L31.7629 45.5564L56.484 10.63C59.1344 6.88536 64.3199 5.99771 68.0663 8.64681C71.8125 11.2961 72.7019 16.4794 70.0516 20.2241L40.271 62.2991L79.9487 140.386L131.19 62.9939L107.82 14.0056C105.844 9.86509 107.601 4.90701 111.743 2.93254C115.885 0.95856 120.844 2.71428 122.82 6.85426L141.892 46.8312L165.268 11.5249C167.801 7.70003 172.956 6.65087 176.783 9.18215C180.61 11.7138 181.659 16.8679 179.127 20.6932L155.543 56.3117L198.962 62.2477C203.508 62.8695 206.69 67.0567 206.069 71.6012C205.447 76.1459 201.256 79.3265 196.71 78.7052L145.363 71.6863L94.0086 149.249L188.848 153.636L215.122 109.064C217.451 105.112 222.545 103.796 226.498 106.125C230.452 108.453 231.769 113.544 229.44 117.497L207.624 154.505L248.074 156.376C252.658 156.588 256.203 160.474 255.991 165.056C255.779 169.638 251.89 173.18 247.306 172.968L205.438 171.031L225.377 211.607C227.4 215.724 225.701 220.701 221.582 222.723C217.463 224.746 212.484 223.047 210.461 218.93L186.493 170.155L92.8766 165.825L136.548 251.772L188.11 252.552C192.698 252.621 196.361 256.396 196.292 260.982C196.222 265.569 192.447 269.231 187.858 269.162L145.056 268.515L161.908 301.677C163.986 305.767 162.354 310.766 158.263 312.843C154.171 314.92 149.17 313.289 147.092 309.2L129.506 274.594L102.499 312.511C99.8376 316.247 94.65 317.12 90.9116 314.46C87.1733 311.8 86.3001 306.614 88.9613 302.877L121.011 257.877L78.0567 173.343L26.5317 251.164L51.8844 299.445C54.0172 303.506 52.4529 308.528 48.3897 310.66C44.3263 312.792 39.3027 311.227 37.1699 307.165L16.0652 266.973L-7.27106 302.22C-9.80385 306.045 -14.9602 307.093 -18.787 304.562C-22.6136 302.03 -23.6621 296.877 -21.1294 293.052L1.325 259.135L-41.255 254.932C-45.8216 254.481 -49.1579 250.416 -48.7069 245.851C-48.2558 241.286 -44.1881 237.951 -39.6213 238.402L11.6995 243.467L63.99 164.49L-28.7626 160.2L-53.293 205.632C-55.4728 209.668 -60.5137 211.174 -64.552 208.995C-68.5904 206.816 -70.098 201.778 -67.9182 197.741L-47.1868 159.348L-90.0752 157.365C-94.6594 157.153 -98.2031 153.266 -97.991 148.684C-97.7787 144.102 -93.8911 140.559 -89.307 140.771L-46.6228 142.745L-67.7546 103.609C-69.9343 99.5723 -68.4281 94.5336 -64.3897 92.3548C-60.3514 90.1762 -55.3105 91.683 -53.1307 95.7196L-27.2546 143.641L65.1355 147.915L26.1746 71.2416L-29.0872 70.5697C-33.6757 70.5136 -37.3496 66.7491 -37.2937 62.1625C-37.2377 57.5759 -33.473 53.9024 -28.8843 53.9582L17.6813 54.5246L-3.89268 12.0683C-5.97047 7.97861 -4.33794 2.97927 -0.246521 0.902056Z" fill="white"/>
    </g>
  </svg>
</svg>
