<svg width="55" height="47" viewBox="0 0 55 47" fill="none" xmlns="http://www.w3.org/2000/svg">
<path d="M34.7319 0.0742198C35.0555 -0.0966868 35.4511 0.0375903 35.6155 0.374091L37.2637 3.74831L39.2191 0.874618C39.4287 0.566517 39.8389 0.493483 40.1352 0.711447C40.4315 0.929425 40.5018 1.3559 40.2922 1.66401L37.9367 5.12587L41.075 11.5508L45.128 5.18305L43.2795 1.15236C43.1233 0.811684 43.2622 0.403741 43.5898 0.241285C43.9175 0.0788689 44.3097 0.223326 44.466 0.563958L45.9745 3.8532L47.8235 0.948252C48.0238 0.633547 48.4316 0.547223 48.7342 0.755493C49.0369 0.963791 49.12 1.38786 48.9196 1.7026L47.0542 4.63324L50.4885 5.12165C50.8481 5.17281 51.0998 5.51732 51.0506 5.89124C51.0014 6.26517 50.67 6.52686 50.3104 6.47574L46.2491 5.89824L42.1871 12.28L49.6885 12.6409L51.7667 8.97359C51.951 8.64843 52.3538 8.54019 52.6665 8.73178C52.9793 8.92338 53.0835 9.34226 52.8992 9.66744L51.1736 12.7124L54.3731 12.8664C54.7357 12.8838 55.0161 13.2035 54.9993 13.5806C54.9825 13.9576 54.6749 14.249 54.3123 14.2316L51.0008 14.0722L52.5779 17.4107C52.7379 17.7495 52.6035 18.1589 52.2777 18.3253C51.9519 18.4917 51.5581 18.352 51.3981 18.0132L49.5023 14.0001L42.0976 13.6438L45.5518 20.7154L49.6301 20.7796C49.9931 20.7853 50.2828 21.0959 50.2773 21.4732C50.2718 21.8506 49.9732 22.152 49.6102 22.1462L46.2248 22.093L47.5577 24.8215C47.722 25.158 47.593 25.5693 47.2694 25.7403C46.9457 25.9112 46.5502 25.777 46.3858 25.4405L44.9948 22.5932L42.8587 25.7129C42.6482 26.0203 42.2379 26.0922 41.9422 25.8733C41.6465 25.6544 41.5774 25.2277 41.7879 24.9203L44.3229 21.2177L40.9254 14.2624L36.85 20.6654L38.8553 24.6379C39.024 24.9721 38.9002 25.3852 38.5788 25.5606C38.2575 25.736 37.8601 25.6073 37.6914 25.2731L36.0221 21.9662L34.1763 24.8662C33.976 25.1809 33.5681 25.2672 33.2654 25.0589C32.9628 24.8506 32.8798 24.4266 33.0802 24.1119L34.8562 21.3213L31.4883 20.9755C31.1271 20.9383 30.8632 20.6038 30.8989 20.2282C30.9346 19.8526 31.2563 19.5783 31.6175 19.6154L35.6768 20.0321L39.8128 13.534L32.4764 13.181L30.5361 16.9191C30.3637 17.2512 29.965 17.3751 29.6456 17.1958C29.3262 17.0165 29.2069 16.602 29.3793 16.2698L31.0191 13.111L27.6268 12.9478C27.2642 12.9303 26.9839 12.6105 27.0007 12.2335C27.0175 11.8565 27.325 11.565 27.6876 11.5825L31.0637 11.7448L29.3923 8.52479C29.2199 8.19266 29.339 7.77808 29.6584 7.59881C29.9779 7.41956 30.3766 7.54354 30.549 7.87566L32.5957 11.8186L39.9034 12.1702L36.8217 5.86165L32.4507 5.80637C32.0878 5.80175 31.7972 5.49202 31.8016 5.11464C31.8061 4.73726 32.1038 4.435 32.4668 4.4396L36.1499 4.4862L34.4435 0.992965C34.2792 0.656468 34.4083 0.24513 34.7319 0.0742198Z" fill="#76977E"/>
<path d="M43.866 34.0371C44.0278 33.9517 44.2256 34.0188 44.3078 34.187L45.1319 35.8742L46.1095 34.4373C46.2144 34.2833 46.4194 34.2467 46.5676 34.3557C46.7157 34.4647 46.7509 34.6779 46.6461 34.832L45.4683 36.5629L47.0375 39.7754L49.064 36.5915L48.1398 34.5762C48.0616 34.4058 48.1311 34.2019 48.2949 34.1206C48.4587 34.0394 48.6549 34.1117 48.733 34.282L49.4872 35.9266L50.4117 34.4741C50.5119 34.3168 50.7158 34.2736 50.8671 34.3777C51.0185 34.4819 51.06 34.6939 50.9598 34.8513L50.0271 36.3166L51.7442 36.5608C51.924 36.5864 52.0499 36.7587 52.0253 36.9456C52.0007 37.1326 51.835 37.2634 51.6552 37.2379L49.6245 36.9491L47.5936 40.14L51.3443 40.3205L52.3833 38.4868C52.4755 38.3242 52.6769 38.2701 52.8333 38.3659C52.9896 38.4617 53.0417 38.6711 52.9496 38.8337L52.0868 40.3562L53.6865 40.4332C53.8678 40.4419 54.008 40.6018 53.9996 40.7903C53.9913 40.9788 53.8375 41.1245 53.6562 41.1158L52.0004 41.0361L52.7889 42.7054C52.8689 42.8747 52.8018 43.0795 52.6388 43.1627C52.4759 43.2459 52.279 43.176 52.199 43.0066L51.2512 41.0001L47.5488 40.8219L49.2759 44.3577L51.3151 44.3898C51.4965 44.3927 51.6414 44.5479 51.6387 44.7366C51.6359 44.9253 51.4866 45.076 51.3051 45.0731L49.6124 45.0465L50.2788 46.4108C50.361 46.579 50.2965 46.7847 50.1347 46.8701C49.9729 46.9556 49.7751 46.8885 49.6929 46.7202L48.9974 45.2966L47.9293 46.8564C47.8241 47.0102 47.6189 47.0461 47.4711 46.9366C47.3232 46.8272 47.2887 46.6139 47.394 46.4601L48.6615 44.6089L46.9627 41.1312L44.925 44.3327L45.9276 46.3189C46.012 46.486 45.9501 46.6926 45.7894 46.7803C45.6287 46.868 45.4301 46.8036 45.3457 46.6365L44.5111 44.9831L43.5882 46.4331C43.488 46.5905 43.2841 46.6336 43.1327 46.5294C42.9814 46.4253 42.9399 46.2133 43.0401 46.0559L43.9281 44.6606L42.2442 44.4877C42.0636 44.4692 41.9316 44.3019 41.9494 44.1141C41.9673 43.9263 42.1282 43.7891 42.3088 43.8077L44.3384 44.0161L46.4064 40.767L42.7382 40.5905L41.7681 42.4595C41.6819 42.6256 41.4825 42.6875 41.3228 42.5979C41.1631 42.5083 41.1035 42.301 41.1897 42.1349L42.0096 40.5555L40.3134 40.4739C40.1321 40.4652 39.992 40.3052 40.0004 40.1167C40.0088 39.9282 40.1625 39.7825 40.3438 39.7912L42.0319 39.8724L41.1961 38.2624C41.1099 38.0963 41.1695 37.889 41.3292 37.7994C41.4889 37.7098 41.6883 37.7718 41.7745 37.9378L42.7978 39.9093L46.4517 40.0851L44.9109 36.9308L42.7254 36.9032C42.5439 36.9009 42.3986 36.746 42.4008 36.5573C42.403 36.3686 42.5519 36.2175 42.7334 36.2198L44.575 36.2431L43.7218 34.4965C43.6396 34.3282 43.7041 34.1226 43.866 34.0371Z" fill="#76977E"/>
<path d="M4.20912 8.01998C4.30158 7.97397 4.41461 8.01012 4.46157 8.10072L4.93249 9.00916L5.49116 8.23547C5.55106 8.15252 5.66825 8.13286 5.75291 8.19154C5.83757 8.25023 5.85767 8.36505 5.79778 8.448L5.12477 9.38004L6.02144 11.1098L7.17943 9.39544L6.65129 8.31025C6.60665 8.21853 6.64635 8.1087 6.73996 8.06496C6.83356 8.02123 6.94563 8.06013 6.99027 8.15183L7.42128 9.0374L7.94957 8.2553C8.0068 8.17057 8.1233 8.14733 8.20978 8.2034C8.29627 8.25948 8.31999 8.37366 8.26275 8.45839L7.72979 9.24741L8.711 9.37891C8.81374 9.39268 8.88565 9.48543 8.87161 9.5861C8.85755 9.68678 8.76286 9.75723 8.66011 9.74347L7.49973 9.58799L6.33918 11.3061L8.48244 11.4033L9.0762 10.416C9.12885 10.3284 9.24395 10.2993 9.3333 10.3509C9.42265 10.4024 9.45242 10.5152 9.39977 10.6028L8.90675 11.4226L9.82088 11.464C9.92448 11.4687 10.0046 11.5548 9.9998 11.6563C9.995 11.7578 9.90712 11.8363 9.80352 11.8316L8.85736 11.7887L9.30796 12.6875C9.35368 12.7787 9.31529 12.8889 9.2222 12.9337C9.12911 12.9785 9.0166 12.9409 8.97088 12.8497L8.42923 11.7693L6.3136 11.6733L7.30052 13.5772L8.46575 13.5945C8.56944 13.596 8.65222 13.6797 8.65066 13.7812C8.64909 13.8828 8.56377 13.964 8.46007 13.9625L7.4928 13.9481L7.87362 14.6827C7.92058 14.7733 7.88371 14.884 7.79125 14.9301C7.69879 14.9761 7.58576 14.94 7.53879 14.8494L7.14138 14.0828L6.53106 14.9227C6.47091 15.0055 6.35367 15.0248 6.26919 14.9659C6.18471 14.907 6.16497 14.7921 6.22512 14.7093L6.94941 13.7125L5.97868 11.8399L4.81427 13.5637L5.38722 14.6333C5.43542 14.7232 5.40007 14.8345 5.30824 14.8817C5.21641 14.9289 5.10289 14.8943 5.05469 14.8043L4.57774 13.914L4.05037 14.6948C3.99313 14.7795 3.87661 14.8027 3.79012 14.7466C3.70365 14.6905 3.67995 14.5764 3.73719 14.4917L4.24463 13.7403L3.28237 13.6472C3.17917 13.6372 3.10378 13.5472 3.11397 13.4461C3.12416 13.3449 3.21609 13.2711 3.31929 13.2811L4.47909 13.3933L5.66079 11.6438L3.56469 11.5487L3.01033 12.5551C2.96107 12.6446 2.84715 12.6779 2.75589 12.6296C2.66462 12.5814 2.63055 12.4698 2.67981 12.3803L3.14832 11.5299L2.17909 11.4859C2.07549 11.4812 1.99541 11.3951 2.0002 11.2936C2.005 11.1921 2.09286 11.1137 2.19645 11.1184L3.16107 11.1621L2.68351 10.2951C2.63425 10.2057 2.66829 10.0941 2.75955 10.0458C2.85082 9.99757 2.96474 10.031 3.01399 10.1204L3.59877 11.1819L5.68668 11.2766L4.80621 9.57814L3.55735 9.56325C3.45366 9.56201 3.37063 9.47862 3.37189 9.37702C3.37316 9.27542 3.45824 9.19404 3.56194 9.19528L4.61427 9.20782L4.12672 8.26734C4.07976 8.17674 4.11666 8.066 4.20912 8.01998Z" fill="#76977E"/>
<path d="M5.5228 29.0485C5.75396 28.9368 6.03652 29.0246 6.15393 29.2446L7.33124 31.4508L8.72791 29.5719C8.87765 29.3704 9.17062 29.3227 9.38227 29.4652C9.59393 29.6077 9.64417 29.8865 9.49444 30.088L7.81192 32.3515L10.0536 36.5524L12.9486 32.3889L11.6282 29.7535C11.5166 29.5307 11.6159 29.264 11.8499 29.1578C12.0839 29.0516 12.3641 29.146 12.4757 29.3687L13.5532 31.5194L14.8739 29.62C15.017 29.4142 15.3083 29.3578 15.5245 29.494C15.7407 29.6302 15.8 29.9074 15.6569 30.1132L14.3245 32.0294L16.7775 32.3488C17.0343 32.3822 17.2141 32.6075 17.179 32.852C17.1439 33.0965 16.9071 33.2676 16.6503 33.2341L13.7493 32.8565L10.8479 37.0292L16.2061 37.2652L17.6905 34.8673C17.8221 34.6547 18.1099 34.584 18.3332 34.7092C18.5566 34.8345 18.631 35.1084 18.4994 35.321L17.2669 37.312L19.5522 37.4126C19.8112 37.424 20.0115 37.6331 19.9995 37.8796C19.9875 38.1261 19.7678 38.3167 19.5088 38.3053L17.1434 38.201L18.2699 40.3839C18.3842 40.6054 18.2882 40.8732 18.0555 40.9819C17.8228 41.0907 17.5415 40.9994 17.4272 40.7779L16.0731 38.1539L10.784 37.921L13.2513 42.5447L16.1644 42.5867C16.4236 42.5904 16.6306 42.7934 16.6267 43.0402C16.6227 43.2869 16.4094 43.484 16.1502 43.4802L13.732 43.4454L14.684 45.2294C14.8015 45.4495 14.7093 45.7184 14.4781 45.8302C14.247 45.9419 13.9644 45.8542 13.847 45.6342L12.8534 43.7725L11.3276 45.8123C11.1773 46.0133 10.8842 46.0603 10.673 45.9171C10.4618 45.774 10.4124 45.4951 10.5628 45.294L12.3735 42.8731L9.9467 38.3254L7.03569 42.512L8.46804 45.1094C8.58854 45.3279 8.50017 45.598 8.2706 45.7127C8.04104 45.8274 7.75722 45.7432 7.63672 45.5247L6.44436 43.3625L5.12593 45.2587C4.98283 45.4645 4.69151 45.5208 4.47531 45.3846C4.25912 45.2484 4.19988 44.9712 4.34297 44.7655L5.61158 42.9408L3.20593 42.7147C2.94793 42.6905 2.75944 42.4717 2.78492 42.2261C2.81041 41.9806 3.04022 41.8012 3.29823 41.8254L6.19771 42.0979L9.15198 37.8491L3.91172 37.6184L2.52582 40.0625C2.40267 40.2796 2.11787 40.3606 1.88972 40.2434C1.66156 40.1262 1.57638 39.8551 1.69953 39.638L2.8708 37.5725L0.447731 37.4659C0.188735 37.4544 -0.0114729 37.2453 0.000511122 36.9988C0.0125027 36.7523 0.23214 36.5617 0.491131 36.5731L2.90267 36.6793L1.70878 34.5739C1.58563 34.3567 1.67073 34.0857 1.89888 33.9685C2.12704 33.8513 2.41184 33.9323 2.53499 34.1495L3.99691 36.7275L9.2167 36.9574L7.01552 32.8326L3.89338 32.7965C3.63414 32.7935 3.42658 32.5909 3.42973 32.3442C3.4329 32.0974 3.6456 31.8998 3.90484 31.9028L6.53567 31.9333L5.3168 29.6492C5.19941 29.4292 5.29164 29.1603 5.5228 29.0485Z" fill="#76977E"/>
</svg>
